<svg id="Layer_1" data-name="Layer 1" xmlns="http://www.w3.org/2000/svg" viewBox="0 0 355 55"><defs><style>.cls-1{fill:#141313;fill-rule:evenodd;}.cls-2{font-size:24.07px;font-family:CrimsonText-Bold, Crimson Text;font-weight:700;}.cls-2,.cls-3{fill:#282424;}.cls-3{font-size:23px;font-family:JuliusSansOne-Regular, Julius Sans One;letter-spacing:-0.03em;}.cls-4{letter-spacing:0.01em;}.cls-5{letter-spacing:0.03em;}.cls-6{letter-spacing:-0.05em;}.cls-7{letter-spacing:-0.01em;}.cls-8{letter-spacing:0.01em;}</style></defs><title>ct-logo-horizontal</title><path class="cls-1" d="M30.39,46.92c0-.05,0-.09,0,0s0,.11,0,0ZM26.23,40a6.88,6.88,0,0,0,.9,0c.14,0,.16,0,.3,0a14.5,14.5,0,0,0,1.74-.1c.37-.07.82-.11,1.18-.19a1.81,1.81,0,0,1,.37-.09v7.71l0,0-.32-.69-.13-.26c-.08-.16-.18-.31-.26-.47a9.46,9.46,0,0,0-.57-.92,1.35,1.35,0,0,1-.14-.22l-.45-.67a1.2,1.2,0,0,0-.15-.24l-.3-.43c-.15-.25-.49-.7-.59-.89s-.09-.15-.15-.24-.19-.29-.3-.44c-.29-.43-.75-1.26-1-1.74a1.47,1.47,0,0,1-.06-.14Zm4.9,7.45V39.72l2.2.36.61,0a3,3,0,0,0,.6,0c.24,0,.67,0,.85,0a1.88,1.88,0,0,1,.28,0,9,9,0,0,1-.53.94L33.35,43.7l-.29.45-1.43,2.32-.36.76c-.05.11-.05.19-.14.25Zm.46.05a18.41,18.41,0,0,1,1-2c.2-.31.38-.61.6-.91l.92-1.35.3-.46.61-.92c.27-.51.54-.83.85-1.45l.28-.49a8.18,8.18,0,0,0,1.26-.19l.88-.22c.1,0,0,0,.12-.06l.43-.12a3.59,3.59,0,0,0,.52-.2l1.19-.47.14-.07-.26.43c-.1.1,0,.06-.11.18l-.5.77c-.12.23-.77,1-1,1.28l-.27.3-.25.3L37.25,43l-.15.13-.75.68c-.27.21-.34.33-.61.51-.08.06-.08.08-.15.14l-1.74,1.37a2.6,2.6,0,0,0-.31.25,6.57,6.57,0,0,1-.65.5l-.91.77c-.2.2.06.15-.39.15ZM21.18,38.6l1.13.5c.09,0,.06,0,.14,0s0,0,.13,0c.27.07.4.18.69.25s.67.2.84.23l.92.21a4.06,4.06,0,0,0,.67.07,4.15,4.15,0,0,1,.27.47,5.5,5.5,0,0,0,.28.48,4.71,4.71,0,0,1,.29.48c.22.45.67,1,.87,1.39l.69,1,.07.11.46.68.15.23c.28.42.82,1.26,1,1.66a7.79,7.79,0,0,1,.48,1.05H30c0-.14-.29-.28-.42-.4L28.22,46c-.22-.16-.37-.31-.64-.5s-.6-.49-.91-.74l-1.06-.88a2.07,2.07,0,0,1-.44-.4L24.59,43l-.28-.28c-.1-.11-.16-.19-.27-.3l-.53-.56c-.22-.28-.41-.43-.63-.75l-1.61-2.29-.05-.08a.37.37,0,0,1,0-.11Zm20.59-1.05Zm-10,1.89,0,0c.24-.15.89-.32,1.26-.54s.71-.34,1.21-.67a10.34,10.34,0,0,0,2-1.74,5.22,5.22,0,0,0,.61-.64l.39-.53a.74.74,0,0,1,.15-.19l-.11.56c-.06.32-.33,1.28-.43,1.56l-.16.51c-.06.15-.14.3-.21.45a11.7,11.7,0,0,1-.62,1.37c-.06.09,0,.05-.26.07l-.6.07a2.42,2.42,0,0,0-.59,0c-.14,0-1.38-.07-1.54-.09l-1.15-.18Zm-7.3-4.36c.08.05.22.33.39.53l.13.17.28.34a8.62,8.62,0,0,0,.92,1l.85.71a7.51,7.51,0,0,0,.75.5,9.16,9.16,0,0,0,1,.55,10.11,10.11,0,0,0,1.35.55v0c-.25,0-1.11.23-1.76.23-.25,0-.42,0-.64,0a4.65,4.65,0,0,0-.63,0,4.68,4.68,0,0,1-1-.09l-.09,0s-.23-.5-.33-.68-.61-1.46-.66-1.66l-.31-1c-.12-.37-.15-1-.22-1.13Zm6.66,4.1V35.54a4.75,4.75,0,0,0,.5.11l.57.07a10.26,10.26,0,0,0,1.15.1c.18,0,.36,0,.51,0a9.27,9.27,0,0,0,1.24-.17l1.13-.33c.14-.05.25-.11.4-.16l.4-.19a2.91,2.91,0,0,1-.32.45l-.09.14A19.85,19.85,0,0,1,35.25,37a10.51,10.51,0,0,1-1.86,1.3l-.63.31a3.57,3.57,0,0,1-.68.3l-.95.32ZM24.91,35l.8.31a3.89,3.89,0,0,1,.41.16l.44.12a5.77,5.77,0,0,0,.94.19,4.28,4.28,0,0,0,.52,0c.17,0,.33.06.51.06a10.76,10.76,0,0,0,1.94-.21l.25,0v3.6l-.93-.32c-.31-.12-.55-.26-.86-.38a10.77,10.77,0,0,1-1.56-.94c-.29-.19-.75-.61-1-.84a2.56,2.56,0,0,0-.31-.33.71.71,0,0,1-.15-.15l-.29-.33a.85.85,0,0,1-.14-.19,4.32,4.32,0,0,1-.54-.73Zm8.37.46c-.66,0-1.18-.16-1.59-.16.06-.07.11-.07.22-.11a7.19,7.19,0,0,0,1.08-.6,1.48,1.48,0,0,0,.39-.31l.63.21a10.06,10.06,0,0,0,2.25.36l-.13.07-.16.07-1.44.35a7.56,7.56,0,0,1-1.25.12Zm-7.71-.64a9.08,9.08,0,0,0,2.61-.42l.32-.12a3.54,3.54,0,0,0,.4.29c.19.11.67.43.87.51s.4.13.47.22a3.74,3.74,0,0,0-.39,0,7.12,7.12,0,0,1-2.48,0,.64.64,0,0,1-.2,0l-1.6-.49Zm-2-.56Zm7.58.76V32.83c.13.09.26.25.39.35l.23.15.21.17.46.28A3.5,3.5,0,0,0,33,34l-.84.56-.47.2a2.7,2.7,0,0,1-.5.18ZM28.94,34a2.23,2.23,0,0,0,.49-.24A9.19,9.19,0,0,0,30.54,33c.07-.06.11-.14.21-.17V33.9c0,.39,0,.7,0,1.07a7.09,7.09,0,0,1-1.16-.52,3.18,3.18,0,0,1-.62-.42Zm8.16-3.5.18.49c0,.17.09.33.12.49s.06.35.09.53a5.35,5.35,0,0,1,.07.56c0,.39,0,.86,0,1.21a.55.55,0,0,1-.13.47l-.16.06a8.25,8.25,0,0,1-1.92,0c-.13,0-.19,0-.32-.06L34.1,34a1.4,1.4,0,0,0-.31-.09c0-.09.19-.24.28-.32l.06-.05,0,0,0,0,.39-.45a5.86,5.86,0,0,0,.57-.89.77.77,0,0,1,.07-.16c.07-.09.16-.07.27-.14a8.35,8.35,0,0,0,1-.69l.23-.2a1.87,1.87,0,0,0,.39-.46Zm-.74,9a4.48,4.48,0,0,0,.38-.8c.07-.24.27-.56.37-.83s.17-.6.29-.87l.25-1c.1-.33.14-.65.21-1,0-.09,0-.29,0-.37a3.4,3.4,0,0,0,.65-.12,14.57,14.57,0,0,0,1.58-.39l.31-.09a1.24,1.24,0,0,1,.29-.1,7,7,0,0,0,.86-.34l.26-.12.28-.13c.26-.11.27-.1.55-.24a15.15,15.15,0,0,1-.34,1.62,4,4,0,0,1-.18.62,2.36,2.36,0,0,0-.14.44c0,.09,0,0-.07.14a.88.88,0,0,1,0,.15l-.16.43a8.34,8.34,0,0,1-.5,1.08c-.09.14,0,.21-.11.3s-.18.06-.28.1l-.52.27a10.46,10.46,0,0,1-1.12.46l-.59.21a.44.44,0,0,1-.15.05l-.16,0a3.74,3.74,0,0,1-.62.16,4.4,4.4,0,0,1-.65.15l-.67.12Zm-12-6.4a11.49,11.49,0,0,1,.2-1.72c0-.1.05-.21.07-.31s.15-.48.16-.6c.18.12.49.51.63.62l.24.19a6.16,6.16,0,0,0,.75.53.83.83,0,0,0,.13.07.59.59,0,0,1,.2.09h0c.06.08,0,.13.09.24l.09.12.44.66c.06.09.12.14.18.22a3.47,3.47,0,0,0,.41.46.91.91,0,0,1,.23.21,4.59,4.59,0,0,0-.45.14,12.13,12.13,0,0,1-1.56.27c-.34.06-.8,0-1.18,0-.16,0-.09,0-.26,0s-.2,0-.3-.16,0,0,0,0a1.94,1.94,0,0,1,0-.67c0-.14,0-.21,0-.35Zm-5.08,0a1.78,1.78,0,0,1,.53.24c.62.23.95.45,1.7.67a2.91,2.91,0,0,1,.28.1c.1,0,.21,0,.3.08a4,4,0,0,0,.62.18c.41.06,1,.23,1.34.23a3.58,3.58,0,0,0,.1.69c0,.12,0,.21.06.33s0,.22.06.35c.09.33.32,1.21.45,1.51l.45,1.13a2.69,2.69,0,0,0,.19.43l.2.41c-.21,0-.72-.15-.95-.2l-.35-.06L23,38.91l-1.13-.45a2.85,2.85,0,0,1-.41-.18l-.26-.12-.13-.08c-.26-.15-.24.06-.39-.4l-.26-.53-.13-.28-.1-.27a.6.6,0,0,0-.07-.14l-.06-.15-.15-.44a1,1,0,0,1-.06-.14.65.65,0,0,1,0-.13c-.06-.23-.16-.47-.24-.76l-.23-1a5.09,5.09,0,0,0-.11-.68Zm11.28-.74Zm2.81,1.32-.28-.13-.26-.15-.27-.13-.74-.51c-.08-.06-.14-.14-.21-.2s-.18-.15-.21-.23a1.82,1.82,0,0,0,.37.09l.18.06h.24c.15,0,.27,0,.44.05a.88.88,0,0,1,.2,0,7.9,7.9,0,0,0,1.06-.14l.75-.22a4.16,4.16,0,0,1-.73,1l-.54.5Zm-2.81-1.32a3.26,3.26,0,0,1-.66.56,6.81,6.81,0,0,1-1.31.76,4.52,4.52,0,0,0-.5-.49,5.83,5.83,0,0,1-.69-1,3.89,3.89,0,0,1,.71.18,5,5,0,0,0,2.07,0,2.14,2.14,0,0,1,.38-.07Zm-6.94,1.76-1.85-.45L21,33.5a1.92,1.92,0,0,1-.48-.18L19.4,32.8c-.28-.15-.27-.18-.26-.4l-.05-.95c0-.14,0-.16,0-.3,0-.41.06-1.16.1-1.56a9.89,9.89,0,0,1,.18-1.15s0,0,0,0l0,.06.8,1.85a8.58,8.58,0,0,0,.6,1l.82,1.07a2,2,0,0,1,.14.16,11.69,11.69,0,0,0,1.47,1.34,2,2,0,0,1,.36.28Zm14.7,0a9.88,9.88,0,0,0,1-.82l.33-.3c.07-.07.08-.11.14-.17l.42-.4h0a9.37,9.37,0,0,0,.9-1.08L42,30a1.36,1.36,0,0,0,.15-.31l.28-.67.09-.21a.47.47,0,0,1,.1-.24L42.78,30c0,.19,0,.81.06.94s-.07,1.24-.07,1.55,0,.22-.29.37l-1.59.71a15.09,15.09,0,0,1-2.61.7Zm-7.15-2.62V29.79c.17,0,.34.19.59.21a3.87,3.87,0,0,1-.45,1.47c-.07.12-.07.12-.14.14Zm-7.65-3.22c.05,0,.31.69.44.91a4.65,4.65,0,0,0,.26.41c.36.55.3.3.07,1.07A9.64,9.64,0,0,0,24,32.2c0,.28,0,.56-.06.81a2.05,2.05,0,0,1-.18-.49,9.57,9.57,0,0,1-.27-1.06c-.08-.48-.07-.8-.12-1.23A7.39,7.39,0,0,1,23.4,29a3.75,3.75,0,0,0,.08-.61Zm6.71,1.66c0-.08,0-.07.11-.1l.15-.05.27-.13v1.86l-.33-.71a4.55,4.55,0,0,1-.2-.87Zm1.63,1.25a5.57,5.57,0,0,0,.31-1.2l.58,0a2.77,2.77,0,0,1-.89,1.23ZM38,33.11a7.06,7.06,0,0,0-.26-2.06c-.06-.15-.15-.6-.22-.75s-.05-.07,0-.13l.32-.45a.83.83,0,0,0,.07-.13l.47-.89a1.69,1.69,0,0,1,.12-.28l.11.7a11.9,11.9,0,0,1,0,1.23A9.21,9.21,0,0,1,38.33,32c0,.08,0,.11,0,.17a1.6,1.6,0,0,0-.05.21l-.18.53a.69.69,0,0,1,0,.1l0,.08Zm-8.78-3.06a2.84,2.84,0,0,0,.59,0,4.44,4.44,0,0,0,.31,1.23,3.56,3.56,0,0,1-.51-.57l-.32-.47c0-.07,0-.15-.07-.21Zm-2.7-.33a4.2,4.2,0,0,1,.18-1.53h0a.22.22,0,0,0,.05.17,4.78,4.78,0,0,0,1,1.11l.42.26.17.06a1,1,0,0,0,.36.13,2.68,2.68,0,0,0,.29.68c.13.2.25.4.39.58a3.64,3.64,0,0,0,.93.78c.11,0,.11,0,.17.08a7.37,7.37,0,0,1-1.3.18c-.23,0-.38,0-.59,0a4.67,4.67,0,0,1-1.06-.24l-.12,0c-.19,0-.05,0-.37-.14-.14,0-.08-.06-.12-.19a2.29,2.29,0,0,0-.1-.23,7.59,7.59,0,0,1-.28-1,3,3,0,0,1-.06-.6Zm6.35,2.5-.81,0c-.19,0-.42-.11-.62-.13.07-.09,0,0,.16-.07a.46.46,0,0,0,.17-.09l.39-.32a2,2,0,0,0,.48-.49,1.49,1.49,0,0,1,.12-.14,3.06,3.06,0,0,0,.47-1,3,3,0,0,0,1-.47,3.5,3.5,0,0,0,.5-.44,3.78,3.78,0,0,0,.52-.69c0-.1,0-.11.09-.16,0,.41.17.84.17,1.3,0,.24,0,.39,0,.61a1.81,1.81,0,0,1-.1.56,5,5,0,0,1-.18.63c0,.07,0,.05-.06.12-.15.44,0,.26-.18.33l0,0a4.89,4.89,0,0,1-2,.46Zm-.33,15.26a8.13,8.13,0,0,1,.92-.77l1.9-1.49c.43-.32.82-.69,1.24-1l.44-.4.15-.13.6-.55c.06-.06.07-.09.13-.16L39,41.78a9.85,9.85,0,0,0,.78-.93l.71-1c.14-.25.33-.46.44-.7s.3-.46.42-.71,0-.13.08-.22.11,0,.37-.19l2.35-1.6.31-.25c.38-.28.72-.64,1.06-.94l.07,0,.07-.09,1.52-1.6.12-.15a1,1,0,0,1,.14-.15l.25-.31c.13-.14.24-.32.37-.47l.26-.3c.3-.35.58-.77.86-1.13l.39-.48c.25-.31.47-.65.72-1a2.06,2.06,0,0,1,.28-.31c0,.15,0,.35-.05.51a15.44,15.44,0,0,1-.39,2.42l-.24.91c-.05.17-.06.27-.12.44s-.13.44-.21.63-.22.71-.39,1-.15.41-.24.6L47.73,38a1.74,1.74,0,0,0-.11.18l-1.68,2.3c-.27.3-.51.61-.79.89s-.28.3-.43.44l-.72.68a2.43,2.43,0,0,1-.3.26l-1.27,1a7.64,7.64,0,0,1-.83.57,6,6,0,0,0-.53.34l-.34.22-2.66,1.29c-.12.05-.3.1-.43.14-.33.11-.22.09-.63.21l-.21.07-.45.14a14.76,14.76,0,0,1-2.81.58,7.4,7.4,0,0,1-1,.12ZM11.38,29.23a5.09,5.09,0,0,1,.52.6c.25.32.47.65.74,1l.23.33.25.31,1.38,1.76c.52.55,1.36,1.58,1.9,2.06l2,1.68,1.37.91.35.21c.55.33.21,0,.57.58.07.12.13.23.21.35l.21.35.1.18c.21.34.88,1.27,1.06,1.49l.5.63.14.14c.06.06.06.08.13.15l.13.15.56.59c.15.13.24.32.4.44a2.72,2.72,0,0,1,.3.29.88.88,0,0,0,.15.12c.15.13.28.3.42.42l1.25,1,.31.25.46.41c.31.25.65.47,1,.73l.49.37c.06,0,.09.09.15.13l.31.25a4.75,4.75,0,0,1,.46.41c-.73-.06-1.74-.21-2.46-.35A3.6,3.6,0,0,1,26.5,47L26.27,47c-.24-.06-.95-.22-1.13-.3a2.57,2.57,0,0,0-.42-.14l-.2-.08-.2-.08a17,17,0,0,1-1.61-.66l-.18-.1c-.06,0-.14,0-.22-.09-.44-.21-1.23-.65-1.64-.91l-.16-.12c-.37-.22-.68-.45-1-.69a12,12,0,0,1-1.27-1l-1.45-1.38c-.19-.19-.35-.4-.53-.6a11.29,11.29,0,0,1-.75-.93l-.25-.32L15,39.26a10.8,10.8,0,0,1-.88-1.39c-.12-.25-.28-.47-.41-.72s-.27-.48-.38-.76c-.23-.55-.48-1-.68-1.59l-.15-.41a16.78,16.78,0,0,1-.83-3.15,2.44,2.44,0,0,1-.09-.47c0-.16-.05-.35-.08-.49l-.1-1.05Zm20.13-.48.08.17c0,.07.05.15.08.21a2.21,2.21,0,0,1,.07.46,1.13,1.13,0,0,1-.51-.26,1.31,1.31,0,0,0,.28-.58Zm-1.3.81a3.15,3.15,0,0,1,.13-.76h.05a1.32,1.32,0,0,0,.26.53,2.64,2.64,0,0,1-.44.23Zm-.28-.86a6.84,6.84,0,0,0-.15.94,1.63,1.63,0,0,1-.77-.05c0-.26,0-.43,0-.69a1.45,1.45,0,0,0,.49-.07,1.91,1.91,0,0,1,.45-.13Zm2,0a3.69,3.69,0,0,0,.74.21h.23a.77.77,0,0,1,0,.45,2.33,2.33,0,0,0,0,.29,1.77,1.77,0,0,1-.76.05,2.25,2.25,0,0,0-.18-1Zm-2,0Zm-2.45-.08a7.23,7.23,0,0,0,1.1.26l0,.58a4.32,4.32,0,0,1-.64-.34,2.9,2.9,0,0,1-.49-.5Zm14.29,8.93a2.71,2.71,0,0,1,.17-.39l.13-.28c.13-.24,0-.18.11-.32a.41.41,0,0,0,.09-.2c0-.17.11-.25.15-.41a2.87,2.87,0,0,1,.14-.42c.07-.23.24-.85.29-1.11a1.55,1.55,0,0,1,0-.23l.18-.95a1.72,1.72,0,0,1,0-.24c0-.11,0-.09.15-.13l1.25-.72c.19-.13,0,0,.33-.22l3.55-2.4.35-.21A7.1,7.1,0,0,1,50,28.6l.58-.29v.31a15.5,15.5,0,0,0-1.49,1.8l-.49.63-.11.15,0,0,0,0-.3.42c-.13.17-.51.59-.62.76l-1.42,1.65-1.41,1.36c-.21.21-1.29,1.06-1.55,1.23l-.32.22-.5.34-.17.12-.17.1a.37.37,0,0,1-.2.09Zm-7.24-9a.8.8,0,0,1-.13.13c-.06.07-.06.1-.12.16a3.46,3.46,0,0,1-1,.63,1.25,1.25,0,0,0,0-.61,8.85,8.85,0,0,0,1.2-.31Zm0,0Zm-23.2-.26c.14,0,.35.18.5.24l.27.11.24.15c.15.09.61.31.72.4a.73.73,0,0,0,.22.16,3.88,3.88,0,0,1,.45.29l.46.3a.89.89,0,0,1,.21.16l2.49,1.67a1.49,1.49,0,0,0,.2.15l1.54.91a.2.2,0,0,0,.15.06l.57,2.62c0,.07,0,0,.06.12l.29.86c0,.19,0,0,.12.25s.07.19.11.28,0,.1.11.27l.12.27c-.11,0-1.21-.79-1.35-.88a13.25,13.25,0,0,1-1.25-1l-.29-.25-.14-.13-.87-.82c-.17-.21-.57-.58-.69-.72a3.61,3.61,0,0,0-.25-.3L13.8,31.66c-.08-.11-.15-.21-.24-.32s-.16-.21-.24-.32l-.48-.62c-.09-.1-.16-.2-.25-.31l-.23-.33c0-.06-.07-.11-.12-.16l-.78-.91c-.06-.09,0-.11-.16-.12l0-.26Zm19.8.11h0v.12h0v-.12Zm0-.23h0v.12h0v-.12ZM32.61,28l.23.51a5,5,0,0,1-.81-.18h0a2.24,2.24,0,0,0,.53-.31Zm-3.52.51a1.14,1.14,0,0,1,.23-.51,1.24,1.24,0,0,0,.61.28,2.33,2.33,0,0,1-.84.23Zm6.58-.36a5.71,5.71,0,0,1,1,1.44l.13.28a1.64,1.64,0,0,1,.14.3c-.12,0-.17.18-.33.33a4.75,4.75,0,0,1-1.13.92.59.59,0,0,1,.06-.2l.17-.65a1.77,1.77,0,0,0,0-.48,3,3,0,0,0,0-1.3c0-.2-.07-.43-.1-.64Zm-9.59,1.07a5.88,5.88,0,0,0,0,1,7.93,7.93,0,0,0,.29,1.17,6,6,0,0,1-1.32-1.11,29558035627953.76,29558035627953.76,0,0,0-.16-.2l.27-.57a4,4,0,0,1,.4-.65,4.16,4.16,0,0,1,.68-.82,4.92,4.92,0,0,0-.2,1.15Zm17.1,3.27.07-1.18a5.24,5.24,0,0,0,0-.58A7.7,7.7,0,0,0,43,29l-.17-1.11c.33,0,.56,0,.89,0h3.71c1.05,0,2,0,3.08,0L50.3,28l-.26.12c-.08,0-.14.09-.23.13a10.06,10.06,0,0,0-1.42.82c-.14.1-.16.07-.35.21l-.1.08-.22.16-.91.6c-.15.12-.27.2-.43.31s-.13.09-.21.14l-.23.16-.11.07-.56.38-.23.16-1.86,1.12Zm-5,1.35a1.67,1.67,0,0,1,.08-.2,1.12,1.12,0,0,0,.09-.22l.31-.86a12.67,12.67,0,0,0,.35-2c0-.11,0-.12,0-.26a4.47,4.47,0,0,0,0-.82c0-.42-.23-1.43-.23-1.53h3.6l-.92,2.22a7.14,7.14,0,0,1-.47.81l-.25.38a9.22,9.22,0,0,1-1.19,1.34c-.16.16-.64.66-.79.77l-.2.13-.37.27ZM36,27.88H38.2c-.08.16-.12.32-.2.49a10.22,10.22,0,0,1-.46.94l-.08.1a1.33,1.33,0,0,1-.06.12c-.07.12-.09.17-.17.19a5.4,5.4,0,0,0-.68-1.21l-.17-.21c-.2-.29-.28-.31-.35-.42Zm-3,0h1.91l-.18.1a3.93,3.93,0,0,1-1.47.49.76.76,0,0,1-.06-.16L33.1,28,33,27.88Zm-1.56,0h.41v0h-.41v0Zm-1.4,0h.43v0h-.43v0Zm-3.11,0h2a1.22,1.22,0,0,0-.16.3c-.15.44,0,.34-.61.23a4.15,4.15,0,0,1-.45-.12c-.19-.07-.33-.22-.56-.29S27,28,27,27.85Zm-3.22,0h2.14l-.34.4a6.32,6.32,0,0,0-.47.68,3,3,0,0,0-.38.76h-.06c0-.15-.37-.59-.49-.86s-.12-.31-.2-.48l-.2-.5Zm-4.13,0h3.6a3,3,0,0,0-.09.35c0,.14,0,.24-.05.38s-.09.54-.12.78v1.27a15,15,0,0,0,.26,1.54,1.67,1.67,0,0,0,.05.18l.33,1a2.35,2.35,0,0,1,.2.49A10.45,10.45,0,0,1,22.72,33a9.12,9.12,0,0,1-1.21-1.35l-1-1.52c-.06-.14-.13-.3-.2-.44a6.06,6.06,0,0,1-.4-.88,1.55,1.55,0,0,1-.07-.23c0-.12-.05-.13-.09-.24s-.08-.34-.15-.49Zm-8.27,0h7.73a2.61,2.61,0,0,1-.08.36l-.2,1.1c-.05.47-.13,1.23-.13,1.71,0,.27,0,.47,0,.71s.05.47.05.69l-1.4-.81c-.29-.2-.59-.42-.91-.61s-.9-.64-1.1-.75l-.24-.15L14,29.35l-.23-.16-.47-.3c-.26-.18-.73-.4-1-.55l-1-.49Zm25.9-2.19c.1,0,.06,0,.15.18l.15.21a2.09,2.09,0,0,1,.17.34c0,.05,0,0,.08.1s.06.15.1.23l.21.48a1.07,1.07,0,0,0,.09.27H36c.1-.14.25-.22.35-.39l.32-.45a3.77,3.77,0,0,0,.41-.7,1.07,1.07,0,0,0,.12-.27Zm-4,1.28a3,3,0,0,1,1.31.35l.37.18H33a2.08,2.08,0,0,0,.23-.53Zm-1.58.51v0h-.21c.05-.07.05,0,.21,0Zm-3.06-.56c.07,0,.08.05.1.1l.18.46H27c0-.06.08-.06.16-.1a1,1,0,0,0,.18-.1,3.5,3.5,0,0,1,1.27-.36Zm-4-1.23.43.73.8,1.06H23.76a1.83,1.83,0,0,1,.08-.25,3,3,0,0,1,.21-.46,2.18,2.18,0,0,0,.09-.23,3.09,3.09,0,0,1,.25-.42l.23-.43Zm1.64,1.61Zm4.9-.38h0V27h0v-.12Zm1.45.51a1.16,1.16,0,0,0-.56-.29A.73.73,0,0,1,32.4,27a1.5,1.5,0,0,1,.44-.07l-.23.49Zm-3.49-.51a1.86,1.86,0,0,1,.81.2,1.15,1.15,0,0,0-.61.28c0-.1-.08-.12-.12-.21s-.05-.2-.08-.27Zm-1.66-.16Zm5.43-.23a1.73,1.73,0,0,0-.48.05,2.46,2.46,0,0,0-.41.13,5.41,5.41,0,0,0,.18-1l.68,0c.06,0,0,.06,0,.25a.87.87,0,0,1,0,.53ZM29,26.22c0-.6,0-.5.23-.51a4.1,4.1,0,0,1,.51,0,5.48,5.48,0,0,0,.18.94,2.42,2.42,0,0,1-.36-.1,1.75,1.75,0,0,0-.56-.05v-.26Zm-1.55.51c.15-.23.09-.11.23-.25a2.51,2.51,0,0,1,.92-.59l0,.43s0,.08,0,.16a6.45,6.45,0,0,0-1.12.25Zm5.87-.84a3.3,3.3,0,0,1,1.2.92,3.9,3.9,0,0,0-.57-.18,4.84,4.84,0,0,0-.63-.1c0-.12,0-.09,0-.26s0-.22,0-.38Zm-3.14-.13a3.77,3.77,0,0,1,.48.26l-.33.56a2.79,2.79,0,0,0-.1-.39,1.41,1.41,0,0,1,0-.43Zm1.35.84c0-.24-.25-.47-.28-.58a2.52,2.52,0,0,1,.24-.15,2.18,2.18,0,0,0,.27-.11,1.64,1.64,0,0,1-.08.46c0,.06,0,.12-.06.2s0,.14-.09.18Zm-.79-3v1.94l-.26-.12a.67.67,0,0,0-.3-.11,3.49,3.49,0,0,1,.19-.93c.15-.37.18-.35.31-.68,0-.11,0,0,.06-.1Zm.41,1.94.05-1.94c0,.23.12.19.24.53s.13.4.19.6.19.51.08.59l-.28.1c-.11,0-.2.1-.28.12Zm6.28-.38v0h0l0,0a16.38,16.38,0,0,0,.43-1.64l.07-.8c0-.19,0-.26,0-.43l.06.13a9.81,9.81,0,0,1,.34,1.25c0,.15.07.21.08.35l.08.84a6,6,0,0,1-.09,1.78.83.83,0,0,1-.06.32A4,4,0,0,0,38,26a7.24,7.24,0,0,0-.53-.82ZM23.5,27l0-.11c0-.05,0-.1,0-.16a9.14,9.14,0,0,1-.09-1.82,11.63,11.63,0,0,1,.2-1.39l.26-.91c.06-.16.05-.22.13-.28a9,9,0,0,0,.41,2.57c.15.44.21.19-.15.73-.13.19-.22.41-.38.65a1,1,0,0,0-.11.24,4.1,4.1,0,0,0-.21.48Zm8.37-2.83a2.81,2.81,0,0,1,.71.82c.07.11.1.24.16.35l-.59,0a4.94,4.94,0,0,0-.28-1.15Zm-2.09,1.15-.59,0a1.8,1.8,0,0,1,.17-.34c.07-.12.13-.2.2-.31a2.62,2.62,0,0,1,.5-.55c0,.1-.11.31-.17.54a4.5,4.5,0,0,0-.11.64ZM35.55,24a8.38,8.38,0,0,1,.76.59l.67.69a4.61,4.61,0,0,1-.27.55A9.68,9.68,0,0,1,36,26.94l-.32.3.13-.59a5.69,5.69,0,0,0-.19-2.4,1.29,1.29,0,0,1-.06-.25Zm-9.29,3.27a2.4,2.4,0,0,1-.37-.45l-.53-.7c-.05-.1-.08-.17-.14-.27a1.61,1.61,0,0,1-.15-.26,1.92,1.92,0,0,1-.11-.31A5.15,5.15,0,0,1,26.41,24l-.21.73c0,.11-.05.25-.08.38a3.27,3.27,0,0,0,0,.44c0,.33,0,.62,0,.92a4.62,4.62,0,0,0,.11.61.54.54,0,0,1,.05.21Zm5.2-4a6.7,6.7,0,0,1,1-.15,3.85,3.85,0,0,1,1.61.2,3,3,0,0,1,.48.16c.29.12.33,0,.41.25a4.42,4.42,0,0,1,.29,1,3.77,3.77,0,0,1,.14,1.16,7.12,7.12,0,0,1-.17,1.27c-.15-.1.06,0-.16-.3a3.36,3.36,0,0,0-.68-.77,3,3,0,0,0-.27-.23,3.78,3.78,0,0,0-1-.49,3.24,3.24,0,0,0-.27-.67,1.37,1.37,0,0,0-.28-.4c-.21-.25-.88-.94-1.19-1v-.05Zm-2.73,2.12a1.57,1.57,0,0,0-.67.27,4.23,4.23,0,0,0-.79.62,3.94,3.94,0,0,0-.52.68c-.08.14,0,.1-.08.17a4.64,4.64,0,0,1-.18-1.46,2.71,2.71,0,0,1,.05-.59c0-.17.06-.34.11-.52a2,2,0,0,1,.13-.41l.12-.31c0-.09,0-.19.07-.26s.12,0,.21,0a1.42,1.42,0,0,1,.18-.08,3.81,3.81,0,0,1,1.27-.32,2.07,2.07,0,0,1,.46,0,4.32,4.32,0,0,1,1.19.14c.1,0,.14,0,.19.08-.17,0-.1,0-.18.05l-.05.05c-.14.12-.52.37-.61.47l-.7.95a3.8,3.8,0,0,0-.2.55ZM18.65,24.15c0,.32,0,.59.05.87a13.46,13.46,0,0,0,.19,1.65,6.56,6.56,0,0,0,.17.78H11.38c.09-.08.52-.21.74-.36l.25-.13.24-.12.47-.27c.61-.36.82-.54,1.34-.88L18.48,23l.25-.14c0,.27,0,.42-.05.64s0,.23,0,.29a3.16,3.16,0,0,0,0,.32ZM43.18,22.9a4.66,4.66,0,0,1,.47.27l.47.27.44.3a.67.67,0,0,0,.12.06l1.69,1.12a4.58,4.58,0,0,0,.45.32,5.11,5.11,0,0,1,.42.31,3.46,3.46,0,0,1,.45.29L49.56,27c.16.08.31.18.48.25l.27.12.13.05.07,0-2.84,0-1,0H44.79l-1.92,0a1.72,1.72,0,0,1,.07-.37l.2-1.17a11.12,11.12,0,0,0,.11-1.72c0-.18,0-1.24-.07-1.31Zm-11.82,0A5.53,5.53,0,0,1,33,21.72a2.59,2.59,0,0,0,.29-.14c.15.1.22.2.37.31a2.43,2.43,0,0,1,.34.38,3,3,0,0,1,.31.38,2.87,2.87,0,0,1,.28.43,3.06,3.06,0,0,0-.35-.11,5.78,5.78,0,0,0-1.23-.22,3,3,0,0,0-.88,0l-.81.16Zm-4.06.15a6.15,6.15,0,0,1,.93-1.16,1.72,1.72,0,0,1,.17-.19l.21-.15c.26.18.58.24.93.49l.37.27.25.19c.09.07.13.12.22.18a.92.92,0,0,1,.22.22c-.12,0-.57-.13-.79-.16s-.29,0-.46,0a3.59,3.59,0,0,0-1.3.11,6.45,6.45,0,0,0-.75.22Zm-4.36,1.76A11,11,0,0,0,23,26.56l.16.89H19.6c.06-.14.08-.32.14-.47l.26-.69c0-.09.07-.14.1-.22l.09-.22a.88.88,0,0,1,.06-.1l.05-.12.55-1c.1-.17.82-1.16.94-1.28a2,2,0,0,0,.14-.16c.06-.08.09-.09.15-.18l.63-.63c.12-.09.22-.19.34-.29l.36-.28a1.34,1.34,0,0,0,.22-.16l.15-.1-.37.9a.91.91,0,0,1-.05.21l-.13.41A10.35,10.35,0,0,0,23,24.37a2.42,2.42,0,0,0-.06.47Zm15.21-3.29.72.53c.24.2.43.38.65.6l.45.47a8.75,8.75,0,0,1,1,1.27c0,.07.08.1.13.18s.07.15.11.22.17.24.25.39a4.48,4.48,0,0,1,.2.44,1.06,1.06,0,0,0,.11.19c0,.06.06.14.1.21.15.32.28.84.42,1.16a.71.71,0,0,1,.07.26H38.74c.1-.46.12-.85.2-1.3a7.06,7.06,0,0,0,0-2l-.17-1-.58-1.67Zm-4.36-.15L35,21.11a6.18,6.18,0,0,1,1.69-.1L37,21c.22,0,.13,0,.27,0s.15,0,.3.06c0,.39.05.23.05.38a13.29,13.29,0,0,1-.11,2l-.22,1a2.55,2.55,0,0,0-.11.33c-.12,0,0,0-.21-.2a2.83,2.83,0,0,0-.44-.4,4.13,4.13,0,0,0-.72-.55l-.4-.24c-.09,0-.1,0-.16-.07s0-.07-.11-.29a2.61,2.61,0,0,1-.17-.28c-.11-.22,0-.06-.16-.24s-.08-.16-.27-.37a.87.87,0,0,1-.09-.11l-.53-.55,0,0c-.07-.07,0,0-.05-.08Zm-9,3.42a8.77,8.77,0,0,1-.44-2.73c0-.17,0-.36,0-.53s0,0,0-.16a1,1,0,0,0,0-.26c.1,0,.17,0,.18-.15a.75.75,0,0,0,.23,0,16,16,0,0,1,1.68.05,7.75,7.75,0,0,1,1.66.4c-.07.12-.5.53-.6.65l-.69,1-.07.14a.8.8,0,0,1-.09.14c-.07.08-.06,0-.26.14l-.27.17-.49.34c-.1.08-.13.13-.22.2l-.12.08a5.16,5.16,0,0,1-.53.54Zm6.38-2.3V20.38l1,.4.63.38c.09.07.14.07.2.16a5.69,5.69,0,0,0-1.18.68l-.43.34c-.08.06-.12.13-.2.18Zm-.41-2.14v2.09c-.19-.1-.65-.52-.81-.64s-.15-.07-.23-.13l-.24-.15L29,21.32a4.81,4.81,0,0,1,.82-.53l.06,0,.42-.2c.16-.08.33-.12.49-.19Zm7.53.74a7,7,0,0,1,1.21.26,10.4,10.4,0,0,1,1.15.36,4.3,4.3,0,0,0,.54.2l1.3.59c.1,0,.15.11.26.12s.08.72.08,1.07c0,.18,0,.32,0,.54,0,.41-.07,1.24-.11,1.62a7.1,7.1,0,0,1-.17,1L42.22,26a7.38,7.38,0,0,0-.4-.85L41,23.77a6.61,6.61,0,0,0-.72-.87,1.15,1.15,0,0,1-.14-.17l-.94-.92-.91-.69ZM19.34,26.86c0-.12-.05-.25-.07-.36-.09-.41-.09-.75-.15-1.16l-.05-1.23c.06-.45,0-.46.06-.9a5.83,5.83,0,0,0,0-.59,8.63,8.63,0,0,0,1-.46l.53-.21a10.75,10.75,0,0,1,1.38-.49,11.47,11.47,0,0,1,1.21-.29,1.75,1.75,0,0,1,.33-.05l-1.21,1c-.13.14-.25.2-.48.46l-.59.67c-.21.26-.36.52-.52.72l-.14.17a1.43,1.43,0,0,0-.12.21l-.12.19-.44.81a4.3,4.3,0,0,0-.3.65,5.85,5.85,0,0,0-.27.67l-.1.23Zm18.94-5.74Zm-13.78-.9Zm12.91,0,0,0,0,0Zm-1.1.41a7.77,7.77,0,0,0-2.26.32c-.32.08-.59.21-.65.22L33,20.84a5.46,5.46,0,0,0-1.33-.69c.06-.07,0,0,.25-.09a3,3,0,0,1,.31,0c.11,0,.14,0,.28-.06l.34,0c.13,0,.16,0,.3,0l1,.07.84.15a6.11,6.11,0,0,1,.82.22c.15.07.3.1.43.16l.06,0Zm-7.78.54-.62-.23-.72-.14a6.43,6.43,0,0,0-1.54-.19s0,0,.05,0l.59-.2a7.63,7.63,0,0,1,1.09-.24l1-.11a7.11,7.11,0,0,1,1.13,0,3.92,3.92,0,0,1,.74.13h0s0,0,0,0l-1.26.68-.1.05-.3.24Zm2.63-1.28V16.17l.92.33a10.45,10.45,0,0,1,1.31.6l.18.12a8,8,0,0,1,.79.49,1,1,0,0,0,.2.13A15.7,15.7,0,0,1,35.92,19l.87,1a2.49,2.49,0,0,1,.18.27c0,.05.05,0,.08.1a1.66,1.66,0,0,1-.31-.12,8.17,8.17,0,0,0-1.67-.55l-.75-.14-1.22-.08c-.14,0-.26.05-.41.05a5.06,5.06,0,0,0-1.53.25Zm10.59-2.06a.38.38,0,0,1,.18.09l2.29,1.65a.7.7,0,0,1,.16.14c.22.21.52.46.74.66l1.55,1.57L49.17,25l.25.31a3.76,3.76,0,0,0,.25.31l.81,1c.05.07.08.06.1.13V27a5.45,5.45,0,0,1-1-.48,11.24,11.24,0,0,1-1.39-.86.91.91,0,0,0-.23-.15l-2-1.39c-.16-.1-.27-.21-.44-.3a3.88,3.88,0,0,1-.56-.38l-.13-.05-.46-.3L44.09,23l-.24-.14a3.4,3.4,0,0,0-.75-.4,11.73,11.73,0,0,0-.19-1.29c-.06-.2-.1-.37-.16-.58a1.74,1.74,0,0,0-.11-.45l-.8-2.16v0l-.09-.14ZM11.33,27c0-.37,0-.26.16-.4l.77-.91c.17-.23.31-.44.47-.65l1.75-2.21c.23-.29.8-1,1-1.23l.27-.29.28-.28c.16-.16,0-.06.28-.29s.37-.4.56-.55L18,19.27l1-.73a1.63,1.63,0,0,0,.17-.11,2.44,2.44,0,0,1,.33-.23l.18-.1a1.68,1.68,0,0,1,.54-.32l-.43,1a3.1,3.1,0,0,1-.16.4l-.06.22c0,.11-.06.07-.09.2-.09.39-.17.56-.25.87a1.55,1.55,0,0,1-.05.23,4.83,4.83,0,0,0-.21.94c0,.06,0,.16-.05.23-.07.27,0,.47-.11.57l-.82.47a4.05,4.05,0,0,0-.35.21l-1,.66-.08.06-.1.05-.17.11c-.09,0-.08.07-.16.12l-1.84,1.27c-.32.2-.73.51-1,.68l-1.46.8-.2.09-.21.09Zm19.42-7.19a6.27,6.27,0,0,0-1.48-.26,8.74,8.74,0,0,0-1.64.07,5.06,5.06,0,0,0-1.11.19l-1,.32a2.47,2.47,0,0,1-.63.26l.81-1A3.22,3.22,0,0,1,26,19l1-.9a9.77,9.77,0,0,1,1.13-.77l.82-.45a11.77,11.77,0,0,1,1.81-.72v.92c0,.17,0,.3,0,.43.06.63,0,1.61,0,2.28Zm6.66.35-.83-1a9.35,9.35,0,0,0-1.08-1.1l-.69-.55c-.29-.17-.4-.3-.84-.54l-.1-.05a7.9,7.9,0,0,0-.8-.46l-.86-.36a1.65,1.65,0,0,1-.44-.2,2.6,2.6,0,0,0,.47-.09l2.11-.19c.2,0,.37.06.52,0s.7.06,1.06.06c0,.17.34.74.39.89s.13.23.28.67.27.68.4,1.08a2.86,2.86,0,0,0,.07.28l.24.88a2.24,2.24,0,0,1,0,.31,1.53,1.53,0,0,1,0,.33Zm-12.91,0a12.77,12.77,0,0,1,.6-2.38,5.11,5.11,0,0,1,.21-.52,5.08,5.08,0,0,1,.34-.79l.35-.8,1.07-.07c.22,0,.33,0,.54,0s.4.06.53,0c.51,0,1.64.23,2.05.23h0a7.55,7.55,0,0,1-.87.36l-1.05.51-1.32.87-.84.71-.16.15a5.77,5.77,0,0,0-.74.82l-.28.35c-.12.15-.06,0-.21.26l-.06.09-.07.08-.07.1Zm-.49.44a3.16,3.16,0,0,0-.8.12,12.23,12.23,0,0,0-1.24.29c-.17,0-.29.11-.59.18-.12,0,0,0-.13,0s-.24.05-.42.16a8.77,8.77,0,0,1-.82.34l-.25.13c-.18.1-.35.16-.52.24l.18-1c0-.1,0-.21.08-.33l.73-2.15c.05-.08,0-.11.06-.2l.5-1.08c.07-.13.21-.12.37-.2a6.6,6.6,0,0,1,1.08-.49c.06,0,0,0,.07,0a3,3,0,0,1,.5-.19c.08,0,0,0,.08,0h0l0,0,1.83-.53a5.46,5.46,0,0,1,.69-.1c0,.12,0,0,0,.13l-.3.67c-.08.25-.28.64-.35.84s-.06.21-.09.3-.07.21-.1.3l-.28.9a2.9,2.9,0,0,0-.07.34A6.6,6.6,0,0,0,24,20.66Zm12.4-4.82a10.53,10.53,0,0,1,2.2.51,1.75,1.75,0,0,0,.3.1l.13.05.15.05.28.11a2.06,2.06,0,0,1,.26.12l.69.28c.12,0,.1.07.25.14l.07,0c.43.21.35,0,.44.3s.27.5.36.76.21.43.28.68l.22.58a1.71,1.71,0,0,0,.09.3,6.8,6.8,0,0,1,.26.91,5.22,5.22,0,0,1,.2,1c0,.18.08.15.08.41-.16,0-.39-.17-.54-.23l-1.68-.67-.28-.1-.31-.07a6.18,6.18,0,0,0-1.25-.31,4.39,4.39,0,0,0-.69-.1A12.55,12.55,0,0,0,37.6,19l-.37-1.21c0-.11-.08-.16-.12-.29s-.12-.38-.2-.58L36.48,16c0-.06,0,0,0-.07l0-.07Zm-3-.57c-.11,0,0-.06-.17,0a2,2,0,0,1-.42.05l-.23,0c-.17,0,.06,0-.35,0l-.75.13a.91.91,0,0,1-.35.07V7.87l.12.23a11.16,11.16,0,0,0,.62,1.25l2.72,4.2a11.4,11.4,0,0,1,.93,1.52.69.69,0,0,1,.12.26,5.16,5.16,0,0,0-.58-.06,5.7,5.7,0,0,1-.62,0c-.15,0-.16,0-.28,0s-.07-.08-.25,0a.53.53,0,0,1-.26,0c-.16,0,.08,0,0,0s-.07,0-.2,0Zm-6.51,0c-.2,0,0,0-.24,0h-.05c-.21,0,0,0-.37,0,.13-.19.18-.36.26-.48s.23-.41.42-.67.15-.29.26-.48l1.49-2.21a2.55,2.55,0,0,1,.14-.24c.06-.08.11-.1.17-.19.2-.36.43-.65.57-.91a10.45,10.45,0,0,0,.56-.92l.37-.75c.05-.09.19-.45.25-.52v7.73l-.43-.1-.47-.07-1-.13a8.76,8.76,0,0,0-1-.08,1.31,1.31,0,0,0-.49,0,.42.42,0,0,1-.28,0c-.09,0-.06,0-.18,0Zm5.56-7.4c.51,0,1,.12,1.5.18a16.89,16.89,0,0,1,2.32.52l1.28.4c.31.1,1.09.43,1.42.58l.37.19c.2.11.35.15.58.28l.56.29.17.11c.16.11.39.19.55.32s.34.21.51.33a.71.71,0,0,0,.17.11,2.89,2.89,0,0,1,.51.35c.28.21.51.43.79.62a5.85,5.85,0,0,1,.47.4l.88.8a.91.91,0,0,1,.16.13l.56.58.12.16a14.38,14.38,0,0,1,1.52,1.9,3.88,3.88,0,0,0,.23.33l.67,1a6.3,6.3,0,0,0,.4.72L49,19.72c.07.14.1.27.16.4s.07.12.1.19l.51,1.48a1.72,1.72,0,0,1,.07.21,16.52,16.52,0,0,1,.47,2.11c.1.73.22,1.22.28,2a.44.44,0,0,1-.12-.15l-.38-.46c-.42-.52-.85-1-1.23-1.59a11.16,11.16,0,0,0-.76-.94l-.52-.63a24.67,24.67,0,0,0-1.88-2.08l-.77-.66c-.14-.12-.29-.29-.44-.4l-1-.75a2.75,2.75,0,0,0-.33-.23L42.82,18a3.26,3.26,0,0,1-.34-.22l-.88-.53c-.24-.12-.18,0-.27-.26l-1-1.62a1.63,1.63,0,0,0-.11-.17L40.11,15l-.24-.32-.74-1c-.38-.38-.72-.79-1.1-1.17L37.44,12c-.29-.27-.56-.57-.87-.81a7.91,7.91,0,0,1-.63-.52c-.2-.18-.42-.34-.62-.51-.42-.38-1.13-.91-1.6-1.26l-.63-.49a5.34,5.34,0,0,1-.61-.54Zm-6.73,7.53a14.19,14.19,0,0,0-1.56.28c-.69.17-1.11.34-1.7.52l-1.31.57.52-.86a1.63,1.63,0,0,1,.11-.17l1.06-1.43c.25-.29.34-.43.64-.74.06-.07.07-.1.13-.16.31-.33.63-.68,1-1l.73-.65.16-.13,2.13-1.77c.35-.26.42-.37.78-.6l1.22-1c.15-.12.37-.26.41-.43h.29a10.12,10.12,0,0,1-.89,1.77L27.16,13c-.29.38-.37.62-.58.93-.06.08-.1.15-.15.23l-.29.49a1.92,1.92,0,0,0-.12.25l-.14.25a.75.75,0,0,0-.13.25ZM11.35,26.12c.08-.33.05-.67.12-1a.8.8,0,0,0,0-.24c0-.08,0-.17,0-.24l.16-1c.1-.46.21-.93.35-1.37a3.17,3.17,0,0,0,.12-.44,4.13,4.13,0,0,1,.14-.42,8.42,8.42,0,0,1,.45-1.25c.12-.27.2-.55.33-.8l1-1.88c0-.06.06-.11.1-.18l.33-.51a13.85,13.85,0,0,1,1.18-1.66l.13-.15,1.5-1.64a5.74,5.74,0,0,1,.73-.67c.08,0,.09-.09.16-.15l.76-.64.16-.11a9.52,9.52,0,0,1,1.35-.93c.14-.07.22-.16.35-.23L21.91,10c.29-.16.57-.27.86-.41a10.74,10.74,0,0,1,1.94-.77.76.76,0,0,0,.2-.08l.21-.08a17.94,17.94,0,0,1,2.3-.56L27.91,8,28.39,8l1-.12a2.83,2.83,0,0,1-.44.4c-.24.19-.54.49-.78.64a6.12,6.12,0,0,0-.64.5c-.3.26-.66.47-.95.75l-.93.78c-.57.48-1.11.95-1.64,1.48-.13.13-.3.26-.43.41l-.27.31-.14.14-.89,1.1a15.58,15.58,0,0,0-1.07,1.49.67.67,0,0,1-.12.16c-.07.09-.11.24-.2.36l-.31.53c-.12.29-.06.14-.29.29l-1.39.88c-.16.13-.34.23-.5.35l-1,.74a9.82,9.82,0,0,0-.89.82,3.73,3.73,0,0,0-.3.26.91.91,0,0,1-.13.16,1.58,1.58,0,0,0-.15.12,2.57,2.57,0,0,0-.28.29,4,4,0,0,0-.29.29.93.93,0,0,1-.13.15,1.74,1.74,0,0,0-.13.15l-1.55,1.84-.26.33-1,1.29-.47.64a5.58,5.58,0,0,1-.54.62ZM31.59,7.8h.28c.06.22,1,.9,1.24,1.11L34,9.6c.25.19.71.52.94.72.44.4,1.32,1.07,1.67,1.41.19.2.65.57.85.81,0,0,.55.49.71.69a1.87,1.87,0,0,0,.26.3c.07.07.07.09.13.15a5.67,5.67,0,0,1,.4.45c.24.32.89,1.12,1.08,1.45l.22.33.11.18.43.69a1.63,1.63,0,0,1-.19-.09c-.09,0-.13,0-.21-.07l-2.26-.86-.7-.16a4.57,4.57,0,0,0-1-.18c-.16,0-.2,0-.3-.11s-.52-1-.68-1.18l-.56-.87a1.62,1.62,0,0,0-.1-.18c-.12-.17-.33-.54-.45-.67l-.68-1a1.11,1.11,0,0,1-.12-.16l-.46-.69c-.17-.25-.85-1.33-1-1.58l-.09-.18c-.1-.2-.18-.3-.29-.56a3.89,3.89,0,0,0-.17-.41ZM10.92,27c0,.57,0,1.2,0,1.76l0,.38a5.46,5.46,0,0,0,0,.57c0,.2,0,.39.06.56a4.51,4.51,0,0,1,.08.53l.43,2.05c.1.29.16.66.27,1a1,1,0,0,1,.07.24l.59,1.55c.07.14.14.29.19.42l1.75,3.18a2,2,0,0,0,.13.18c.3.4.62.84.94,1.22l.56.67c.3.31.59.65.91,1l1.64,1.43c.35.26.7.55,1.07.79L21,45.3c.08.05.13.05.21.1a1.88,1.88,0,0,1,.18.12c.23.15,1.36.67,1.67.81l1.1.43c.23.08.44.17.68.24a2,2,0,0,1,.22.08c.35.13,1.08.29,1.48.39a19.07,19.07,0,0,0,2.95.44c.33,0,.66.05,1,0h1.4l.59,0c.38,0,.77-.08,1.12-.12l1.08-.17a17.19,17.19,0,0,0,2-.51c.17-.06.59-.14.72-.2.35-.17.73-.25,1.14-.44l.89-.38c.12,0,.19-.13.3-.17l.73-.36a.62.62,0,0,1,.19-.12,5.77,5.77,0,0,0,.78-.47l.58-.37.18-.12,1.08-.81c.11-.1.22-.18.34-.27L44,43.1c.33-.25,1.27-1.2,1.6-1.54a9.55,9.55,0,0,0,.71-.84l1.35-1.8.12-.18a7.9,7.9,0,0,0,.7-1.19c.07-.13.16-.26.22-.39l.21-.42c0-.07.06-.14.1-.21l.49-1.1c.13-.29.23-.6.34-.91a4.9,4.9,0,0,0,.18-.46c0-.24.15-.47.21-.7a.5.5,0,0,1,0-.13,1.12,1.12,0,0,1,0-.13c.22-.66.29-1.38.45-2.08s.13-1.33.21-1.95a17.07,17.07,0,0,0,0-2l-.06-1.2c0-.18,0-.39,0-.58a23.93,23.93,0,0,0-.63-3.12l-.14-.48c-.06-.17-.09-.32-.15-.49s-.24-.61-.32-.92c0-.12,0,0,0-.11l-.34-.78c-.06-.16-.12-.27-.19-.42l-.22-.42a3.46,3.46,0,0,0-.32-.6c-.13-.2-.21-.41-.32-.62S48,17,48,16.91l-.25-.39c0-.07-.07-.14-.11-.2l-1.2-1.63a16.48,16.48,0,0,0-1.67-1.77c-.23-.19-.43-.41-.66-.6s-.46-.41-.86-.71l-.71-.55c-.2-.17-1.6-1-1.82-1.14s-.64-.38-.94-.49a4.11,4.11,0,0,1-.42-.21c-.58-.28-1.19-.47-1.79-.71a1.07,1.07,0,0,0-.22-.1l-.47-.13c-.35-.06-.76-.24-1.27-.34l-.75-.17c-.42-.1-.91-.15-1.34-.24-.26,0-.84-.06-1.16-.09a4.1,4.1,0,0,0-.62,0c-.13,0-.19,0-.28,0l-.3,0H29.72c-.19,0-.39,0-.57,0s-.57,0-.8.1-.55.06-.77.12l-.25,0A19,19,0,0,0,24,8.64l-1.29.53a15,15,0,0,0-1.38.71c-.26.16-.52.26-.76.43L18.26,12l-.35.27-.63.57c-.37.33-.7.71-1.05,1.07-.14.15-.27.33-.4.48l-.29.33-.23.28h0a3.07,3.07,0,0,0-.27.36l-1.44,2.21-.42.79a8.92,8.92,0,0,0-.4.82l-.19.4c-.22.59-.48,1.16-.66,1.77l-.13.48c-.07.33-.19.61-.29.93l-.33,1.78c-.05.45-.17.89-.18,1.33s-.05.75-.05,1.18Z"/><text class="cls-2" transform="translate(54.95 34.21)">COSMOPOLITAN </text><text class="cls-3" transform="translate(243.29 34.21) scale(1 0.97)">T<tspan class="cls-4" x="12.47" y="0">E</tspan><tspan class="cls-5" x="24.91" y="0">X</tspan><tspan class="cls-6" x="38.94" y="0">T</tspan><tspan x="50.94" y="0">I</tspan><tspan class="cls-7" x="57.34" y="0">L</tspan><tspan class="cls-8" x="69.23" y="0">ES</tspan></text></svg>