<svg id="Layer_1" data-name="Layer 1" xmlns="http://www.w3.org/2000/svg" viewBox="0 0 253.4023 69.3459"><defs><style>.cls-1{fill:#fff;}.cls-2{isolation:isolate;}</style></defs><title>ct-logo</title><path class="cls-1" d="M33.33,67.66c0-.09.06-.16,0,0S33.33,67.84,33.33,67.66Zm-7.12-11.8a9.8963,9.8963,0,0,0,1.53.09h.53a24.6527,24.6527,0,0,0,3-.17c.64-.13,1.41-.19,2-.33a3.1046,3.1046,0,0,1,.64-.15V68.53a.3212.3212,0,0,1-.06-.08l-.55-1.19-.22-.43c-.14-.27-.31-.54-.45-.82a15.6365,15.6365,0,0,0-1-1.56l-.24-.38-.76-1.16a3.41,3.41,0,0,0-.26-.4l-.52-.74c-.25-.42-.84-1.2-1-1.52a3.9059,3.9059,0,0,0-.25-.4l-.52-.76c-.5-.75-1.29-2.16-1.78-3a1.7384,1.7384,0,0,1-.11-.25ZM34.6,68.61V55.34l3.76.61h1a5.9207,5.9207,0,0,0,1,0c.41-.06,1.15,0,1.45-.07a3.1365,3.1365,0,0,1,.49-.08,17.0118,17.0118,0,0,1-.91,1.62l-3.06,4.67a8.594,8.594,0,0,0-.49.78l-2.47,4-.61,1.31c-.08.18-.09.32-.23.43Zm.79.08a29.5982,29.5982,0,0,1,1.77-3.42c.35-.54.65-1,1-1.55l1.57-2.31c.19-.3.34-.51.53-.79l1-1.58c.45-.87.92-1.41,1.45-2.47.16-.32.31-.55.47-.85a12.6917,12.6917,0,0,0,2.16-.33l1.5-.37c.18,0,.06,0,.22-.09l.74-.22a6.822,6.822,0,0,0,.89-.34l2-.81.24-.11-.44.74c-.18.16-.06.09-.18.3l-.86,1.32c-.21.39-1.31,1.71-1.7,2.19l-.45.51-.44.52-1.89,2a2.8073,2.8073,0,0,0-.25.22l-1.27,1.18c-.46.35-.59.56-1,.87a1.159,1.159,0,0,0-.26.23l-3,2.35a3.8742,3.8742,0,0,0-.54.42,10.28,10.28,0,0,1-1.11.86l-1.46,1.29c-.33.34.1.25-.66.25ZM17.56,53.42l1.94.86c.16,0,.1,0,.24.06s0,0,.22.09c.47.12.68.31,1.19.43s1.14.33,1.43.4l1.58.34a5.8592,5.8592,0,0,0,1.13.13,6.2358,6.2358,0,0,1,.47.8,6.7159,6.7159,0,0,0,.49.83,8.4323,8.4323,0,0,1,.49.82c.38.77,1.15,1.76,1.49,2.39l1.18,1.75a1.87,1.87,0,0,1,.12.18l.79,1.18c.08.13.17.26.26.39.47.71,1.4,2.15,1.75,2.84a14.4109,14.4109,0,0,1,.83,1.79h-.48c-.07-.24-.5-.47-.71-.68L29.61,66.1c-.37-.28-.63-.53-1.08-.85a18.9265,18.9265,0,0,1-1.56-1.28l-1.82-1.49a3.8019,3.8019,0,0,1-.76-.69l-1-.89-.49-.48c-.17-.18-.27-.33-.45-.51l-.91-1c-.38-.49-.71-.74-1.08-1.29L17.7,53.7a.35.35,0,0,1-.08-.13q-.0447-.093-.08-.19Zm18.13,1.44.08-.06c.39-.25,1.51-.53,2.14-.91s1.22-.59,2.08-1.15a18.0017,18.0017,0,0,0,3.44-3,10.825,10.825,0,0,0,1.05-1.1l.66-.91a2.0961,2.0961,0,0,1,.25-.32l-.19,1a23.86,23.86,0,0,1-.73,2.68l-.27.87c-.1.26-.24.51-.35.78a22.3437,22.3437,0,0,1-1.07,2.34c-.11.15-.09.09-.44.12l-1,.11a4.8439,4.8439,0,0,0-1,0c-.24,0-2.37-.13-2.65-.15l-2-.31ZM23.2,47.39c.13.09.38.56.66.91l.22.31.47.58a16.2716,16.2716,0,0,0,1.58,1.66l1.46,1.2a14.3361,14.3361,0,0,0,1.28.86,15.9068,15.9068,0,0,0,1.72,1,17.8932,17.8932,0,0,0,2.3.93v.09c-.42,0-1.91.39-3,.39H28.8a8.177,8.177,0,0,0-1.08,0,8.4278,8.4278,0,0,1-1.76-.15H25.8c-.06,0-.39-.86-.56-1.16s-1-2.51-1.13-2.85l-.53-1.74c-.21-.64-.25-1.68-.37-1.94Zm11.4,7V48.18c.29.06.5.15.85.2s.62.07,1,.11a19.5483,19.5483,0,0,0,2,.17c.3,0,.6-.07.88-.09a15.5013,15.5013,0,0,0,2.12-.28l1.92-.56c.25-.1.43-.19.68-.28l.69-.32a4.1907,4.1907,0,0,1-.54.77l-.16.24a32.8125,32.8125,0,0,1-2.4,2.47,16.51,16.51,0,0,1-3.18,2.23l-1.08.54a7.0028,7.0028,0,0,1-1.16.5l-1.62.56ZM23.94,47.17l1.38.54a5.6818,5.6818,0,0,1,.7.26l.75.21a8.9987,8.9987,0,0,0,1.61.32,6.3139,6.3139,0,0,0,.89.07c.29,0,.58.09.87.09a19.92,19.92,0,0,0,3.33-.35,3.6643,3.6643,0,0,1,.43-.09v6.16l-1.59-.55c-.53-.21-1-.45-1.49-.66a18.1487,18.1487,0,0,1-2.67-1.56,18.7621,18.7621,0,0,1-1.75-1.44,4.8507,4.8507,0,0,0-.54-.56.81.81,0,0,1-.25-.27l-.5-.55a2.4284,2.4284,0,0,1-.24-.32,9.0042,9.0042,0,0,1-.93-1.26Zm14.33.79c-1.12,0-2-.26-2.71-.26.1-.14.19-.12.36-.21a12.1715,12.1715,0,0,0,1.87-1,2.9986,2.9986,0,0,0,.65-.52l1.09.36a17.8485,17.8485,0,0,0,3.85.6l-.22.13-.28.11-2.46.6a12.9455,12.9455,0,0,1-2.15.21ZM25.08,46.87a15.2091,15.2091,0,0,0,4.47-.73l.55-.19c.23.15.31.27.68.49s1.15.73,1.49.88a2.38,2.38,0,0,1,.8.38,4.1154,4.1154,0,0,0-.66.08,12.6873,12.6873,0,0,1-4.26,0,1.99,1.99,0,0,1-.34,0Zm9.59.31V43.55c.23.15.46.42.68.59s.24.16.38.27.23.18.38.28.5.33.78.49a6.37,6.37,0,0,0,.88.42l-1.44,1-.79.34a4.7079,4.7079,0,0,1-.87.31Zm-3.83-1.57a4,4,0,0,0,.85-.42,14.56,14.56,0,0,0,1.89-1.34c.12-.12.2-.25.36-.29v3.66a12.6056,12.6056,0,0,1-2-.89A5.3194,5.3194,0,0,1,30.84,45.61Zm14-6,.3.84c.06.28.16.56.21.84s.11.59.15.9.12.67.13,1v2.07c0,.24,0,.67-.22.8l-.28.12a14.5509,14.5509,0,0,1-3.29-.06,3.5774,3.5774,0,0,1-.55-.11l-1.6-.4a2.3406,2.3406,0,0,0-.55-.15c0-.16.34-.41.49-.56l.1-.08h0l.06-.07c.24-.26.44-.5.68-.77a11.12,11.12,0,0,0,1-1.51c.05-.13,0-.19.12-.28s.28-.12.46-.24a13.1881,13.1881,0,0,0,1.69-1.19l.41-.34a3.7386,3.7386,0,0,0,.66-.78ZM43.55,55.03a7.0688,7.0688,0,0,0,.64-1.37c.13-.41.47-1,.64-1.42s.29-1,.51-1.5l.41-1.63a15.5141,15.5141,0,0,0,.33-1.7c0-.15.06-.5.06-.63a6.5992,6.5992,0,0,0,1.14-.17c.93-.17,1.79-.41,2.7-.67a4.8057,4.8057,0,0,0,.54-.16,4.0033,4.0033,0,0,1,.49-.17,13.2079,13.2079,0,0,0,1.47-.58l.45-.2.48-.22c.44-.21.47-.18.93-.42a26.0734,26.0734,0,0,1-.58,2.78,8.5351,8.5351,0,0,1-.3,1.05,5.4574,5.4574,0,0,0-.25.76c0,.15-.06.07-.11.23s0,.14-.08.27l-.28.73a13.7827,13.7827,0,0,1-.86,1.85c-.15.23-.06.35-.19.5s-.3.12-.47.19l-.89.46a17.3789,17.3789,0,0,1-1.92.79l-1,.35a.7906.7906,0,0,1-.26.09,1.1993,1.1993,0,0,0-.27.08,6.4287,6.4287,0,0,1-1.07.28,8.85,8.85,0,0,1-1.1.26l-1.15.2Zm-20.61-11a18.8015,18.8015,0,0,1,.34-2.94,2.2014,2.2014,0,0,1,.13-.52c.08-.42.25-.82.27-1,.31.21.84.88,1.08,1.06s.26.22.41.33a8.3927,8.3927,0,0,0,1.29.9,1.4827,1.4827,0,0,0,.21.13.87.87,0,0,1,.34.15h0c.11.14,0,.22.16.41s.1.12.15.2l.76,1.15c.12.16.21.24.32.38a4.6923,4.6923,0,0,0,.71.78c.15.15.25.17.38.36-.27.07-.48.17-.77.24a20.1908,20.1908,0,0,1-2.67.48,14.8242,14.8242,0,0,1-2,0c-.26,0-.15.07-.43,0a.79.79,0,0,1-.53-.26l-.05-.08a2.9985,2.9985,0,0,1,0-1.14,6.0249,6.0249,0,0,0,0-.61Zm-8.7.09a3.08,3.08,0,0,1,.9.41c1.07.4,1.64.77,2.92,1.14.2.06.32.14.47.19s.36.08.52.13a7.2058,7.2058,0,0,0,1.06.3c.7.1,1.77.4,2.3.4a6.1993,6.1993,0,0,0,.17,1.19l.11.55a4.9927,4.9927,0,0,0,.1.6,25.9946,25.9946,0,0,0,.77,2.59l.77,1.99a3.9378,3.9378,0,0,0,.32.73l.34.71a12.67,12.67,0,0,1-1.62-.34l-.6-.11-2.08-.62-1.93-.78a5.6629,5.6629,0,0,1-.7-.3l-.44-.22a1.1594,1.1594,0,0,1-.22-.13c-.45-.26-.42.11-.67-.68l-.45-.9-.2-.51c-.08-.17-.12-.3-.19-.47s-.07-.14-.11-.24a1.8723,1.8723,0,0,1-.1-.25l-.26-.75a.9121.9121,0,0,1-.1-.24.2649.2649,0,0,0-.08-.23c-.1-.38-.28-.79-.4-1.3l-.39-1.66a9.5325,9.5325,0,0,0-.2-1.16Zm24.12,1-.47-.23-.45-.25a3.3768,3.3768,0,0,1-.46-.24l-1.27-.79c-.13-.1-.24-.23-.36-.34s-.31-.25-.36-.38a3.4243,3.4243,0,0,0,.63.15c.14,0,.19.07.31.09a2.8862,2.8862,0,0,0,.42,0c.25,0,.45.08.74.09s.24,0,.36,0a14.5309,14.5309,0,0,0,1.8-.23l1.29-.38a7.72,7.72,0,0,1-1.26,1.67l-.92.86Zm-4.81-2.27a5.9011,5.9011,0,0,1-1.13,1,11.9972,11.9972,0,0,1-2.23,1.3,6.6547,6.6547,0,0,0-.87-.84,9.9991,9.9991,0,0,1-1.19-1.65,9.5512,9.5512,0,0,1,1.23.3,8.27,8.27,0,0,0,3.54,0,4.1465,4.1465,0,0,1,.65-.13Zm-11.88,3-3.16-.76-1.26-.46a3.7717,3.7717,0,0,1-.82-.3l-1.91-.89c-.49-.26-.46-.31-.45-.69l-.09-1.61v-.53c0-.7.1-2,.17-2.67a14.59,14.59,0,0,1,.31-2v.09a.6436.6436,0,0,1,0,.09l1.37,3.18a16.0967,16.0967,0,0,0,1,1.64l1.41,1.83c.12.12.13.16.24.28a18.8058,18.8058,0,0,0,2.6,2.37,3.413,3.413,0,0,1,.61.48Zm25.16.05a19.34,19.34,0,0,0,1.74-1.41l.57-.52a3.2445,3.2445,0,0,1,.23-.29l.72-.68h0a16.9914,16.9914,0,0,0,1.53-1.84l1.46-2.55a1.5615,1.5615,0,0,0,.26-.53l.48-1.13c.06-.13.1-.25.15-.37a.92.92,0,0,1,.17-.4l.41,2.43a10.2022,10.2022,0,0,0,.08,1.61c.06.4-.1,2.13-.11,2.65s0,.38-.5.64L51.3,44.72a26.0718,26.0718,0,0,1-4.47,1.21ZM34.6,41.4V38.3c.29,0,.58.31,1,.35a6.5409,6.5409,0,0,1-.76,2.51C34.71,41.37,34.71,41.37,34.6,41.4ZM21.49,35.9c.1.06.55,1.18.77,1.55a8.1677,8.1677,0,0,0,.43.7c.63.94.52.52.14,1.83a15.6134,15.6134,0,0,0-.49,2.43c-.07.49,0,1-.1,1.39a2.8484,2.8484,0,0,1-.31-.83,13.6561,13.6561,0,0,1-.45-1.81c-.16-.84-.14-1.38-.22-2.11a13.6247,13.6247,0,0,1,.11-2.1,8.8667,8.8667,0,0,0,.12-1Zm11.49,2.88c0-.14.07-.11.19-.16l.26-.09a4.102,4.102,0,0,0,.47-.23v3.19l-.58-1.21A7.9233,7.9233,0,0,1,32.98,38.78Zm2.8,2.14a10.27,10.27,0,0,0,.52-2.05h1a4.92,4.92,0,0,1-1.53,2.09Zm10.53,3.11a12.0622,12.0622,0,0,0-.46-3.52c-.09-.27-.24-1-.36-1.3s-.09-.12-.07-.23l.54-.76a1.27,1.27,0,0,0,.12-.23l.81-1.51a2.5335,2.5335,0,0,1,.2-.49l.19,1.21a14.2912,14.2912,0,0,1,0,2.1,14.8459,14.8459,0,0,1-.39,2.86,2.3924,2.3924,0,0,1-.1.29.58.58,0,0,1-.08.36l-.31.91a.2714.2714,0,0,1-.06.16l-.07.15Zm-15-5.25a4.0029,4.0029,0,0,0,1,0,7.9974,7.9974,0,0,0,.53,2.09,6.2767,6.2767,0,0,1-.87-1l-.54-.81a3.1609,3.1609,0,0,1-.12-.37Zm-4.63-.56a7.3206,7.3206,0,0,1,.3-2.62h.1a.42.42,0,0,0,.1.3,7.8215,7.8215,0,0,0,1.69,1.89l.72.45a2.48,2.48,0,0,1,.29.11,1.8379,1.8379,0,0,0,.61.22,5.081,5.081,0,0,0,.5,1.16c.22.33.43.68.67,1a6.1614,6.1614,0,0,0,1.58,1.35c.2.08.2,0,.31.13a11.9981,11.9981,0,0,1-2.23.31c-.4,0-.66-.07-1-.09a7.8087,7.8087,0,0,1-1.81-.41H28.3a5.9056,5.9056,0,0,0-.64-.24c-.24-.06-.14-.1-.2-.33a2.6678,2.6678,0,0,0-.18-.39,16.93,16.93,0,0,1-.48-1.74,6.9029,6.9029,0,0,1-.1-1ZM37.56,42.5l-1.4-.09a9.2241,9.2241,0,0,1-1-.22c.11-.15.06,0,.28-.11a.8508.8508,0,0,0,.28-.16l.67-.55a3.46,3.46,0,0,0,.82-.84c.07-.09.12-.13.2-.24a5.229,5.229,0,0,0,.73-1.68,5.0791,5.0791,0,0,0,1.64-.8,5.1977,5.1977,0,0,0,.86-.76,6.4673,6.4673,0,0,0,.89-1.17c.07-.17,0-.19.15-.28,0,.7.3,1.44.3,2.22,0,.42-.09.67-.09,1a2.7393,2.7393,0,0,1-.17,1,8.6443,8.6443,0,0,1-.31,1.09,1.2,1.2,0,0,0-.11.2c-.25.75.06.44-.31.56h-.06a8.2883,8.2883,0,0,1-3.4.79Zm-.6,26.11a13.273,13.273,0,0,1,1.57-1.31l3.25-2.56c.74-.55,1.41-1.18,2.13-1.76l.75-.69c.11-.1.15-.11.26-.22l1-.94c.1-.1.11-.16.21-.27l1.84-2a18.4869,18.4869,0,0,0,1.33-1.6l1.24-1.65a13.8771,13.8771,0,0,0,.76-1.2c.2-.43.52-.79.72-1.21.09-.21,0-.23.14-.38s.18,0,.63-.34l4-2.74c.19-.15.34-.28.53-.42.64-.48,1.22-1.09,1.81-1.6l.12-.1.12-.14,2.59-2.74.22-.27a2.6283,2.6283,0,0,1,.23-.25l.43-.52c.23-.25.41-.55.64-.81l.43-.52c.52-.59,1-1.31,1.48-1.93l.69-.83c.44-.53.81-1.11,1.25-1.63a2.72,2.72,0,0,1,.47-.54c0,.26-.07.6-.09.87a25.1362,25.1362,0,0,1-.63,4.13L66.67,44c-.09.3-.1.48-.21.76s-.21.75-.37,1.07c-.26.55-.36,1.22-.65,1.79-.16.33-.26.7-.42,1l-2,3.82q-.09.16-.18.3l-2.87,3.94c-.46.51-.87,1-1.36,1.53-.25.25-.47.52-.74.75l-1.22,1.17a4.406,4.406,0,0,1-.57.48l-2.17,1.72a14.9818,14.9818,0,0,1-1.42,1c-.32.17-.59.38-.91.57s-.37.26-.58.39l-4.56,2.2c-.2.09-.51.17-.73.24-.56.19-.38.16-1.08.36l-.36.12c-.27.07-.49.15-.76.24a26.7853,26.7853,0,0,1-4.82,1,13.7619,13.7619,0,0,1-1.76.2ZM.79,37.39a6.4751,6.4751,0,0,1,.89,1c.42.54.8,1.11,1.26,1.62l.41.55.42.55,2.36,3c.88.94,2.33,2.7,3.25,3.51l3.45,2.89,2.33,1.56c.18.12.4.23.6.35,1,.57.36,0,1,1,.13.21.23.4.36.61l.36.6c.07.12.1.18.18.3.36.58,1.51,2.17,1.82,2.55l.82,1.13.24.24c.1.11.11.15.22.26l.22.26,1,1c.26.22.42.55.68.76a4.0037,4.0037,0,0,1,.52.49c.11.11.15.12.26.22s.47.5.73.71l2.13,1.76.53.43.79.69c.53.44,1.11.81,1.63,1.25l.85.64c.1.08.15.15.25.23l.54.42a6.0675,6.0675,0,0,1,.78.71,40.0685,40.0685,0,0,1-4.2-.61,2.9215,2.9215,0,0,1-.76-.19c-.27-.07-.23-.06-.39-.1a19.1209,19.1209,0,0,1-1.93-.51,4.6285,4.6285,0,0,0-.72-.24l-.34-.14-.36-.13a28.0053,28.0053,0,0,1-2.79-1.15l-.3-.17c-.11-.06-.25-.08-.38-.15a28.6069,28.6069,0,0,1-2.81-1.56c-.1-.06-.16-.12-.28-.2-.62-.37-1.15-.76-1.75-1.18a18.7637,18.7637,0,0,1-2.18-1.74L10,58.25c-.33-.33-.6-.69-.9-1a18.6907,18.6907,0,0,1-1.3-1.59c-.14-.2-.27-.36-.41-.54s-.3-.37-.44-.57a18.3138,18.3138,0,0,1-1.5-2.39c-.21-.42-.49-.79-.7-1.22s-.46-.83-.67-1.33c-.39-.94-.81-1.75-1.17-2.73-.08-.23-.16-.47-.25-.7a30.5448,30.5448,0,0,1-1.43-5.39,6.4812,6.4812,0,0,1-.15-.78,5.5288,5.5288,0,0,0-.13-.83L.78,37.39Zm34.46-.78.14.3a1.9,1.9,0,0,0,.12.36,3.73,3.73,0,0,1,.14.78,1.9306,1.9306,0,0,1-.88-.44A2.32,2.32,0,0,0,35.25,36.61Zm-2.17,1.34a4.8969,4.8969,0,0,1,.17-1.34h.08a2.081,2.081,0,0,0,.44.92,6.5162,6.5162,0,0,1-.74.39Zm-.48-1.48a10.3294,10.3294,0,0,0-.27,1.62A2.711,2.711,0,0,1,31.02,38V36.82a2.3192,2.3192,0,0,0,.84-.13,5.3153,5.3153,0,0,1,.78-.22Zm3.45,0a6.0008,6.0008,0,0,0,1.26.35h.4a1.38,1.38,0,0,1,0,.78,2.2652,2.2652,0,0,0,0,.48,2.7307,2.7307,0,0,1-1.31.09,3.9192,3.9192,0,0,0-.3-1.7Zm-7.65-.13a13.3,13.3,0,0,0,1.88.44v1a9.1072,9.1072,0,0,1-1.07-.58,4.0674,4.0674,0,0,1-.85-.86ZM52.81,51.61a4.638,4.638,0,0,1,.29-.68l.22-.48c.22-.4.08-.31.2-.55s.08-.07.14-.33.19-.44.26-.71a5.918,5.918,0,0,1,.24-.72,18.7632,18.7632,0,0,0,.49-1.9,2.2519,2.2519,0,0,1,.09-.4l.3-1.62a.791.791,0,0,1,.07-.4.4321.4321,0,0,1,.26-.23l2.14-1.23a3.102,3.102,0,0,1,.58-.38l6.06-4.11.61-.35a11.6513,11.6513,0,0,1,2.13-1.23l1-.5v.53a23.999,23.999,0,0,0-2.55,3.09l-.84,1.08a2.5084,2.5084,0,0,1-.19.24h0l-.06.07-.51.71c-.22.29-.88,1-1.06,1.3l-2.42,2.82-2.48,2.4a32.7159,32.7159,0,0,1-2.65,2.11c-.19.13-.35.23-.54.38l-.86.58-.29.19-.29.19a.87.87,0,0,1-.34.15ZM40.41,36.25a1.5118,1.5118,0,0,1-.21.23,2.7554,2.7554,0,0,1-.22.26,5.28,5.28,0,0,1-1.67,1.08,2.1407,2.1407,0,0,0,.05-1,13.2314,13.2314,0,0,0,2-.53ZM.71,35.82a6.424,6.424,0,0,1,.85.4,3.839,3.839,0,0,1,.47.19l.41.25c.25.15,1,.54,1.22.7a1.4014,1.4014,0,0,0,.42.25,5.87,5.87,0,0,1,.76.5l.8.52a2.4477,2.4477,0,0,1,.35.26l4.26,2.86c.14.1.19.17.34.27l2.62,1.59a.32.32,0,0,0,.25.1l1,4.48c0,.12,0,.06.1.21l.5,1.47c.07.33.08.07.21.44.07.17.11.31.18.47a1.1776,1.1776,0,0,0,.2.46l.2.46a22.9424,22.9424,0,0,1-2.31-1.49A23.5655,23.5655,0,0,1,11.4,48.5l-.49-.43c-.11-.08-.15-.14-.26-.22l-1.48-1.4c-.29-.37-1-1-1.17-1.23a3.9879,3.9879,0,0,0-.44-.52l-2.6-3.13-.4-.55-.48-.58-.82-1c-.16-.18-.28-.34-.43-.54s-.25-.36-.4-.56a2.8248,2.8248,0,0,0-.2-.28L.9,36.51c-.11-.15-.05-.19-.27-.21l.05-.43Zm33.89.17h0v.22h0Zm0-.39h0v.21h0V35.6Zm2.53-.4.4.88a8,8,0,0,1-1.4-.31h.06a3.3511,3.3511,0,0,0,.91-.53Zm-6,.88a2.2194,2.2194,0,0,1,.4-.88,2.06,2.06,0,0,0,1,.48,4.11,4.11,0,0,1-1.45.4Zm11.27-.61a10.2816,10.2816,0,0,1,1.78,2.46c.09.17.13.3.22.48a2.34,2.34,0,0,1,.23.51c-.19,0-.29.31-.55.58a8.5787,8.5787,0,0,1-2,1.56.9986.9986,0,0,1,.1-.35l.3-1.09a5.1311,5.1311,0,0,0,.09-.83,5.6512,5.6512,0,0,0-.03-2.18c-.06-.34-.12-.74-.17-1.09ZM25.95,37.3a10.4494,10.4494,0,0,0,.07,1.77,13.5469,13.5469,0,0,0,.5,2,10.61,10.61,0,0,1-2.26-1.89,2.0009,2.0009,0,0,1-.13-.18c-.07-.08-.09-.07-.15-.16l.46-1a7.6781,7.6781,0,0,1,.69-1.1,6.7908,6.7908,0,0,1,1.17-1.41,8.24,8.24,0,0,0-.35,2Zm29.27,5.59.13-2a7.6886,7.6886,0,0,0,0-1,12.122,12.122,0,0,0-.33-2.9l-.28-1.91H67.89l-.42.19c-.18.07-.3.13-.45.2s-.24.15-.39.22a14.9944,14.9944,0,0,0-2.43,1.42,5.8618,5.8618,0,0,0-.61.36l-.18.12c-.14.1-.23.18-.38.28l-1.54,1c-.26.2-.47.34-.75.52s-.21.17-.35.26l-.4.26-.19.12-1,.65c-.16.1-.25.17-.39.27l-3.19,1.92Zm-8.61,2.32a1.4684,1.4684,0,0,1,.15-.34l.14-.38.54-1.47a24.1951,24.1951,0,0,0,.64-3.47V39.1a7.3477,7.3477,0,0,0,0-1.41c0-.72-.39-2.45-.39-2.62h6.09l-1.58,3.8a12.409,12.409,0,0,1-.8,1.38l-.43.66a14.8837,14.8837,0,0,1-2,2.3c-.28.27-1.09,1.12-1.35,1.31s-.21.13-.34.23l-.64.46ZM42.99,35.07H46.7c-.14.27-.21.54-.34.84a15.07,15.07,0,0,1-.8,1.61l-.13.17a1.8651,1.8651,0,0,1-.1.2c-.12.2-.15.29-.29.33a8.8475,8.8475,0,0,0-1.17-2.06,3.6572,3.6572,0,0,1-.29-.37C43.23,35.29,43.11,35.25,42.99,35.07Zm-5.16,0h3.25l-.31.17a6.87,6.87,0,0,1-2.53.84,2.1369,2.1369,0,0,1-.09-.27l-.21-.49c0-.1-.09-.15-.14-.25Zm-2.66,0h0Zm-2.41,0h0Zm-5.32,0H30.8a2.05,2.05,0,0,0-.28.51c-.25.74-.07.57-1,.38a4.0075,4.0075,0,0,1-.76-.2,8.5117,8.5117,0,0,0-1-.49C27.53,35.2,27.56,35.27,27.44,35.07Zm-5.51,0H25.6l-.59.68a10.3683,10.3683,0,0,0-.8,1.16,5.68,5.68,0,0,0-.66,1.3h-.09c-.06-.25-.64-1-.84-1.47-.13-.3-.22-.54-.35-.83Zm-7.08,0h6.16a3.406,3.406,0,0,1-.15.59c-.05.25-.05.41-.08.66-.07.45-.15.91-.2,1.33v2.17c.06.58.29,2.1.43,2.63a1.3373,1.3373,0,0,0,.09.31l.57,1.7a4.5018,4.5018,0,0,1,.35.83,18.5942,18.5942,0,0,1-1.83-1.41,15.9992,15.9992,0,0,1-2-2.31l-1.72-2.61c-.11-.24-.22-.51-.34-.75a9.1067,9.1067,0,0,1-.68-1.5,2.549,2.549,0,0,1-.13-.39,2.7018,2.7018,0,0,0-.16-.41,8.1546,8.1546,0,0,0-.26-.84ZM.7,35.07H13.94a3.4546,3.4546,0,0,1-.14.6l-.34,1.9c-.09.8-.22,2.09-.22,2.91v1.23c0,.42.09.79.09,1.18l-2.4-1.4a17.1582,17.1582,0,0,0-1.55-1c-.55-.29-1.54-1.09-1.89-1.29l-.41-.33L5.27,37.61l-.39-.26-.8-.52c-.44-.31-1.26-.69-1.63-.94L.7,35.06Zm44.38-3.8c.16.05.09.05.26.31l.25.36a2.7782,2.7782,0,0,1,.29.58,1.4088,1.4088,0,0,1,.13.18c.08.13.11.25.18.39l.36.81a2.6,2.6,0,0,0,.15.47H42.99c.16-.25.42-.38.59-.67l.55-.76a8.1471,8.1471,0,0,0,.71-1.21,3.0452,3.0452,0,0,0,.2-.46Zm-6.82,2.19a5.2992,5.2992,0,0,1,2.25.59l.64.32H37.83a3.3411,3.3411,0,0,0,.39-.91Zm-2.7.87h-.35C35.29,34.22,35.29,34.33,35.56,34.33Zm-5.25-1c.13,0,.14.09.18.18l.31.78H27.52c.08-.11.14-.1.28-.16s.19-.11.31-.17a6.1,6.1,0,0,1,2.16-.63Zm-6.81-2.1.72,1.24,1.38,1.82H21.98a1.8984,1.8984,0,0,1,.15-.42,3.9976,3.9976,0,0,1,.34-.79,2.8316,2.8316,0,0,0,.17-.4,7.6768,7.6768,0,0,1,.41-.72l.41-.73Zm11.18,2.1h0v.28h0v-.28Zm2.49.87a2,2,0,0,0-1-.48c.1-.13.41-.19.6-.23a2.47,2.47,0,0,1,.76-.12l-.4.83Zm-6-.87a3.21,3.21,0,0,1,1.4.35,1.9405,1.9405,0,0,0-1,.48c-.05-.16-.13-.2-.2-.37s-.09-.33-.15-.46Zm6.46-.66a2.6412,2.6412,0,0,0-.83.09,4.7755,4.7755,0,0,0-.7.22,8.2861,8.2861,0,0,0,.31-1.7l1.16.06c.11.07.05.09.1.42a1.5706,1.5706,0,0,1,0,.91Zm-6.64-.48c0-1,0-.85.39-.88a8.5876,8.5876,0,0,1,.88,0,9.2224,9.2224,0,0,0,.31,1.61,4.3436,4.3436,0,0,1-.62-.16,2.8588,2.8588,0,0,0-1-.1v-.44Zm-2.66.88c.27-.4.16-.19.4-.43a4.27,4.27,0,0,1,1.56-1v1a10.9384,10.9384,0,0,0-1.92.44Zm10.05-1.44a5.3909,5.3909,0,0,1,2,1.57,6.8251,6.8251,0,0,0-1-.31,8.4677,8.4677,0,0,0-1.09-.17V31.63ZM33,31.41a6,6,0,0,1,.83.43l-.56,1a4.004,4.004,0,0,0-.17-.66,2.34,2.34,0,0,1-.1-.73Zm2.32,1.44c0-.42-.43-.82-.48-1a2.2274,2.2274,0,0,1,.4-.24c.18-.08.31-.11.47-.19a3.18,3.18,0,0,1-.13.78,1.3954,1.3954,0,0,1-.1.34c-.04.13-.05.24-.16.32Zm-1.36-5.07V31.1l-.44-.22a1.2793,1.2793,0,0,0-.52-.17,6,6,0,0,1,.33-1.59c.25-.64.32-.6.53-1.18C33.94,27.75,33.8,27.94,33.96,27.78Zm.7,3.32.09-3.32c0,.38.21.33.41.9.12.35.23.68.32,1,0,.15.33.88.15,1a1.6259,1.6259,0,0,1-.48.18,4.7934,4.7934,0,0,1-.49.21Zm10.75-.65h0a.1092.1092,0,0,0,0-.06,28.592,28.592,0,0,0,.74-2.8l.12-1.36v-.75l.12.24a18.9373,18.9373,0,0,1,.69,2.1,4.264,4.264,0,0,0,.13.62l.13,1.43a10.5283,10.5283,0,0,1-.14,3.05,1.58,1.58,0,0,1-.12.54,7.09,7.09,0,0,0-.74-1.58,12.0006,12.0006,0,0,0-.92-1.39Zm-23.85,3-.07-.2a2.349,2.349,0,0,0,0-.26,15.3992,15.3992,0,0,1-.15-3.12,22.4677,22.4677,0,0,1,.33-2.37l.41-1.51c.11-.29.09-.39.22-.48a15.221,15.221,0,0,0,.72,4.39c.24.76.36.33-.27,1.26-.21.32-.38.7-.64,1.1a1.59,1.59,0,0,0-.19.42,4.6316,4.6316,0,0,0-.36.82Zm14.31-4.84a4.7406,4.7406,0,0,1,1.21,1.45,4.5918,4.5918,0,0,1,.27.6h-1a8.4536,8.4536,0,0,0-.48-2Zm-3.59,2h-1a3.9354,3.9354,0,0,1,.28-.59l.35-.53a4.2094,4.2094,0,0,1,.85-.93c0,.16-.19.52-.29.92A7.5165,7.5165,0,0,0,32.28,30.61Zm9.88-2.19c.78.53.62.48,1.31,1l1.13,1.19a6.6391,6.6391,0,0,1-.45.94,17.4945,17.4945,0,0,1-1.24,1.91l-.54.51.22-1a9.51,9.51,0,0,0-.33-4.12,3.1858,3.1858,0,0,1-.1-.42Zm-15.9,5.59a3.7831,3.7831,0,0,1-.64-.76l-.89-1.2c-.09-.16-.14-.29-.25-.46a4.9114,4.9114,0,0,1-.25-.44,4.4854,4.4854,0,0,1-.15-.54,8.58,8.58,0,0,1,2.49-2.23l-.41,1.23a2.6394,2.6394,0,0,1-.14.64,6.3247,6.3247,0,0,0-.07.76v1.58a6.6125,6.6125,0,0,0,.19,1,1.5969,1.5969,0,0,1,.08.36Zm8.91-6.77a10.8541,10.8541,0,0,1,1.79-.26,6.859,6.859,0,0,1,2.76.34,7.8936,7.8936,0,0,1,.82.27c.48.22.57,0,.69.44a8.2159,8.2159,0,0,1,.51,1.69,6.3981,6.3981,0,0,1,.24,2,11.32,11.32,0,0,1-.3,2.18c-.25-.18.1,0-.28-.51a5.92,5.92,0,0,0-1.16-1.33c-.17-.13-.28-.26-.45-.38a5.9989,5.9989,0,0,0-1.65-.83,5.6379,5.6379,0,0,0-.47-1.16,2.23,2.23,0,0,0-.48-.69c-.35-.42-1.5-1.61-2-1.65v-.09Zm-4.68,3.63a2.55,2.55,0,0,0-1.15.46,7.1589,7.1589,0,0,0-1.35,1.06,6.8521,6.8521,0,0,0-.91,1.22c-.14.25,0,.18-.15.29a8.0676,8.0676,0,0,1-.3-2.49,4.5735,4.5735,0,0,1,.09-1c.07-.3.1-.58.19-.89a3.848,3.848,0,0,1,.22-.7l.21-.53c.06-.16.06-.33.12-.45s.2,0,.36-.08a1.6924,1.6924,0,0,1,.3-.13,6.5208,6.5208,0,0,1,2.17-.54,3.1011,3.1011,0,0,1,.79-.08,7.997,7.997,0,0,1,2,.24c.18,0,.25,0,.33.15-.29,0-.16,0-.3.09l-.1.08a8.9607,8.9607,0,0,0-1,.8L30.8,30a6.7189,6.7189,0,0,0-.33.94ZM13.24,28.7a8.8182,8.8182,0,0,0,.08,1.48A22.7945,22.7945,0,0,0,13.65,33a9.8555,9.8555,0,0,0,.29,1.33H.79c.15-.13.9-.35,1.27-.6a3.0081,3.0081,0,0,1,.43-.23c.15-.07.26-.14.4-.22l.81-.45c1-.62,1.41-.93,2.3-1.51l6.95-4.53.42-.24c0,.45-.07.72-.09,1.1v.49c0,.11-.05.29-.05.56Zm42-2.15a6.8282,6.8282,0,0,1,.81.46l.8.46.76.51c.1.08.1.05.2.11L60.7,30a6.5433,6.5433,0,0,0,.77.55c.36.22.62.47.73.53a7.1219,7.1219,0,0,1,.76.5l3.2,2c.28.15.53.31.83.44a4.8888,4.8888,0,0,0,.46.19l.22.09.12.05-4.86.06H54.69a5.0092,5.0092,0,0,1,.12-.63l.34-2a19.4112,19.4112,0,0,0,.2-2.95c0-.3-.08-2.11-.13-2.23Zm-20.25.06a9.87,9.87,0,0,1,2.87-2.07,2.9255,2.9255,0,0,0,.5-.25c.26.18.39.36.63.55a3.2,3.2,0,0,1,.59.63,7.2746,7.2746,0,0,1,.53.66,4.1766,4.1766,0,0,1,.47.74,3.2451,3.2451,0,0,0-.6-.18,8.838,8.838,0,0,0-2.1-.39,5.1784,5.1784,0,0,0-1.5,0Zm-6.91.25a10.5412,10.5412,0,0,1,1.58-2c.11-.1.21-.24.29-.31l.35-.27c.46.31,1,.43,1.6.85l.63.46.43.32c.16.12.23.2.38.32a1.62,1.62,0,0,1,.37.37c-.2,0-1-.22-1.34-.27a4.27,4.27,0,0,0-.8,0,6.23,6.23,0,0,0-2.22.18,10.996,10.996,0,0,0-1.27.39Zm-7.47,3a19.1886,19.1886,0,0,0,.12,2.94L21,34.32H14.85a8.3429,8.3429,0,0,0,.25-.8l.45-1.17c.05-.16.12-.26.17-.39s.09-.25.15-.38l.1-.17a1.3358,1.3358,0,0,0,.11-.2l.94-1.73c.17-.29,1.4-2,1.6-2.19a2.1779,2.1779,0,0,0,.24-.29,2.6945,2.6945,0,0,0,.27-.3l1.05-1.09c.21-.17.37-.33.59-.5l.61-.5c.15-.13.2-.11.38-.28l.26-.17-.63,1.55c-.05.13,0,.2-.09.35l-.22.7a15.64,15.64,0,0,0-.4,2.26,5.4355,5.4355,0,0,0-.1.81Zm26-5.63,1.23.91a13.5606,13.5606,0,0,1,1.12,1l.76.81a14.5471,14.5471,0,0,1,1.64,2.17c.08.12.13.17.21.31s.13.25.2.37.29.42.42.67.22.47.34.75.13.2.2.33.1.24.16.36c.25.55.49,1.44.73,2a1.3512,1.3512,0,0,1,.11.45H47.62c.18-.78.22-1.46.35-2.22a12.24,12.24,0,0,0-.08-3.42l-.28-1.64Zm-7.47-.26,2-.5a11.3185,11.3185,0,0,1,2.88-.17l.57-.05c.38-.06.22,0,.46.06a3.2189,3.2189,0,0,1,.51.09c0,.67.09.4.09.66a22.8831,22.8831,0,0,1-.18,3.48l-.39,1.72a3.1552,3.1552,0,0,0-.17.57c-.21-.06-.07,0-.36-.34a4.5512,4.5512,0,0,0-.76-.68,7.9919,7.9919,0,0,0-1.24-1l-.68-.41c-.16-.05-.18,0-.27-.12s0-.11-.2-.5c-.09-.15-.2-.31-.28-.46-.18-.39,0-.12-.29-.42s-.13-.28-.45-.63c-.09-.09-.08-.1-.16-.19l-.89-.94-.1-.08c-.12-.12,0,0-.09-.13ZM23.72,29.83a15.2215,15.2215,0,0,1-.74-4.67v-.9c0-.29-.06-.07,0-.29a1.0808,1.0808,0,0,0,0-.43c.17,0,.29-.06.31-.26a1.168,1.168,0,0,0,.4,0,27.77,27.77,0,0,1,2.86.09,12.3906,12.3906,0,0,1,2.85.69c-.12.19-.86.89-1,1.11l-1.18,1.7c0,.1-.06.15-.11.24l-.15.24c-.12.14-.1,0-.45.25l-.46.29-.85.59c-.16.12-.22.21-.37.32l-.2.15a7.8832,7.8832,0,0,1-.92.92ZM34.64,25.9V22.23l1.68.68,1.09.66c.15.12.23.12.33.28a9.0935,9.0935,0,0,0-2,1.16l-.73.58c-.14.1-.21.22-.35.31Zm-.7-3.67v3.58c-.31-.17-1.11-.89-1.39-1.1-.12-.09-.25-.12-.38-.22a4.5035,4.5035,0,0,0-.41-.25l-.87-.39a7.3381,7.3381,0,0,1,1.4-.91h.09l.7-.33c.28-.14.58-.21.84-.34ZM46.83,23.5a11.9991,11.9991,0,0,1,2.08.45c.58.19,1.48.38,2,.61a6.612,6.612,0,0,0,.91.35l2.23,1c.18.09.26.19.45.21,0,.23.13,1.22.13,1.83v.92c0,.7-.11,2.13-.19,2.78a11.2271,11.2271,0,0,1-.29,1.72l-.57-1.56a12.8214,12.8214,0,0,0-.69-1.44l-1.42-2.34a12.3645,12.3645,0,0,0-1.22-1.49,1.6073,1.6073,0,0,1-.24-.28l-1.62-1.57ZM14.42,33.33a5.6507,5.6507,0,0,0-.13-.62c-.15-.7-.15-1.28-.25-2l-.09-2.1c.1-.77,0-.79.11-1.55a8.3721,8.3721,0,0,0,.05-1,16.2559,16.2559,0,0,0,1.75-.78c.29-.13.59-.24.9-.36a16.1318,16.1318,0,0,1,2.32-.83c1-.21.88-.31,2.07-.51a3.4027,3.4027,0,0,1,.57-.08l-2.07,1.65c-.23.24-.44.34-.83.78l-1,1.14c-.36.45-.62.9-.9,1.24-.07.1-.17.2-.23.29s-.14.24-.22.36-.11.19-.19.33l-.76,1.38a7.9985,7.9985,0,0,0-.5,1.11,9.8725,9.8725,0,0,0-.47,1.15l-.17.4ZM45.35,21.88v0Zm-1.88.7a13.5019,13.5019,0,0,0-3.87.54c-.55.14-1,.36-1.11.38l-.66-.48a9.32,9.32,0,0,0-2.27-1.18c.09-.13,0,0,.42-.15h.54A3.3133,3.3133,0,0,0,37,21.6h1.09l1.68.11,1.44.26a10.428,10.428,0,0,1,1.42.38c.26.12.51.16.73.27s0,0,.11.07Zm-13.33.92-1.06-.39-1.24-.24a10.66,10.66,0,0,0-2.64-.33.2206.2206,0,0,1,.1-.08l1-.35a10.9955,10.9955,0,0,1,1.87-.4c.57-.05,1.1-.15,1.7-.19a10.4161,10.4161,0,0,1,1.93.05,7.3139,7.3139,0,0,1,1.26.22h-.05l-2.17,1.16a.8631.8631,0,0,0-.16.1l-.52.4Zm4.5-2.19V15.02l1.58.57a18.4233,18.4233,0,0,1,2.24,1,3.2868,3.2868,0,0,1,.31.2,15.2524,15.2524,0,0,1,1.36.83,1.4517,1.4517,0,0,0,.34.23,22.785,22.785,0,0,1,2.32,2l1.49,1.78c.35.44.18.3.31.47s.08.07.14.17a2,2,0,0,1-.53-.21,14.2964,14.2964,0,0,0-2.86-.94l-1.26-.19L38,20.79c-.24,0-.44.09-.7.09a8.89,8.89,0,0,0-2.63.43Zm18.13-3.53a.66.66,0,0,1,.31.16L57,20.76a2.99,2.99,0,0,1,.28.24c.37.36.89.78,1.27,1.13l2.64,2.69,4.28,5.37c.15.2.28.34.43.53s.27.35.43.54l1.38,1.71c.1.11.14.09.17.23v.41a10.1591,10.1591,0,0,1-1.75-.83,18.6173,18.6173,0,0,1-2.37-1.48,2.7025,2.7025,0,0,0-.4-.25l-3.44-2.37c-.27-.18-.46-.36-.75-.52a5.6857,5.6857,0,0,1-1-.65l-.21-.09-.8-.51c-.15-.1-.27-.15-.42-.24s-.26-.14-.41-.24a6.14,6.14,0,0,0-1.25-.71,20.9629,20.9629,0,0,0-.33-2.2c-.06-.2-.18-.64-.27-1a3.1023,3.1023,0,0,0-.19-.77l-1.37-3.7h0l-.15-.24ZM.7,33.61c0-.64.05-.44.27-.69l1.32-1.56c.29-.39.53-.75.81-1.12l3-3.78c.39-.49,1.38-1.7,1.79-2.1l.46-.5.48-.48c.27-.28,0-.1.47-.49s.63-.68,1-.95l1.78-1.61,1.68-1.24a3.0089,3.0089,0,0,0,.3-.19,3.32,3.32,0,0,1,.56-.4l.3-.18a3.21,3.21,0,0,1,.94-.54l-.78,1.65a5.9341,5.9341,0,0,1-.28.69l-.1.38c-.07.18-.1.11-.15.33-.16.68-.3,1-.42,1.5a1.6368,1.6368,0,0,1-.1.38,8.5939,8.5939,0,0,0-.36,1.6,1.8908,1.8908,0,0,1-.08.4c-.13.48,0,.81-.2,1l-1.31.78c-.22.14-.4.2-.61.36L9.69,27.99l-.13.09-.17.09-.3.18c-.14.08-.14.13-.26.22L5.67,30.74c-.55.35-1.24.87-1.73,1.16l-2.5,1.38a2.42,2.42,0,0,0-.33.15l-.37.16ZM33.94,21.27a11.0034,11.0034,0,0,0-2.53-.44,15.0866,15.0866,0,0,0-2.81.12,8.4327,8.4327,0,0,0-1.9.33l-1.72.55a4.3835,4.3835,0,0,1-1.08.44l1.38-1.8c.18-.18.36-.39.54-.55l1.7-1.54a15.8493,15.8493,0,0,1,1.92-1.31l1.4-.78a19.4094,19.4094,0,0,1,3.1-1.22v1.54a3.0423,3.0423,0,0,0,0,.74c.09,1.07,0,2.76,0,3.89Zm11.41.61-1.43-1.72a14.79,14.79,0,0,0-1.84-1.87l-1.19-.95c-.49-.29-.69-.52-1.44-.92l-.17-.09a14.06,14.06,0,0,0-1.36-.78l-1.48-.62a4.4671,4.4671,0,0,1-.75-.34,4.4487,4.4487,0,0,0,.81-.15l3.6-.34c.35,0,.64.1.89.07s1.2.11,1.82.11c.07.28.58,1.27.67,1.51a12.0064,12.0064,0,0,1,.47,1.15c.2.58.48,1.17.69,1.85a1.466,1.466,0,0,0,.12.49l.41,1.51a2.4265,2.4265,0,0,1,.09.52A2.84,2.84,0,0,1,45.35,21.88Zm-22.11.09a21.3931,21.3931,0,0,1,1-4.08,8.417,8.417,0,0,1,.37-.9,10.1182,10.1182,0,0,1,.6-1.38l.61-1.36,1.83-.13h.92c.36,0,.68.09.91.07.87-.07,2.8.41,3.5.41h0a14.9916,14.9916,0,0,1-1.49.61l-1.8.87-2.28,1.53-1.45,1.21-.26.26a9.339,9.339,0,0,0-1.27,1.4l-.48.61c-.2.25-.11,0-.35.43l-.11.15-.12.15-.13.18Zm-.83.74a5.8349,5.8349,0,0,0-1.36.21,18.0845,18.0845,0,0,0-2.13.49c-.29.07-.49.2-1,.31-.21,0,0,0-.22.08-.34.17-.41.07-.73.27a12.59,12.59,0,0,1-1.39.58,3.0113,3.0113,0,0,0-.44.22c-.3.16-.6.27-.89.42l.31-1.68a2.8569,2.8569,0,0,1,.14-.56l1.25-3.69a1.6926,1.6926,0,0,0,.09-.34l.86-1.85c.11-.23.36-.2.62-.34a12.4971,12.4971,0,0,1,1.86-.85h.12a3.882,3.882,0,0,1,.86-.32h.2l3.21-1.05a9.3126,9.3126,0,0,1,1.18-.17c0,.21,0,.06-.09.22l-.51,1.15c-.14.44-.48,1.1-.6,1.45-.06.18-.1.35-.15.5l-.18.53-.48,1.52c-.06.2-.07.36-.12.58a11.2106,11.2106,0,0,0-.41,2.3Zm21.23-8.25a17.9106,17.9106,0,0,1,3.75.88c.18.06.3.11.52.17l.23.08.26.09.47.18c.18.06.28.15.45.21l1.18.49c.21.06.17.11.42.22l.12.06c.75.37.61.05.75.52.1.29.47.85.62,1.3s.36.74.49,1.17l.37,1a3.5107,3.5107,0,0,0,.15.5,9.3729,9.3729,0,0,1,.44,1.57,10.0923,10.0923,0,0,1,.36,1.65c0,.32.12.26.12.7a3,3,0,0,1-.91-.39l-2.88-1.15-.47-.17a2.1212,2.1212,0,0,1-.53-.12,9.58,9.58,0,0,0-2.14-.53,6.4,6.4,0,0,0-1.17-.18,20.3888,20.3888,0,0,0-.55-2.81l-.61-2.09c-.07-.19-.14-.27-.21-.49s-.22-.66-.36-1l-.73-1.62-.09-.09v-.12Zm-5.11-1c-.19,0,0-.12-.29,0a4.2844,4.2844,0,0,1-.72.07,2.3579,2.3579,0,0,0-.39.1c-.29,0,.11-.09-.6.05l-1.28.21c-.34.09-.28.13-.61.13V.83l.22.39a21.1088,21.1088,0,0,0,1,2.14l4.66,7.18a21.7319,21.7319,0,0,1,1.59,2.6,1.49,1.49,0,0,1,.21.44c-.28,0-.69-.09-1-.09a8.486,8.486,0,0,1-1.06-.08,3.1782,3.1782,0,0,0-.47,0c-.38,0-.13-.13-.43-.05a.84.84,0,0,1-.46.05c-.26-.05.14,0-.07,0s-.12.07-.35.07Zm-11.14-.05c-.35,0,.07-.05-.42,0h-.08c-.35-.05-.05,0-.63,0,.22-.34.31-.63.44-.83.26-.39.4-.7.72-1.16.17-.25.27-.48.45-.81l2.55-3.79a3.0012,3.0012,0,0,1,.25-.4,3.101,3.101,0,0,0,.27-.34c.36-.61.74-1.11,1-1.54a17.5362,17.5362,0,0,0,.95-1.59l.64-1.28c.08-.15.33-.77.42-.89V14.11l-.74-.18c-.23-.05-.56-.09-.79-.12l-1.67-.2a14.9032,14.9032,0,0,0-1.74-.14,2.29,2.29,0,0,0-.84,0,.91.91,0,0,1-.48-.06c-.15,0-.1.06-.3.06ZM36.91.74c.86.08,1.72.22,2.57.32a30.27,30.27,0,0,1,4,.88l2.19.7a25.0333,25.0333,0,0,1,2.43,1l.62.34c.35.18.61.25,1,.48l1,.49.3.19c.28.19.66.33.94.54s.58.36.87.57a1.28,1.28,0,0,0,.3.19,6.3051,6.3051,0,0,1,.88.61c.46.35.86.73,1.34,1.05.29.2.54.46.81.68l1.51,1.37c.11.1.15.11.26.22l1,1a2.5412,2.5412,0,0,0,.15.24,27.6267,27.6267,0,0,1,2.6,3.25,6.3039,6.3039,0,0,0,.39.57l1.15,1.78a10.0033,10.0033,0,0,0,.68,1.24l1.18,2.66c.11.23.17.46.28.68a2.4008,2.4008,0,0,1,.15.33l.92,2.49c.05.13.08.23.12.36a28.8779,28.8779,0,0,1,.81,3.6c.17,1.27.37,2.1.48,3.4a1.4316,1.4316,0,0,1-.22-.26l-.64-.79c-.72-.88-1.46-1.77-2.1-2.71a20.1507,20.1507,0,0,0-1.31-1.6l-.89-1a41.6082,41.6082,0,0,0-3.21-3.56l-1.31-1.14c-.26-.21-.51-.49-.76-.68l-1.64-1.29c-.2-.15-.36-.25-.57-.39l-.58-.42c-.2-.13-.39-.23-.59-.37l-1.5-.91c-.41-.22-.31,0-.46-.45l-1.69-2.79a1.32,1.32,0,0,0-.19-.29c-.07-.1-.14-.18-.21-.27s-.29-.37-.41-.55l-1.28-1.68c-.64-.65-1.23-1.36-1.88-2l-1-1c-.5-.46-1-1-1.5-1.39-.35-.27-.75-.57-1.08-.88s-.71-.57-1.05-.88c-.72-.64-1.94-1.55-2.73-2.15l-1.09-.84a8.5022,8.5022,0,0,1-1-.93ZM25.38,13.67c-.34,0-2.31.39-2.66.48-1.18.3-1.9.59-2.91.89l-2.25,1,.89-1.43a1.1713,1.1713,0,0,1,.19-.3l1.82-2.45a16.5708,16.5708,0,0,1,1.09-1.27c.1-.11.12-.16.22-.27.53-.56,1.08-1.16,1.66-1.7l1.24-1.11c.11-.11.16-.12.26-.22l3.66-3a13.2031,13.2031,0,0,1,1.33-1l2.1-1.76c.24-.2.62-.43.7-.73h.48a17.4333,17.4333,0,0,1-1.51,3L27.8,9.61c-.49.65-.64,1.05-1,1.58a3.4232,3.4232,0,0,0-.26.4l-.49.82a4.5284,4.5284,0,0,0-.21.45l-.24.41a1.9982,1.9982,0,0,0-.23.43ZM.75,32.06c.13-.56.07-1.15.2-1.72a2.3527,2.3527,0,0,0,.06-.42c0-.14.06-.29.07-.41l.28-1.69a22.0589,22.0589,0,0,1,.59-2.33,6.0047,6.0047,0,0,0,.2-.76c.06-.26.18-.49.24-.72a12.6988,12.6988,0,0,1,.79-2.14c.2-.45.33-.94.55-1.37l1.69-3.21c.06-.1.09-.2.16-.31l.57-.88a23.4457,23.4457,0,0,1,2-2.83l.21-.26,2.58-2.8a10.34,10.34,0,0,1,1.24-1.16c.15-.08.16-.14.27-.25l1.32-1.09.27-.2a16.0054,16.0054,0,0,1,2.31-1.59,6.9875,6.9875,0,0,0,.6-.4l1.85-1c.49-.27,1-.46,1.47-.7A18.232,18.232,0,0,1,23.59,2.5a1.4155,1.4155,0,0,0,.35-.13,2.8328,2.8328,0,0,1,.35-.13,29.629,29.629,0,0,1,3.93-1l.84-.12a3.7834,3.7834,0,0,0,.83-.13L31.65.78a4.2309,4.2309,0,0,1-.76.69c-.41.32-.92.84-1.34,1.1a9.8473,9.8473,0,0,0-1.08.85c-.51.45-1.13.81-1.63,1.28l-1.6,1.34a37.42,37.42,0,0,0-2.79,2.53,9.7465,9.7465,0,0,0-.74.7l-.47.54c-.08.1-.15.15-.24.25l-1.53,1.87c-.62.83-1.28,1.65-1.82,2.54a1.6935,1.6935,0,0,1-.2.28c-.13.15-.2.41-.35.62l-.53.91c-.21.5-.1.24-.5.5l-2.38,1.51c-.27.22-.58.38-.86.58l-1.65,1.28a18.2887,18.2887,0,0,0-1.53,1.39c-.18.18-.33.27-.5.46a2.7554,2.7554,0,0,1-.22.26l-.27.21c-.19.15-.3.32-.48.49a5.9863,5.9863,0,0,0-.5.51,1.6867,1.6867,0,0,1-.22.26c-.11.11-.12.14-.22.25L4.58,27.14c-.15.18-.3.37-.44.56L2.45,29.9c-.28.38-.52.74-.81,1.1a8.9992,8.9992,0,0,1-.91,1.06ZM35.39.7h.48c.1.37,1.67,1.54,2.11,1.9l1.49,1.17c.42.34,1.22.9,1.6,1.24.77.68,2.28,1.83,2.87,2.43.33.33,1.12,1,1.46,1.37A15.5636,15.5636,0,0,1,46.61,10a5.4746,5.4746,0,0,0,.45.51c.11.11.12.15.22.26a8.2154,8.2154,0,0,1,.68.77c.42.55,1.52,1.92,1.85,2.47l.38.58.19.29.7,1.19c-.14,0-.18-.1-.32-.16a2.1726,2.1726,0,0,1-.36-.12l-3.87-1.46-1.21-.28a7.1927,7.1927,0,0,0-1.61-.3c-.27,0-.34,0-.52-.19s-.89-1.64-1.16-2l-.95-1.51a3.0089,3.0089,0,0,0-.19-.3c-.2-.3-.56-.94-.76-1.16L38.97,6.82a2.0006,2.0006,0,0,1-.19-.21l-.77-1.19c-.31-.43-1.47-2.27-1.68-2.69-.06-.12-.1-.22-.16-.32-.17-.34-.3-.51-.49-.95-.11-.26-.17-.48-.29-.71ZM0,33.61v3l.06.65a8.2184,8.2184,0,0,0,.07,1,5.538,5.538,0,0,0,.1.95,9.0589,9.0589,0,0,1,.13.91l.74,3.5c.18.51.28,1.13.47,1.63a1.64,1.64,0,0,1,.11.41l1,2.66c.11.23.23.49.32.72l3,5.44c.08.12.14.19.22.3.51.69,1.07,1.45,1.62,2.1l1,1.14c.52.54,1,1.11,1.55,1.63l2.8,2.44c.6.45,1.21.94,1.84,1.35l2.25,1.43c.14.08.22.09.35.16l.32.21c.38.26,2.32,1.16,2.85,1.39l1.88.74c.39.13.76.3,1.17.41.15,0,.22.09.37.14.6.21,1.85.49,2.53.66a33.6024,33.6024,0,0,0,5,.76,10.9737,10.9737,0,0,0,1.72,0h2.39c.28,0,.73-.06,1-.08.65-.06,1.32-.13,1.93-.21l1.85-.29a28.5056,28.5056,0,0,0,3.44-.8c.29-.1,1-.24,1.23-.35.6-.3,1.25-.43,2-.76l1.52-.65c.21-.07.33-.21.51-.28l1.26-.62a1.6868,1.6868,0,0,1,.31-.21,8.1229,8.1229,0,0,0,1.35-.8l1-.63.31-.21,1.85-1.39.58-.47.61-.47c.58-.43,2.18-2.05,2.75-2.62a18.709,18.709,0,0,0,1.22-1.45l2.3-3.07a3.5453,3.5453,0,0,1,.21-.32,14.2547,14.2547,0,0,0,1.2-2c.11-.23.28-.45.37-.68l.37-.72.17-.36.84-1.87a16.0178,16.0178,0,0,0,.57-1.57,6.349,6.349,0,0,0,.31-.78c.09-.41.26-.8.36-1.21a.2856.2856,0,0,1,.06-.21c.06-.09,0-.13.08-.22.38-1.13.5-2.37.77-3.56s.22-2.28.37-3.34a30.8869,30.8869,0,0,0,0-3.48l-.07-2.05a3.878,3.878,0,0,0-.09-1,40.2013,40.2013,0,0,0-1.08-5.35l-.24-.83c-.1-.29-.15-.56-.25-.84-.17-.52-.42-1-.56-1.58,0-.21,0,0-.07-.19l-.59-1.33a6.653,6.653,0,0,0-.33-.72l-.37-.73a8.2975,8.2975,0,0,0-.54-1,10.7285,10.7285,0,0,1-.56-1.06c-.14-.25-.29-.45-.42-.67l-.43-.7c-.07-.12-.12-.23-.19-.33l-2.06-2.79a27.4285,27.4285,0,0,0-2.86-3c-.39-.32-.72-.7-1.12-1-.57-.45-.79-.71-1.48-1.22l-1.17-.99c-.35-.29-2.74-1.77-3.12-2a17.6886,17.6886,0,0,0-1.62-.83,7.0032,7.0032,0,0,1-.72-.37c-1-.48-2-.81-3.06-1.22a1.9941,1.9941,0,0,0-.37-.16l-.81-.23c-.59-.1-1.3-.41-2.17-.59L40.9.61c-.73-.17-1.57-.24-2.31-.4-.43-.09-1.43-.1-2-.16a8.8831,8.8831,0,0,0-1.06,0,4.5746,4.5746,0,0,1-.48,0h-2.9c-.32.08-.66,0-1,.08s-1,.07-1.36.17-1,.1-1.33.2l-.38.11a32.29,32.29,0,0,0-5.72,1.57l-2.2.9A22.89,22.89,0,0,0,17.8,4.3c-.44.27-.89.45-1.31.74L12.55,7.88c-.2.15-.41.3-.59.46l-1.08,1c-.63.58-1.19,1.23-1.79,1.83-.25.26-.46.57-.7.83a6.3392,6.3392,0,0,0-.48.57l-.41.47h0a3.9969,3.9969,0,0,0-.47.62l-2.5,3.75-.71,1.34c-.25.49-.47.89-.69,1.41l-.32.68c-.38,1-.83,2-1.12,3l-.23.82c-.12.57-.33,1.06-.49,1.61l-.58,3c-.08.76-.28,1.52-.3,2.28S0,32.84,0,33.55Z" transform="translate(0 -0.0342)"/><g class="cls-2"><g class="cls-2"><path class="cls-1" d="M84.9824,19.5884a12.17,12.17,0,0,1-.3647,1.834q-.3648,1.5043-.5991,1.5986a15.2876,15.2876,0,0,1-5.2891.9629,7.1156,7.1156,0,0,1-5.312-2.291,7.5738,7.5738,0,0,1-2.21-5.4424,8.1056,8.1056,0,0,1,2.2212-5.7236,7.2551,7.2551,0,0,1,5.5356-2.3858,22.944,22.944,0,0,1,5.3829.6817,4.5486,4.5486,0,0,1,.2939,1.5751q.1758,1.5513.1763,1.9043c0,.2344-.2119.3526-.6348.3526-.0161,0-.1411-.0235-.376-.07a3.9222,3.9222,0,0,0-.3882-.8936A5.1727,5.1727,0,0,0,82.62,10.68a3.8747,3.8747,0,0,0-1.457-.8819,6.0234,6.0234,0,0,0-2.0806-.3408q-4.2077,0-4.2075,6.3a8.9637,8.9637,0,0,0,1.293,4.9483,4.2852,4.2852,0,0,0,6.6758.74,2.9073,2.9073,0,0,0,.5522-.835q.2469-.5288.376-.8925a1.3824,1.3824,0,0,1,.1528-.3643Q84.8882,19.354,84.9824,19.5884Z" transform="translate(0 -0.0342)"/><path class="cls-1" d="M88.4258,21.728A7.842,7.842,0,0,1,86.2046,16.11a7.8842,7.8842,0,0,1,2.2212-5.63,7.2421,7.2421,0,0,1,10.66,0,7.8625,7.8625,0,0,1,2.2334,5.63,7.82,7.82,0,0,1-2.2334,5.6181,7.2668,7.2668,0,0,1-10.66,0ZM93.397,9.4575a2.6762,2.6762,0,0,0-2.0684.9053,4.9613,4.9613,0,0,0-1.14,2.2217,12.8955,12.8955,0,0,0-.3174,3.0088,12.47,12.47,0,0,0,.2236,2.3623,11.8545,11.8545,0,0,0,.6817,2.2793,4.3929,4.3929,0,0,0,1.3281,1.8105,3.15,3.15,0,0,0,2.0215.6934,2.8221,2.8221,0,0,0,2.644-1.7871,9.8671,9.8671,0,0,0,.8819-4.3955,14.493,14.493,0,0,0-.2-2.4561,10.8178,10.8178,0,0,0-.646-2.2568,4.0017,4.0017,0,0,0-1.3164-1.7393A3.4113,3.4113,0,0,0,93.397,9.4575Z" transform="translate(0 -0.0342)"/><path class="cls-1" d="M102.6821,12.3257a3.7339,3.7339,0,0,1,1.5635-3.0088,5.3951,5.3951,0,0,1,3.4434-1.2461,7.7534,7.7534,0,0,1,1.0224.07c.3526.0469.65.0947.8936.1416s.58.1211,1.0107.2227.7715.1767,1.0225.2236a35.5233,35.5233,0,0,1,.2583,3.9023.3486.3486,0,0,1-.3526.2344q-.6817,0-.7285-.164a4.6424,4.6424,0,0,0-1.0107-2.2452,2.575,2.575,0,0,0-2.0923-1.0693,1.96,1.96,0,0,0-1.3516.4932,2.0148,2.0148,0,0,0-.5522,1.5752,1.9464,1.9464,0,0,0,.2349.917,3.2431,3.2431,0,0,0,.7876.917,10.252,10.252,0,0,0,.9047.705q.3531.2345,1.1519.752c.1411.0937.2505.164.3291.2119q.1882.1171.7759.47t.8344.5293a7.9419,7.9419,0,0,1,.6817.5752,2.9285,2.9285,0,0,1,.6348.7881,5.1059,5.1059,0,0,1,.3642,1.0107,5.3883,5.3883,0,0,1,.1646,1.375,3.8176,3.8176,0,0,1-1.5513,3.1143,5.5819,5.5819,0,0,1-3.5732,1.2344,20.08,20.08,0,0,1-4.4659-.6114,19.66,19.66,0,0,1-.3642-2.0566,15.9423,15.9423,0,0,1-.1763-1.8457q.07-.2343.4229-.2344.728,0,.7519.1407a4.4408,4.4408,0,0,0,1.1758,2.1738,2.9072,2.9072,0,0,0,2.186,1.0937q2.3269,0,2.3267-2.5625a1.6258,1.6258,0,0,0-.2114-.7871,2.911,2.911,0,0,0-.6348-.7646,9.2968,9.2968,0,0,0-.752-.61q-.33-.2358-.9287-.6113c-.3994-.251-.6543-.415-.7636-.4941q-.118-.07-.3526-.2344-.7756-.517-1.1753-.8233a8.924,8.924,0,0,1-.9287-.8457,3.1637,3.1637,0,0,1-.7519-1.1875A4.464,4.464,0,0,1,102.6821,12.3257Z" transform="translate(0 -0.0342)"/><path class="cls-1" d="M117.7729,8.4q.4695,0,1.3282-.0586t1.14-.082q.2352.7515,1.9278,4.4306t2.5151,5.7237h.0469q.0468,0,.0468-.0235,1.81-4.49,2.8677-7.4043l.7759-2.6328q.4233.047,1.9033.0469.1421,0,2.9619-.1406a.67.67,0,0,1,.0948.376c0,.3291-.04.4931-.1182.4931h-.0234a1.6738,1.6738,0,0,0-.9873.2822,1.08,1.08,0,0,0-.3291.9639q.0468.9405.2353,4.8652t.2354,5.0069a7.3006,7.3006,0,0,0,.3525,2.1631c.0625.1406.2695.2822.6221.4228a2.4476,2.4476,0,0,0,.7412.2119q.0938,0,.0937.47a1.32,1.32,0,0,1-.0469.3994q-.2592-.0235-1.3164-.1055t-1.6689-.082q-.6344,0-1.8574.082t-1.5508.1055a.5129.5129,0,0,1-.1177-.376q0-.4936.0708-.4932a2.5118,2.5118,0,0,0,.7988-.2119,1.21,1.21,0,0,0,.6583-.4463,1.4143,1.4143,0,0,0,.1884-.6582q0-.54-.0478-1.3867l-.1875-5.9707a5.1307,5.1307,0,0,0-.1885-1.5752c-.0313,0-.07.0557-.1172.165l-4.0664,10.1309a1.5217,1.5217,0,0,1-.376.5049.8243.8243,0,0,1-.5639.2705.7467.7467,0,0,1-.2119-.0469l-5.1709-11.6123-.4,9.05q0,.6826.0235.8467.0711.3062,1.0342.6231a5.4,5.4,0,0,0,1.27.3173q.0938,0,.0942.47a1.3206,1.3206,0,0,1-.0473.3994q-.1882,0-1.41-.0938t-1.8335-.0937q-.6116,0-1.6924.082t-1.4575.1055a.5906.5906,0,0,1-.0937-.3994c0-.2979.0234-.4463.07-.4463a4.63,4.63,0,0,0,1.375-.3526q.9521-.3529.999-.8466.047-.5406.0942-1.128.07-1.2216.1646-3.6084.0938-2.3847.1645-4.5957.07-2.2089.0938-2.5146a1.0851,1.0851,0,0,0-.07-.4229q-.07-.189-.7525-.3408a5.1046,5.1046,0,0,0-.9873-.1533q-.0937,0-.0937-.4932a.5.5,0,0,1,.0937-.3525q.33.0234,1.211.082T117.7729,8.4Z" transform="translate(0 -0.0342)"/><path class="cls-1" d="M137.6943,21.728a7.8407,7.8407,0,0,1-2.2216-5.6181,7.8829,7.8829,0,0,1,2.2216-5.63,7.2417,7.2417,0,0,1,10.6592,0,7.86,7.86,0,0,1,2.2334,5.63,7.8184,7.8184,0,0,1-2.2334,5.6181,7.2663,7.2663,0,0,1-10.6592,0ZM142.665,9.4575a2.6775,2.6775,0,0,0-2.0683.9053,4.9567,4.9567,0,0,0-1.14,2.2217,12.8687,12.8687,0,0,0-.3174,3.0088,12.47,12.47,0,0,0,.2237,2.3623,11.8542,11.8542,0,0,0,.6816,2.2793,4.3947,4.3947,0,0,0,1.3281,1.8105,3.148,3.148,0,0,0,2.0215.6934,2.8216,2.8216,0,0,0,2.6436-1.7871,9.8672,9.8672,0,0,0,.8818-4.3955,14.4417,14.4417,0,0,0-.2-2.4561,10.81,10.81,0,0,0-.6455-2.2568,4.004,4.004,0,0,0-1.3164-1.7393A3.4116,3.4116,0,0,0,142.665,9.4575Z" transform="translate(0 -0.0342)"/><path class="cls-1" d="M155.3584,8.33q.6812,0,1.4932-.0352.81-.0351,1.5156-.0351a8.8208,8.8208,0,0,1,2.6094.376,4.7014,4.7014,0,0,1,2.1386,1.3984,3.6462,3.6462,0,0,1,.917,2.5264,4.3781,4.3781,0,0,1-1.4687,3.291,5.0007,5.0007,0,0,1-3.5615,1.3867,2.48,2.48,0,0,1-.752-.1172,3.0069,3.0069,0,0,1-.5645-.2236.726.726,0,0,1-.2353-.1758,1.1356,1.1356,0,0,1-.1172-.5176c-.0156-.25.0156-.376.0938-.376a2.1417,2.1417,0,0,0,1.0576.1885q1.9746,0,1.9746-3.1973,0-3.22-2.1621-3.22a2.0562,2.0562,0,0,0-1.0811.1875q-.2828.2124-.2822,2.3037v8.4151a9.0938,9.0938,0,0,0,.1641,1.9277q.07.2813.7763.4463a5.0989,5.0989,0,0,0,1.0576.165q.0938,0,.0938.4463a1.4236,1.4236,0,0,1-.0469.4229q-2.8212-.1407-3.5967-.1407l-3.4316.1407a.59.59,0,0,1-.0938-.3994q0-.47.0938-.47a3.7446,3.7446,0,0,0,.8818-.165c.3994-.1094.6221-.2266.67-.3525a9.8273,9.8273,0,0,0,.1406-2.0684V11.5737a8.238,8.238,0,0,0-.1406-1.834c-.0479-.125-.2793-.2666-.6944-.4228a2.9984,2.9984,0,0,0-.8808-.2354c-.0625,0-.0938-.1406-.0938-.4228a.7987.7987,0,0,1,.07-.4463Q154.0186,8.33,155.3584,8.33Z" transform="translate(0 -0.0342)"/><path class="cls-1" d="M167.4756,21.728a7.8436,7.8436,0,0,1-2.2207-5.6181,7.8859,7.8859,0,0,1,2.2207-5.63,7.2427,7.2427,0,0,1,10.66,0,7.8645,7.8645,0,0,1,2.2334,5.63,7.8225,7.8225,0,0,1-2.2334,5.6181,7.2674,7.2674,0,0,1-10.66,0Zm4.9717-12.2705a2.6748,2.6748,0,0,0-2.0684.9053,4.967,4.967,0,0,0-1.1406,2.2217,12.9171,12.9171,0,0,0-.3174,3.0088,12.47,12.47,0,0,0,.2236,2.3623,11.8545,11.8545,0,0,0,.6817,2.2793,4.3929,4.3929,0,0,0,1.3281,1.8105,3.1517,3.1517,0,0,0,2.0215.6934,2.8227,2.8227,0,0,0,2.6445-1.7871,9.8672,9.8672,0,0,0,.8818-4.3955,14.5448,14.5448,0,0,0-.2-2.4561,10.8191,10.8191,0,0,0-.6465-2.2568,3.9979,3.9979,0,0,0-1.3164-1.7393A3.4108,3.4108,0,0,0,172.4473,9.4575Z" transform="translate(0 -0.0342)"/><path class="cls-1" d="M185.1162,8.4q.47,0,3.291-.1406a1.3289,1.3289,0,0,1,.0713.4228c0,.2979-.0322.4463-.0947.4463a3.6621,3.6621,0,0,0-.8457.2c-.4238.1328-.65.2549-.6817.3643a7.9891,7.9891,0,0,0-.165,1.8808v8.9082a5.5411,5.5411,0,0,0,.1885,1.6924q.1172.3765,1.5986.376h.61a5.6105,5.6105,0,0,0,2.6328-.6113,3.3973,3.3973,0,0,0,.9053-.7989,4.4664,4.4664,0,0,0,.7871-1.3164c.0312-.0937.1416-.1406.3291-.1406a1.1179,1.1179,0,0,1,.705.1406,31.9022,31.9022,0,0,0-1.2685,4.043q-1.34,0-4.1846-.0469t-3.8545-.0469l-3.4326.1407a.5906.5906,0,0,1-.0937-.3994q0-.47.0937-.47a3.7274,3.7274,0,0,0,.8818-.165q.5992-.1641.67-.3525a9.8273,9.8273,0,0,0,.1406-2.0684v-8.98a4.75,4.75,0,0,0-.1875-1.7627,1.3753,1.3753,0,0,0-.6582-.3877,2.6345,2.6345,0,0,0-.8-.2c-.0625,0-.0938-.1328-.0938-.3994a1.1372,1.1372,0,0,1,.0469-.47Q184.9527,8.4,185.1162,8.4Z" transform="translate(0 -0.0342)"/><path class="cls-1" d="M197.457,11.5493a5.0566,5.0566,0,0,0-.1875-1.833,1.3747,1.3747,0,0,0-.6582-.3877,2.6332,2.6332,0,0,0-.8-.2c-.0625,0-.0937-.1328-.0937-.3994a1.1381,1.1381,0,0,1,.0468-.47q.3531.0234,1.129.082t1.163.07q.3882.0117,1.1163-.0117.47,0,3.291-.1406a1.3316,1.3316,0,0,1,.0713.4228c0,.2979-.0323.4463-.0948.4463a3.6633,3.6633,0,0,0-.8457.2c-.4238.1328-.65.2549-.6816.3643a5.5159,5.5159,0,0,0-.1182.7871c-.0312.3379-.0469.623-.0469.8584v9.05a8.7032,8.7032,0,0,0,.1885,2.0683c.0313.1094.2461.2354.6465.376a3.1124,3.1124,0,0,0,.8106.2119q.0938,0,.0937.4463a1.4236,1.4236,0,0,1-.0469.4229q-.164,0-1.41-.0938t-1.8574-.0937q-.6344,0-1.8565.082t-1.5518.1055a.5443.5443,0,0,1-.0937-.376q0-.4936.07-.4932a3.2764,3.2764,0,0,0,.87-.2q.6109-.1992.6817-.3877a8.0545,8.0545,0,0,0,.164-1.8808Z" transform="translate(0 -0.0342)"/><path class="cls-1" d="M208.3994,8.3062q1.5864.07,2.5742.07t2.586-.07q1.5981-.07,2.5849-.07a7.1368,7.1368,0,0,0,1.6221-.2587l.4463,3.8544a.9939.9939,0,0,1-.6817.1651c-.1406,0-.2187-.0391-.2343-.1182q-.5889-2.3262-2.5157-2.3262-1.9043,0-1.998.4229a8.3673,8.3673,0,0,0-.1875,2.0918v8.4853a7.8718,7.8718,0,0,0,.1875,1.9043c.0313.1094.2471.2354.6465.376a3.1073,3.1073,0,0,0,.8115.2119q.0938,0,.0938.4463a1.427,1.427,0,0,1-.0469.4229q-.1656,0-1.41-.0938-1.2465-.0937-1.8574-.0937-.6342,0-1.8564.082t-1.5518.1055a.5443.5443,0,0,1-.0937-.376q0-.4936.07-.4932a3.2724,3.2724,0,0,0,.8691-.2c.4082-.1328.6348-.2617.6816-.3877a7.5806,7.5806,0,0,0,.1651-1.8095v-8.51a6.5772,6.5772,0,0,0-.1885-2.1621.7867.7867,0,0,0-.1289-.2,1.4838,1.4838,0,0,0-.5049-.1406,7.6755,7.6755,0,0,0-1.2929-.0821,2.3186,2.3186,0,0,0-1.5752.5284,3.4677,3.4677,0,0,0-.94,1.7744c-.0156.0791-.0937.1181-.2353.1181a.9959.9959,0,0,1-.6817-.165l.4473-3.831a7.1287,7.1287,0,0,0,1.6221.2587Q206.8135,8.2358,208.3994,8.3062Z" transform="translate(0 -0.0342)"/><path class="cls-1" d="M228.7686,23.0444a2.7518,2.7518,0,0,0,1.0566-.2236q.5419-.2226.541-.6,0-.0469-.5879-1.5742l-.7051-1.7168a.2618.2618,0,0,0-.164-.0938q-.4482-.0234-2.2578-.0234-1.55,0-2.3731.0234a.197.197,0,0,0-.164.1182l-.7774,1.7861a4.5686,4.5686,0,0,0-.4687,1.4336.6489.6489,0,0,0,.4218.5879,2.2888,2.2888,0,0,0,.7422.2471,5.0847,5.0847,0,0,0,.5508.0351c.0469.0157.07.1407.07.376a1.7649,1.7649,0,0,1-.0469.4932c-.2031-.0157-.6152-.0508-1.2324-.1055-.6211-.0547-1.125-.082-1.5176-.082q-.5859,0-1.41.082t-1.27.1055a.5.5,0,0,1-.0938-.3526c0-.3291.0156-.4931.0469-.4931a3.1437,3.1437,0,0,0,.94-.2471,1.7016,1.7016,0,0,0,.8233-.5049,5.9914,5.9914,0,0,0,.3867-.6943c.1328-.2735.24-.4971.3183-.67l.1172-.2813L226.9111,8.729a.89.89,0,0,1,.8692-.6113.6569.6569,0,0,1,.5644.3056l4.8184,11.918q.4454,1.0811.7754,1.9268a1.1034,1.1034,0,0,0,.7754.5761,3.5173,3.5173,0,0,0,.9648.2c.0625,0,.0938.1328.0938.3994a1.2532,1.2532,0,0,1-.0469.47q-.0937,0-1.4453-.0938-1.3536-.0937-1.9629-.0937-.1641,0-3.5488.1875a.7535.7535,0,0,1-.0957-.4815C228.6729,23.1733,228.7041,23.0444,228.7686,23.0444Zm-3.8555-5.7119c.4707.0469,1.0488.07,1.7383.07q.94,0,1.67-.0468l.07-.1182-1.6934-4.207-1.832,4.207C224.8662,17.3013,224.8818,17.3325,224.9131,17.3325Z" transform="translate(0 -0.0342)"/><path class="cls-1" d="M249.5,11.5024a2.9594,2.9594,0,0,0-.3057-1.6923,1.9006,1.9006,0,0,0-.8818-.47,3.6965,3.6965,0,0,0-.9512-.2119c-.0634,0-.1025-.1289-.1181-.3877a.8956.8956,0,0,1,.0468-.4814q2.1636.1875,3.1036.1875.5874,0,1.6093-.0821t1.3047-.1054a.9348.9348,0,0,1,.0947.4228c0,.2979-.04.4463-.1181.4463a2.4155,2.4155,0,0,0-1.9512.7764,2.9753,2.9753,0,0,0-.3291,1.7158v8.9316q0,.8468.0947,3.2911a1.0492,1.0492,0,0,1-.5879.0937q-.2826,0-.7285-.54l-9.5674-11.8946v9.003a4.5489,4.5489,0,0,0,.1885,1.6689,1.5277,1.5277,0,0,0,.9873.6231,4.6269,4.6269,0,0,0,1.128.2236c.0468,0,.0742.1328.082.3994a1.3932,1.3932,0,0,1-.0352.4932q-.2109,0-1.3867-.0938t-1.7861-.0937q-.6123,0-1.5518.082t-1.3633.1055a.735.735,0,0,1-.07-.4229q0-.4467.07-.4463a3.6339,3.6339,0,0,0,.5411-.0468,2.9908,2.9908,0,0,0,.7753-.27,1.5265,1.5265,0,0,0,.6817-.5762,3.8864,3.8864,0,0,0,.2353-1.7158V11.1968a2.8376,2.8376,0,0,0-.3525-1.669c-.0791-.1093-.3525-.2031-.8232-.2812a6.9588,6.9588,0,0,0-1.0342-.1182c-.0625,0-.1016-.1289-.1172-.3877s.0078-.4189.07-.4814q.3765.0234,1.4932.1054t1.7275.0821a20.1447,20.1447,0,0,0,2.3037-.1875,16.2567,16.2567,0,0,0,1.5625,2.3154q1.1646,1.516,2.9971,3.749t2.915,3.667a5.3615,5.3615,0,0,0,.0469-.9638Z" transform="translate(0 -0.0342)"/></g><g class="cls-2"><path class="cls-1" d="M82.0444,30.0786H71.16v-1.89H95.0889v1.89H84.2036V60.35H82.0444Z" transform="translate(0 -0.0342)"/></g><g class="cls-2"><path class="cls-1" d="M100.4873,60.35V28.189H115.42v1.89H102.646v11.83h11.56V43.752h-11.56V58.4609h13.2695V60.35Z" transform="translate(0 -0.0342)"/></g><g class="cls-2"><path class="cls-1" d="M121.2637,28.189h2.6538l8.6362,14.1235L141.55,28.189h2.3838L133.5889,43.9766l10.39,16.373H141.37L132.1045,45.416,122.4331,60.35h-2.3838L131.0244,43.707Z" transform="translate(0 -0.0342)"/></g><g class="cls-2"><path class="cls-1" d="M158.1943,30.0786H147.31v-1.89h23.93v1.89H160.3535V60.35h-2.1592Z" transform="translate(0 -0.0342)"/></g><g class="cls-2"><path class="cls-1" d="M175.7373,60.35V28.189h2.1592V60.35Z" transform="translate(0 -0.0342)"/></g><g class="cls-2"><path class="cls-1" d="M188.2373,60.35V28.189h2.1592V58.37h14.7988v1.98Z" transform="translate(0 -0.0342)"/></g><g class="cls-2"><path class="cls-1" d="M211.4971,60.35V28.189h14.9336v1.89H213.6562v11.83h11.56V43.752h-11.56V58.4609h13.27V60.35Z" transform="translate(0 -0.0342)"/><path class="cls-1" d="M249.9092,31.0229a16.5938,16.5938,0,0,0-6.5215-1.3945q-6.5683,0-6.5674,4.8584a6.1119,6.1119,0,0,0,1.4844,3.9351,16.2733,16.2733,0,0,0,3.5986,3.2383q2.1138,1.4179,4.2276,2.9013a15.0082,15.0082,0,0,1,3.5986,3.5537,7.5551,7.5551,0,0,1,1.4844,4.4981,7.2957,7.2957,0,0,1-2.7432,6.1846q-2.7451,2.0918-7.5791,2.0917a13.6888,13.6888,0,0,1-8.2539-2.4746l1.0791-1.6191a12.7293,12.7293,0,0,0,7.1064,2.1143,9.7607,9.7607,0,0,0,5.9375-1.5518,5.2541,5.2541,0,0,0,2.0694-4.4756,6.0033,6.0033,0,0,0-1.4844-3.8457,17.2582,17.2582,0,0,0-3.5986-3.2832q-2.1138-1.4619-4.2276-2.9912a15.339,15.339,0,0,1-3.5986-3.6436,7.7576,7.7576,0,0,1-1.4844-4.5424,6.11,6.11,0,0,1,2.3614-5.0606,10.0266,10.0266,0,0,1,6.3876-1.8662,17.4607,17.4607,0,0,1,7.4893,1.6191Z" transform="translate(0 -0.0342)"/></g></g></svg>