<svg id="Layer_1" data-name="Layer 1" xmlns="http://www.w3.org/2000/svg" viewBox="0 0 324.7842 40.3177"><defs><style>.cls-1{isolation:isolate;}.cls-2{fill:#282424;}</style></defs><title>ct-logo-horizontal</title><g class="cls-1"><g class="cls-1"><path class="cls-2" d="M249.3623,19.1953h-5.5664v-.937h12.2363v.937h-5.5664V34.21h-1.1035Z" transform="translate(-11.0566 -7.6145)"/></g><g class="cls-1"><path class="cls-2" d="M258.7959,34.21V18.2583h7.6357v.937h-6.5322V25.063h5.9111v.9145h-5.9111v7.2959h6.7852V34.21Z" transform="translate(-11.0566 -7.6145)"/></g><g class="cls-1"><path class="cls-2" d="M269.4189,18.2583h1.3575l4.416,7.0054,4.6-7.0054h1.2187l-5.289,7.8311,5.3125,8.1206H279.7l-4.7383-7.4068L270.0176,34.21h-1.22l5.6123-8.2549Z" transform="translate(-11.0566 -7.6145)"/></g><g class="cls-1"><path class="cls-2" d="M288.3027,19.1953h-5.5664v-.937h12.2364v.937h-5.5665V34.21h-1.1035Z" transform="translate(-11.0566 -7.6145)"/></g><g class="cls-1"><path class="cls-2" d="M297.2666,34.21V18.2583H298.37V34.21Z" transform="translate(-11.0566 -7.6145)"/></g><g class="cls-1"><path class="cls-2" d="M303.666,34.21V18.2583H304.77v14.97h7.5674V34.21Z" transform="translate(-11.0566 -7.6145)"/></g><g class="cls-1"><path class="cls-2" d="M315.5557,34.21V18.2583h7.6357v.937h-6.5322V25.063H322.57v.9145h-5.9111v7.2959h6.7851V34.21Z" transform="translate(-11.0566 -7.6145)"/><path class="cls-2" d="M335.1738,19.6641a8.7024,8.7024,0,0,0-3.3349-.6919q-3.3575,0-3.3575,2.41a2.9792,2.9792,0,0,0,.7588,1.9522,8.2546,8.2546,0,0,0,1.84,1.6059q1.081.7032,2.1621,1.439a7.5686,7.5686,0,0,1,1.84,1.7627,3.6755,3.6755,0,0,1,.7588,2.2314,3.5753,3.5753,0,0,1-1.4023,3.0674,6.4028,6.4028,0,0,1-3.876,1.0371,7.1581,7.1581,0,0,1-4.2207-1.2275l.5527-.8027a6.6544,6.6544,0,0,0,3.6338,1.0488,5.1123,5.1123,0,0,0,3.0362-.77,2.5784,2.5784,0,0,0,1.0576-2.2207,2.9249,2.9249,0,0,0-.7588-1.9063,8.7325,8.7325,0,0,0-1.84-1.6294q-1.081-.7243-2.1621-1.4834a7.7286,7.7286,0,0,1-1.84-1.8071,3.7709,3.7709,0,0,1-.7588-2.2534,2.9959,2.9959,0,0,1,1.207-2.51,5.2373,5.2373,0,0,1,3.2657-.9258,9.1629,9.1629,0,0,1,3.83.8032Z" transform="translate(-11.0566 -7.6145)"/></g></g><g class="cls-1"><path class="cls-2" d="M69.3125,29.9785a12.1676,12.1676,0,0,1-.3647,1.834q-.3648,1.5043-.5992,1.5986a15.2867,15.2867,0,0,1-5.289.9629,7.1152,7.1152,0,0,1-5.312-2.291,7.5738,7.5738,0,0,1-2.2095-5.4424,8.1056,8.1056,0,0,1,2.2212-5.7236,7.2548,7.2548,0,0,1,5.5356-2.3858,22.9432,22.9432,0,0,1,5.3828.6817,4.5442,4.5442,0,0,1,.294,1.5752q.1758,1.5513.1762,1.9043c0,.2344-.2119.3525-.6347.3525-.0161,0-.1411-.0234-.376-.07a3.9216,3.9216,0,0,0-.3882-.8935A5.1835,5.1835,0,0,0,66.95,21.07a3.8746,3.8746,0,0,0-1.457-.8818,6.0214,6.0214,0,0,0-2.0806-.3408q-4.2078,0-4.2075,6.3a8.9625,8.9625,0,0,0,1.293,4.9482,4.2849,4.2849,0,0,0,6.6757.74,2.9082,2.9082,0,0,0,.5523-.8349c.1645-.3526.29-.6494.376-.8926a1.3824,1.3824,0,0,1,.1528-.3643Q69.2183,29.7441,69.3125,29.9785Z" transform="translate(-11.0566 -7.6145)"/><path class="cls-2" d="M72.7559,32.1182A7.8424,7.8424,0,0,1,70.5347,26.5a7.8842,7.8842,0,0,1,2.2212-5.63,7.2421,7.2421,0,0,1,10.66,0,7.8625,7.8625,0,0,1,2.2334,5.63,7.8208,7.8208,0,0,1-2.2334,5.6182,7.267,7.267,0,0,1-10.66,0Zm4.9712-12.2705a2.676,2.676,0,0,0-2.0684.9052,4.9618,4.9618,0,0,0-1.14,2.2217,12.8908,12.8908,0,0,0-.3174,3.0088,12.47,12.47,0,0,0,.2236,2.3623,11.8521,11.8521,0,0,0,.6816,2.2793,4.394,4.394,0,0,0,1.3282,1.81,3.1492,3.1492,0,0,0,2.0215.6934A2.8222,2.8222,0,0,0,81.1,31.3418a9.8669,9.8669,0,0,0,.8818-4.3955,14.4938,14.4938,0,0,0-.2-2.4561,10.8117,10.8117,0,0,0-.646-2.2568,4.0013,4.0013,0,0,0-1.3164-1.7393A3.4114,3.4114,0,0,0,77.7271,19.8477Z" transform="translate(-11.0566 -7.6145)"/><path class="cls-2" d="M87.0122,22.7158a3.734,3.734,0,0,1,1.5635-3.0088,5.3954,5.3954,0,0,1,3.4433-1.2461,7.772,7.772,0,0,1,1.0225.07c.3525.0469.65.0948.8936.1417s.5795.121,1.0107.2226.7715.1768,1.0225.2236a35.55,35.55,0,0,1,.2583,3.9024.3488.3488,0,0,1-.3526.2344q-.6819,0-.7285-.1641a4.6435,4.6435,0,0,0-1.0107-2.2451,2.575,2.575,0,0,0-2.0923-1.0694,1.96,1.96,0,0,0-1.3516.4932,2.0148,2.0148,0,0,0-.5522,1.5752,1.9471,1.9471,0,0,0,.2348.917,3.2464,3.2464,0,0,0,.7876.917,10.27,10.27,0,0,0,.9048.7051q.3531.2343,1.1519.7519c.1411.0938.2505.1641.3291.2119q.1883.1173.7759.47t.8344.5293a7.92,7.92,0,0,1,.6817.5752,2.9277,2.9277,0,0,1,.6347.788,5.1066,5.1066,0,0,1,.3643,1.0108,5.3874,5.3874,0,0,1,.1645,1.375,3.8172,3.8172,0,0,1-1.5512,3.1142,5.582,5.582,0,0,1-3.5733,1.2344,20.084,20.084,0,0,1-4.4658-.6113,19.6094,19.6094,0,0,1-.3642-2.0567,15.94,15.94,0,0,1-.1763-1.8457q.07-.2343.4228-.2343.7281,0,.752.1406a4.4408,4.4408,0,0,0,1.1758,2.1738,2.9073,2.9073,0,0,0,2.186,1.0938q2.327,0,2.3267-2.5625a1.6246,1.6246,0,0,0-.2115-.7871,2.9088,2.9088,0,0,0-.6347-.7647,9.289,9.289,0,0,0-.752-.61q-.33-.2359-.9287-.6114t-.7637-.4941q-.1179-.07-.3525-.2344-.7756-.5171-1.1753-.8232a8.9365,8.9365,0,0,1-.9287-.8457,3.1668,3.1668,0,0,1-.752-1.1875A4.4677,4.4677,0,0,1,87.0122,22.7158Z" transform="translate(-11.0566 -7.6145)"/><path class="cls-2" d="M102.103,18.79q.4695,0,1.3282-.0586t1.14-.082q.2351.7515,1.9277,4.4307t2.5152,5.7236h.0468q.0469,0,.0469-.0234,1.81-4.49,2.8677-7.4043l.7759-2.6328q.4233.0468,1.9038.0468.1413,0,2.9619-.1406a.67.67,0,0,1,.0942.376q0,.4936-.1176.4932H117.57a1.6717,1.6717,0,0,0-.9873.2822,1.08,1.08,0,0,0-.3291.9638q.047.9405.2349,4.8653t.2353,5.0068a7.3187,7.3187,0,0,0,.3526,2.1631c.0625.1406.27.2822.6225.4229a2.4462,2.4462,0,0,0,.7408.2119c.0625,0,.0937.1562.0937.47a1.319,1.319,0,0,1-.0469.3994q-.2585-.0234-1.3164-.1055t-1.6689-.082q-.6343,0-1.857.082t-1.5512.1055a.5126.5126,0,0,1-.1177-.376c0-.3291.0239-.4931.0708-.4931a2.5171,2.5171,0,0,0,.7993-.2119,1.2108,1.2108,0,0,0,.6577-.4463,1.4089,1.4089,0,0,0,.1885-.6582q0-.5406-.0474-1.3868l-.1879-5.9707a5.1433,5.1433,0,0,0-.188-1.5752c-.0318,0-.07.0557-.1177.1651L109.084,33.4814a1.5217,1.5217,0,0,1-.376.5049.8245.8245,0,0,1-.564.27.7507.7507,0,0,1-.2119-.0468l-5.1709-11.6123-.4,9.05q0,.6825.0235.8466.071.3061,1.0341.6231a5.4041,5.4041,0,0,0,1.27.3174c.0625,0,.0942.1562.0942.47a1.32,1.32,0,0,1-.0473.3994q-.1883,0-1.41-.0937t-1.8335-.0938q-.6115,0-1.6924.082t-1.4575.1055a.59.59,0,0,1-.0938-.3994c0-.2979.0235-.4463.07-.4463a4.6317,4.6317,0,0,0,1.375-.3525q.9521-.3531.999-.8467.0468-.5406.0942-1.1279.07-1.2217.1646-3.6084.0938-2.3848.1645-4.5957.07-2.209.0938-2.5147a1.0861,1.0861,0,0,0-.07-.4228q-.07-.189-.7525-.3409a5.1057,5.1057,0,0,0-.9873-.1533c-.0625,0-.0937-.164-.0937-.4931a.5.5,0,0,1,.0937-.3526q.33.0234,1.211.082T102.103,18.79Z" transform="translate(-11.0566 -7.6145)"/><path class="cls-2" d="M122.0244,32.1182A7.8428,7.8428,0,0,1,119.8032,26.5a7.8846,7.8846,0,0,1,2.2212-5.63,7.2422,7.2422,0,0,1,10.66,0,7.8625,7.8625,0,0,1,2.2334,5.63,7.8208,7.8208,0,0,1-2.2334,5.6182,7.2671,7.2671,0,0,1-10.66,0Zm4.9712-12.2705a2.6761,2.6761,0,0,0-2.0684.9052,4.9618,4.9618,0,0,0-1.14,2.2217,12.8961,12.8961,0,0,0-.3174,3.0088,12.462,12.462,0,0,0,.2237,2.3623,11.845,11.845,0,0,0,.6816,2.2793,4.3938,4.3938,0,0,0,1.3281,1.81,3.1492,3.1492,0,0,0,2.0215.6934,2.8223,2.8223,0,0,0,2.6441-1.7871,9.8683,9.8683,0,0,0,.8818-4.3955,14.4938,14.4938,0,0,0-.2-2.4561,10.8117,10.8117,0,0,0-.646-2.2568,4.0021,4.0021,0,0,0-1.3164-1.7393A3.4119,3.4119,0,0,0,126.9956,19.8477Z" transform="translate(-11.0566 -7.6145)"/><path class="cls-2" d="M139.689,18.72q.6812,0,1.4926-.0351t1.5162-.0352a8.8162,8.8162,0,0,1,2.6088.376,4.7034,4.7034,0,0,1,2.1392,1.3984,3.6488,3.6488,0,0,1,.9165,2.5264,4.3762,4.3762,0,0,1-1.4687,3.291,5,5,0,0,1-3.5616,1.3867,2.4841,2.4841,0,0,1-.7519-.1172,3.0213,3.0213,0,0,1-.5645-.2236.7271.7271,0,0,1-.2348-.1758,1.1272,1.1272,0,0,1-.1177-.5175c-.0156-.25.0156-.376.0942-.376a2.14,2.14,0,0,0,1.0576.1884q1.9746,0,1.9747-3.1972,0-3.22-2.1626-3.22a2.0562,2.0562,0,0,0-1.0811.1875q-.282.2124-.2822,2.3037v8.415a9.0635,9.0635,0,0,0,.1645,1.9277c.0469.1875.3057.337.7759.4463a5.0976,5.0976,0,0,0,1.0576.1651c.0625,0,.0938.1484.0938.4463a1.4262,1.4262,0,0,1-.0469.4228q-2.8206-.1405-3.5962-.1406l-3.4321.1406a.59.59,0,0,1-.0938-.3994c0-.3135.0313-.47.0938-.47a3.7322,3.7322,0,0,0,.8818-.1651q.5991-.1639.67-.3525a9.8182,9.8182,0,0,0,.1407-2.0684V21.9639a8.23,8.23,0,0,0-.1407-1.834c-.0473-.125-.2788-.2666-.6938-.4229a2.9992,2.9992,0,0,0-.8814-.2353c-.0625,0-.0937-.1406-.0937-.4229a.7989.7989,0,0,1,.07-.4463Q138.3487,18.72,139.689,18.72Z" transform="translate(-11.0566 -7.6145)"/><path class="cls-2" d="M151.8062,32.1182A7.8424,7.8424,0,0,1,149.585,26.5a7.8842,7.8842,0,0,1,2.2212-5.63,7.2421,7.2421,0,0,1,10.66,0,7.8625,7.8625,0,0,1,2.2334,5.63,7.8208,7.8208,0,0,1-2.2334,5.6182,7.267,7.267,0,0,1-10.66,0Zm4.9711-12.2705a2.6759,2.6759,0,0,0-2.0683.9052,4.9629,4.9629,0,0,0-1.14,2.2217,12.8965,12.8965,0,0,0-.3173,3.0088,12.47,12.47,0,0,0,.2236,2.3623,11.8521,11.8521,0,0,0,.6816,2.2793,4.394,4.394,0,0,0,1.3282,1.81,3.1491,3.1491,0,0,0,2.0214.6934,2.8222,2.8222,0,0,0,2.6441-1.7871,9.8669,9.8669,0,0,0,.8818-4.3955,14.4938,14.4938,0,0,0-.2-2.4561,10.8117,10.8117,0,0,0-.646-2.2568,4.0013,4.0013,0,0,0-1.3164-1.7393A3.4115,3.4115,0,0,0,156.7773,19.8477Z" transform="translate(-11.0566 -7.6145)"/><path class="cls-2" d="M169.4468,18.79q.47,0,3.291-.1406a1.3287,1.3287,0,0,1,.0708.4229q0,.4467-.0942.4463a3.652,3.652,0,0,0-.8462.2c-.4234.1328-.65.2548-.6817.3642a8.0226,8.0226,0,0,0-.1645,1.8809v8.9082a5.5612,5.5612,0,0,0,.188,1.6924q.1171.3763,1.5986.3759h.6108a5.6114,5.6114,0,0,0,2.6328-.6113,3.3986,3.3986,0,0,0,.9048-.7988,4.48,4.48,0,0,0,.7876-1.3164c.0313-.0938.1411-.1407.3286-.1407a1.1172,1.1172,0,0,1,.7051.1407,31.885,31.885,0,0,0-1.2685,4.0429q-1.34,0-4.1841-.0468t-3.855-.0469l-3.4321.1406a.59.59,0,0,1-.0938-.3994c0-.3135.0313-.47.0938-.47a3.7249,3.7249,0,0,0,.8813-.1651q.6-.1639.67-.3525a9.7726,9.7726,0,0,0,.1412-2.0684v-8.98a4.7354,4.7354,0,0,0-.188-1.7627,1.3726,1.3726,0,0,0-.6582-.3876,2.6324,2.6324,0,0,0-.7994-.2q-.0937,0-.0937-.3995a1.1356,1.1356,0,0,1,.0469-.47Q169.2825,18.79,169.4468,18.79Z" transform="translate(-11.0566 -7.6145)"/><path class="cls-2" d="M181.7871,21.94a5.0573,5.0573,0,0,0-.1875-1.8331,1.3748,1.3748,0,0,0-.6582-.3876,2.63,2.63,0,0,0-.8-.2q-.0937,0-.0937-.3995a1.1385,1.1385,0,0,1,.0468-.47q.3531.0234,1.1289.082t1.1631.07q.3882.0117,1.1162-.0118.47,0,3.291-.1406a1.33,1.33,0,0,1,.0713.4229c0,.2978-.0322.4463-.0947.4463a3.6577,3.6577,0,0,0-.8457.2c-.4238.1328-.65.2548-.6816.3642a5.5015,5.5015,0,0,0-.1182.7871c-.0312.3379-.0469.6231-.0469.8584v9.05a8.7048,8.7048,0,0,0,.1885,2.0684c.0313.1094.2461.2353.6465.376a3.113,3.113,0,0,0,.8105.2119c.0625,0,.0938.1484.0938.4463a1.4228,1.4228,0,0,1-.0469.4228q-.1641,0-1.41-.0937t-1.8575-.0938q-.6342,0-1.8564.082t-1.5518.1055a.5443.5443,0,0,1-.0937-.376c0-.3291.0234-.4931.07-.4931a3.2772,3.2772,0,0,0,.87-.2q.6108-.1992.6816-.3877a8.0489,8.0489,0,0,0,.1641-1.8809Z" transform="translate(-11.0566 -7.6145)"/><path class="cls-2" d="M192.73,18.6963q1.5864.07,2.5742.07t2.5859-.07q1.5982-.07,2.585-.07a7.138,7.138,0,0,0,1.6221-.2588l.4463,3.8545a.9945.9945,0,0,1-.6817.165c-.1406,0-.2187-.039-.2343-.1181q-.5889-2.3262-2.5157-2.3262-1.9042,0-1.998.4228a8.3679,8.3679,0,0,0-.1875,2.0918v8.4854a7.8724,7.8724,0,0,0,.1875,1.9043q.0468.1641.6465.376a3.1073,3.1073,0,0,0,.8115.2119c.0625,0,.0937.1484.0937.4463a1.4268,1.4268,0,0,1-.0468.4228q-.1656,0-1.41-.0937-1.2465-.0937-1.8574-.0938-.6343,0-1.8565.082t-1.5517.1055a.5442.5442,0,0,1-.0938-.376c0-.3291.0235-.4931.07-.4931a3.2721,3.2721,0,0,0,.8692-.2c.4082-.1328.6348-.2617.6816-.3877a7.5821,7.5821,0,0,0,.1651-1.81v-8.51a6.5781,6.5781,0,0,0-.1885-2.1621.79.79,0,0,0-.1289-.2,1.4864,1.4864,0,0,0-.5049-.1406,7.678,7.678,0,0,0-1.293-.082,2.3194,2.3194,0,0,0-1.5752.5283,3.467,3.467,0,0,0-.94,1.7744c-.0156.0791-.0937.1182-.2353.1182a.9957.9957,0,0,1-.6817-.1651l.4473-3.831a7.1293,7.1293,0,0,0,1.622.2588Q191.1437,18.626,192.73,18.6963Z" transform="translate(-11.0566 -7.6145)"/><path class="cls-2" d="M213.0986,33.4346a2.7506,2.7506,0,0,0,1.0567-.2237q.5419-.2226.541-.6,0-.0468-.5879-1.5742l-.7051-1.7168a.2618.2618,0,0,0-.164-.0937q-.4483-.0236-2.2579-.0235-1.55,0-2.373.0235a.1971.1971,0,0,0-.1641.1181l-.7773,1.7862a4.569,4.569,0,0,0-.4688,1.4336.649.649,0,0,0,.4219.5878,2.284,2.284,0,0,0,.7422.2471,5.059,5.059,0,0,0,.5508.0352c.0469.0156.07.1406.07.3759a1.7644,1.7644,0,0,1-.0469.4932c-.2031-.0156-.6152-.0508-1.2324-.1055-.6211-.0546-1.125-.082-1.5176-.082q-.5859,0-1.41.082t-1.27.1055a.5.5,0,0,1-.0937-.3525q0-.4936.0469-.4932a3.1412,3.1412,0,0,0,.94-.2471,1.7007,1.7007,0,0,0,.8232-.5048,6.0077,6.0077,0,0,0,.3868-.6944c.1328-.2734.24-.4971.3183-.67l.1172-.2813,5.1953-11.9414a.89.89,0,0,1,.8692-.6113.657.657,0,0,1,.5644.3057l4.8184,11.9179q.4452,1.0811.7754,1.9268a1.1032,1.1032,0,0,0,.7753.5762,3.5186,3.5186,0,0,0,.9649.2c.0625,0,.0937.1328.0937.3994a1.2535,1.2535,0,0,1-.0468.47q-.0937,0-1.4453-.0937-1.3536-.0937-1.9629-.0938-.1641,0-3.5489.1875a.7538.7538,0,0,1-.0957-.4814C213.0029,33.5635,213.0342,33.4346,213.0986,33.4346Zm-3.8554-5.7119c.4707.0468,1.0488.07,1.7382.07q.94,0,1.67-.0469l.07-.1182-1.6934-4.207-1.832,4.207C209.1963,27.6914,209.2119,27.7227,209.2432,27.7227Z" transform="translate(-11.0566 -7.6145)"/><path class="cls-2" d="M233.83,21.8926a2.96,2.96,0,0,0-.3057-1.6924,1.9,1.9,0,0,0-.8818-.47,3.6965,3.6965,0,0,0-.9512-.2119c-.0635,0-.1025-.129-.1182-.3877a.8957.8957,0,0,1,.0469-.4815q2.1636.1875,3.1035.1875.5874,0,1.6094-.082t1.3047-.1055a.9349.9349,0,0,1,.0947.4229c0,.2978-.04.4463-.1181.4463a2.4153,2.4153,0,0,0-1.9512.7763,2.9744,2.9744,0,0,0-.3291,1.7158v8.9317q0,.8466.0947,3.291a1.0494,1.0494,0,0,1-.5879.0937q-.2828,0-.7285-.54l-9.5674-11.8945v9.0029a4.55,4.55,0,0,0,.1885,1.669,1.5273,1.5273,0,0,0,.9873.623,4.6272,4.6272,0,0,0,1.1279.2236c.0469,0,.0743.1328.0821.3994a1.3932,1.3932,0,0,1-.0352.4932q-.2109,0-1.3867-.0937t-1.7861-.0938q-.6123,0-1.5518.082t-1.3633.1055a.7339.7339,0,0,1-.07-.4228c0-.2979.0234-.4463.07-.4463a3.6341,3.6341,0,0,0,.541-.0469,2.9913,2.9913,0,0,0,.7754-.2705,1.5258,1.5258,0,0,0,.6817-.5762,3.8861,3.8861,0,0,0,.2353-1.7158V21.5869a2.8372,2.8372,0,0,0-.3525-1.6689c-.0791-.1094-.3526-.2032-.8233-.2813a6.9529,6.9529,0,0,0-1.0341-.1181q-.0937,0-.1172-.3877t.07-.4815q.3765.0234,1.4931.1055t1.7276.082a20.1447,20.1447,0,0,0,2.3037-.1875,16.2567,16.2567,0,0,0,1.5625,2.3154q1.1646,1.5162,2.9971,3.7491t2.915,3.667a5.363,5.363,0,0,0,.0469-.9639Z" transform="translate(-11.0566 -7.6145)"/></g><path class="cls-2" d="M30.4365,46.9358c0-.0524.0349-.0931,0,0S30.4365,47.04,30.4365,46.9358Zm-4.14-6.8612a5.7546,5.7546,0,0,0,.89.0523h.3081a14.3225,14.3225,0,0,0,1.7444-.0988c.3721-.0756.82-.1105,1.1629-.1919a1.8069,1.8069,0,0,1,.3721-.0872v7.6926a.1889.1889,0,0,1-.0349-.0465l-.32-.6919-.1279-.25c-.0814-.1569-.18-.3139-.2616-.4767a9.1026,9.1026,0,0,0-.5815-.9071l-.14-.221-.4419-.6744a1.9874,1.9874,0,0,0-.1512-.2326l-.3024-.43c-.1453-.2442-.4884-.6977-.5814-.8838a2.2794,2.2794,0,0,0-.1454-.2326l-.3024-.4419c-.2907-.4361-.75-1.2559-1.0349-1.7444a1.0157,1.0157,0,0,1-.064-.1453Zm4.8784,7.4135V39.7723l2.1863.3546h.5814a3.4426,3.4426,0,0,0,.5815,0c.2384-.0348.6687,0,.8431-.0407a1.8314,1.8314,0,0,1,.2849-.0465,9.8939,9.8939,0,0,1-.5291.942l-1.7793,2.7154a4.9841,4.9841,0,0,0-.2849.4535l-1.4362,2.3258-.3546.7617c-.0466.1047-.0524.1861-.1338.25Zm.4594.0466a17.2134,17.2134,0,0,1,1.0291-1.9886c.2035-.314.378-.5815.5815-.9013l.9129-1.3431c.11-.1745.1977-.2966.3081-.4594l.5815-.9187c.2617-.5058.5349-.82.8431-1.4362.093-.186.18-.32.2733-.4942a7.3693,7.3693,0,0,0,1.2559-.1919l.8722-.2151c.1047,0,.0349,0,.1279-.0523l.43-.128a3.9561,3.9561,0,0,0,.5175-.1977l1.1629-.4709.1395-.064-.2558.43c-.1047.093-.0349.0523-.1047.1744l-.5.7675c-.1221.2268-.7617.9943-.9885,1.2734l-.2616.2966-.2559.3023-1.0989,1.1629a1.6358,1.6358,0,0,0-.1454.1279l-.7384.6862c-.2675.2035-.3431.3256-.5815.5058a.6717.6717,0,0,0-.1511.1338l-1.7444,1.3664a2.2542,2.2542,0,0,0-.314.2442,5.9788,5.9788,0,0,1-.6454.5l-.8489.75c-.1919.1977.0581.1454-.3838.1454ZM21.267,38.6559l1.128.5c.093,0,.0581,0,.14.0349s0,0,.1279.0523c.2733.07.3954.18.692.25s.6628.1918.8315.2325l.9187.1977a3.3991,3.3991,0,0,0,.657.0756,3.6317,3.6317,0,0,1,.2733.4652,3.9031,3.9031,0,0,0,.2849.4826,4.9029,4.9029,0,0,1,.2849.4768c.221.4477.6687,1.0233.8664,1.39l.6861,1.0175a1.1138,1.1138,0,0,1,.07.1047l.4593.6861c.0465.0756.0988.1512.1512.2267.2733.4129.814,1.25,1.0175,1.6514a8.37,8.37,0,0,1,.4826,1.0408h-.2791c-.0407-.14-.2907-.2733-.4128-.3954l-1.3722-1.1164c-.2152-.1628-.3663-.3082-.628-.4942a11.0129,11.0129,0,0,1-.9071-.7443L25.68,43.9238a2.2085,2.2085,0,0,1-.4419-.4012l-.5815-.5175-.2849-.2791c-.0988-.1046-.157-.1918-.2616-.2965l-.5292-.5815c-.2209-.2849-.4128-.43-.6279-.75l-1.6048-2.2793a.2029.2029,0,0,1-.0465-.0756q-.0261-.0541-.0466-.1105Zm10.5417.8373.0465-.0349c.2268-.1454.878-.3082,1.2443-.5292s.7094-.343,1.2095-.6686a10.4688,10.4688,0,0,0,2-1.7444,6.2857,6.2857,0,0,0,.6106-.64l.3837-.5291a1.2225,1.2225,0,0,1,.1454-.1861l-.1105.5815a13.8826,13.8826,0,0,1-.4244,1.5583l-.157.5058c-.0582.1512-.14.2966-.2035.4536a12.9863,12.9863,0,0,1-.6222,1.3606c-.064.0872-.0523.0523-.2558.07l-.5815.064a2.81,2.81,0,0,0-.5814,0c-.14,0-1.3781-.0756-1.5409-.0872l-1.1629-.18ZM24.5464,35.15c.0755.0523.2209.3256.3837.5291l.1279.18.2733.3372a9.4671,9.4671,0,0,0,.9187.9652l.8489.6978a8.3431,8.3431,0,0,0,.7443.5,9.2523,9.2523,0,0,0,1,.5815,10.4019,10.4019,0,0,0,1.3373.5407v.0524c-.2442,0-1.11.2267-1.7443.2267h-.6338a4.7683,4.7683,0,0,0-.628,0,4.8994,4.8994,0,0,1-1.0233-.0872h-.0931c-.0349,0-.2267-.5-.3256-.6745s-.5814-1.4594-.657-1.6571L24.7673,36.33c-.1221-.3722-.1454-.9769-.2151-1.1281Zm6.6285,4.07V35.6091c.1686.0348.2907.0872.4943.1162s.36.0407.5814.064a11.3739,11.3739,0,0,0,1.1629.0988c.1744,0,.3489-.0407.5117-.0523a9.0078,9.0078,0,0,0,1.2327-.1628l1.1164-.3256c.1453-.0581.25-.1105.3953-.1628l.4013-.1861a2.4367,2.4367,0,0,1-.314.4477l-.0931.14a19.0864,19.0864,0,0,1-1.3955,1.4362,9.5973,9.5973,0,0,1-1.849,1.2966l-.6279.314a4.0792,4.0792,0,0,1-.6745.2907l-.942.3257Zm-6.1983-4.1981.8024.314a3.3144,3.3144,0,0,1,.4071.1511l.436.1222a5.2371,5.2371,0,0,0,.9362.186,3.6586,3.6586,0,0,0,.5175.0407c.1686,0,.3372.0523.5058.0523a11.5709,11.5709,0,0,0,1.9363-.2035,2.13,2.13,0,0,1,.25-.0523v3.5818l-.9245-.32c-.3082-.1221-.5815-.2617-.8664-.3838a10.5469,10.5469,0,0,1-1.5524-.9071,10.8881,10.8881,0,0,1-1.0176-.8373,2.8325,2.8325,0,0,0-.314-.3256.4707.4707,0,0,1-.1453-.157l-.2908-.32a1.4123,1.4123,0,0,1-.14-.186,5.2414,5.2414,0,0,1-.5408-.7327Zm8.3323.4593c-.6513,0-1.163-.1511-1.5758-.1511.0582-.0814.11-.07.2093-.1221a7.0855,7.0855,0,0,0,1.0874-.5815,1.7421,1.7421,0,0,0,.3779-.3024l.6338.2094a10.377,10.377,0,0,0,2.2386.3488l-.1279.0756-.1628.064-1.43.3489a7.5342,7.5342,0,0,1-1.25.1221ZM25.64,34.8473a8.8414,8.8414,0,0,0,2.5991-.4244l.32-.1105c.1337.0872.18.157.3954.2849s.6686.4245.8663.5117a1.3847,1.3847,0,0,1,.4652.221,2.3821,2.3821,0,0,0-.3838.0465,7.3775,7.3775,0,0,1-2.477,0,1.1642,1.1642,0,0,1-.1976,0Zm5.5761.18V32.9169c.1338.0872.2675.2442.3954.3431s.14.093.221.157.1337.1046.2209.1628.2907.1919.4535.2849a3.7023,3.7023,0,0,0,.5117.2442l-.8373.5815-.4593.1976a2.7354,2.7354,0,0,1-.5059.18Zm-2.2269-.9129a2.3264,2.3264,0,0,0,.4942-.2442,8.4629,8.4629,0,0,0,1.0989-.7791c.07-.07.1163-.1454.2094-.1687v2.1282a7.334,7.334,0,0,1-1.1629-.5175A3.0909,3.0909,0,0,1,28.9887,34.1147Zm8.14-3.4887.1744.4884c.0349.1628.0931.3256.1221.4884s.064.3431.0873.5234.07.39.0755.5814v1.2036c0,.14,0,.39-.1279.4652l-.1628.07a8.4588,8.4588,0,0,1-1.913-.0348,2.086,2.086,0,0,1-.32-.064l-.93-.2326a1.3578,1.3578,0,0,0-.32-.0872c0-.093.1977-.2384.2849-.3256l.0582-.0465h0l.0349-.0407c.1395-.1512.2558-.2908.3954-.4478a6.47,6.47,0,0,0,.5814-.8779c.0291-.0756,0-.1105.07-.1629s.1628-.07.2674-.14a7.6633,7.6633,0,0,0,.9827-.6919l.2384-.1977a2.1728,2.1728,0,0,0,.3838-.4536Zm-.75,8.966a4.1087,4.1087,0,0,0,.3722-.7966c.0755-.2384.2732-.5814.3721-.8256s.1686-.5815.2965-.8722l.2384-.9478a9.0251,9.0251,0,0,0,.1919-.9885c0-.0872.0349-.2907.0349-.3663a3.8325,3.8325,0,0,0,.6628-.0988c.5408-.0989,1.0408-.2384,1.57-.39a2.7918,2.7918,0,0,0,.314-.093,2.3291,2.3291,0,0,1,.2849-.0989,7.66,7.66,0,0,0,.8547-.3372l.2617-.1163.2791-.1279c.2558-.1221.2732-.1047.5407-.2442a15.17,15.17,0,0,1-.3372,1.6164,4.9764,4.9764,0,0,1-.1745.61,3.1677,3.1677,0,0,0-.1453.4419c0,.0872-.0349.0407-.064.1338s0,.0814-.0465.1569l-.1628.4245a8.0083,8.0083,0,0,1-.5,1.0757c-.0872.1337-.0349.2035-.11.2907s-.1745.07-.2733.1105l-.5175.2675a10.1128,10.1128,0,0,1-1.1164.4593l-.5815.2035a.4589.4589,0,0,1-.1511.0524.6931.6931,0,0,0-.157.0465,3.7443,3.7443,0,0,1-.6222.1628,5.1718,5.1718,0,0,1-.64.1512l-.6687.1162ZM24.3952,33.196a10.9356,10.9356,0,0,1,.1977-1.7094,1.2765,1.2765,0,0,1,.0756-.3024c.0465-.2442.1453-.4768.157-.5815.18.1221.4884.5117.6279.6164s.1512.1279.2384.1919a4.8827,4.8827,0,0,0,.75.5233.8709.8709,0,0,0,.1221.0756.5059.5059,0,0,1,.1977.0872h0c.064.0814,0,.1279.093.2384s.0582.07.0872.1163l.4419.6686c.07.0931.1222.14.1861.221a2.7287,2.7287,0,0,0,.4128.4535c.0873.0872.1454.0989.221.2093-.157.0407-.2791.0989-.4477.14a11.742,11.742,0,0,1-1.5525.2791,8.6125,8.6125,0,0,1-1.1629,0c-.1512,0-.0872.0407-.25,0a.46.46,0,0,1-.3082-.1512l-.0291-.0465a1.7432,1.7432,0,0,1,0-.6629,3.4951,3.4951,0,0,0,0-.3546Zm-5.0587.0524a1.7886,1.7886,0,0,1,.5233.2383,18.2178,18.2178,0,0,0,1.6979.6629c.1163.0349.1861.0814.2733.1105s.2093.0465.3023.0756a4.185,4.185,0,0,0,.6164.1744c.407.0581,1.0291.2326,1.3373.2326a3.6067,3.6067,0,0,0,.0989.6919l.0639.32a2.8987,2.8987,0,0,0,.0582.3489,15.0848,15.0848,0,0,0,.4477,1.5059l.4477,1.1571a2.281,2.281,0,0,0,.1861.4245l.1977.4128a7.3588,7.3588,0,0,1-.942-.1977l-.3489-.0639-1.2094-.3605-1.1222-.4536a3.2891,3.2891,0,0,1-.407-.1744l-.2559-.1279a.6808.6808,0,0,1-.1279-.0756c-.2616-.1512-.2442.064-.3895-.3954l-.2617-.5233-.1163-.2965c-.0465-.0989-.07-.1745-.1105-.2733s-.0407-.0814-.0639-.14a1.0846,1.0846,0,0,1-.0582-.1453l-.1511-.4361a.5278.5278,0,0,1-.0582-.14.154.154,0,0,0-.0465-.1337c-.0582-.221-.1628-.4594-.2326-.7559l-.2268-.9652a5.54,5.54,0,0,0-.1162-.6745Zm14.0247.5814-.2733-.1337-.2617-.1454a1.962,1.962,0,0,1-.2674-.1395l-.7385-.4594c-.0756-.0581-.1395-.1337-.2093-.1977s-.18-.1453-.2093-.2209a2.0029,2.0029,0,0,0,.3663.0872c.0814,0,.11.0407.18.0523a1.6868,1.6868,0,0,0,.2442,0c.1453,0,.2616.0465.43.0523s.14,0,.2094,0a8.4334,8.4334,0,0,0,1.0466-.1337l.75-.2209a4.4916,4.4916,0,0,1-.7327.971l-.5349.5Zm-2.7968-1.32a3.4343,3.4343,0,0,1-.657.5815,6.9784,6.9784,0,0,1-1.2967.7558,3.8667,3.8667,0,0,0-.5059-.4884,5.8136,5.8136,0,0,1-.6919-.9594,5.56,5.56,0,0,1,.7152.1745,4.8106,4.8106,0,0,0,2.0583,0,2.3979,2.3979,0,0,1,.378-.0756Zm-6.9077,1.7444-1.8374-.4419-.7326-.2675a2.1959,2.1959,0,0,1-.4768-.1744l-1.1106-.5175c-.2849-.1512-.2674-.18-.2616-.4012l-.0523-.9362v-.3081c0-.4071.0581-1.1629.0988-1.5525a8.4724,8.4724,0,0,1,.18-1.1629v.0523a.38.38,0,0,1,0,.0523l.7965,1.8491a9.3757,9.3757,0,0,0,.5815.9535l.82,1.0641c.07.07.0756.093.14.1628a10.9344,10.9344,0,0,0,1.5118,1.378,1.9926,1.9926,0,0,1,.3547.2791Zm14.6294.029a11.2381,11.2381,0,0,0,1.0117-.82l.3314-.3024a1.8886,1.8886,0,0,1,.1338-.1686l.4186-.3954h0a9.8885,9.8885,0,0,0,.89-1.07l.849-1.4828a.9065.9065,0,0,0,.1511-.3081l.2791-.6571c.0349-.0756.0582-.1453.0873-.2151a.5355.5355,0,0,1,.0988-.2326l.2384,1.4129a5.9424,5.9424,0,0,0,.0465.9362c.0349.2326-.0581,1.2385-.0639,1.5408s0,.221-.2908.3722l-1.5815.7035a15.16,15.16,0,0,1-2.5991.7036Zm-7.1112-2.6165V29.8643c.1686,0,.3373.18.5815.2035a3.8047,3.8047,0,0,1-.4419,1.46C31.2389,31.6494,31.2389,31.6494,31.1749,31.6668Zm-7.6228-3.198c.0581.0349.32.6861.4477.9013a4.7762,4.7762,0,0,0,.25.407c.3663.5465.3024.3023.0814,1.064a9.09,9.09,0,0,0-.2849,1.413c-.0407.2849,0,.5814-.0581.8082a1.6576,1.6576,0,0,1-.18-.4826,7.94,7.94,0,0,1-.2616-1.0524c-.0931-.4885-.0814-.8025-.128-1.2269a7.9371,7.9371,0,0,1,.064-1.2211,5.1379,5.1379,0,0,0,.07-.5814Zm6.6809,1.6746c0-.0814.0407-.064.11-.093l.1512-.0524a2.39,2.39,0,0,0,.2733-.1337v1.8548l-.3372-.7035A4.5993,4.5993,0,0,1,30.233,30.1434Zm1.628,1.2443a5.9679,5.9679,0,0,0,.3024-1.192h.5814a2.86,2.86,0,0,1-.89,1.2153Zm6.1227,1.8083a7.0128,7.0128,0,0,0-.2674-2.0467c-.0524-.157-.14-.5814-.2094-.7559s-.0523-.07-.0407-.1337l.314-.4419a.7359.7359,0,0,0,.07-.1337l.471-.878a1.474,1.474,0,0,1,.1163-.285l.11.7036a8.2951,8.2951,0,0,1,0,1.2211,8.6265,8.6265,0,0,1-.2267,1.6629,1.3928,1.3928,0,0,1-.0582.1686.3371.3371,0,0,1-.0465.2094l-.18.5291a.158.158,0,0,1-.0349.093l-.0407.0872Zm-8.7218-3.0526a2.3283,2.3283,0,0,0,.5815,0,4.6506,4.6506,0,0,0,.3082,1.2152,3.647,3.647,0,0,1-.5059-.5814l-.314-.471a1.8669,1.8669,0,0,1-.07-.2151ZM26.57,29.8178a4.2593,4.2593,0,0,1,.1744-1.5234h.0582a.2442.2442,0,0,0,.0581.1744,4.5505,4.5505,0,0,0,.9827,1.099l.4186.2616a1.4547,1.4547,0,0,1,.1687.064,1.07,1.07,0,0,0,.3546.1279,2.9568,2.9568,0,0,0,.2908.6745c.1279.1919.25.3954.3895.5814a3.5849,3.5849,0,0,0,.9187.785c.1163.0465.1163,0,.18.0756a6.9745,6.9745,0,0,1-1.2966.18c-.2326,0-.3838-.0407-.5815-.0523a4.5393,4.5393,0,0,1-1.0524-.2384h-.1221a3.4066,3.4066,0,0,0-.3722-.1395c-.14-.0349-.0814-.0582-.1163-.1919a1.5515,1.5515,0,0,0-.1046-.2268,9.84,9.84,0,0,1-.2791-1.0117,4.0226,4.0226,0,0,1-.0582-.5815Zm6.3262,2.4886-.814-.0523a5.3739,5.3739,0,0,1-.5815-.128c.064-.0872.0349,0,.1628-.0639a.4952.4952,0,0,0,.1628-.093l.39-.32a2.0113,2.0113,0,0,0,.4768-.4885c.0407-.0523.07-.0756.1163-.14a3.0393,3.0393,0,0,0,.4245-.9769,2.9529,2.9529,0,0,0,.9535-.4651,3.0244,3.0244,0,0,0,.5-.4419,3.7623,3.7623,0,0,0,.5175-.68c.0407-.0989,0-.1105.0872-.1628,0,.407.1744.8373.1744,1.2908,0,.2442-.0523.39-.0523.5815a1.5948,1.5948,0,0,1-.0988.5814,5.03,5.03,0,0,1-.18.6338.6883.6883,0,0,0-.0639.1163c-.1454.4361.0348.2558-.18.3256h-.0349a4.8186,4.8186,0,0,1-1.9769.4593Zm-.3488,15.1817a7.7191,7.7191,0,0,1,.9128-.7617l1.89-1.4885c.43-.32.82-.6861,1.2385-1.0233l.436-.4012c.064-.0582.0873-.064.1512-.128l.5815-.5465c.0581-.0582.0639-.0931.1221-.157l1.07-1.1629a10.7571,10.7571,0,0,0,.7734-.93l.721-.9594a8.0731,8.0731,0,0,0,.4419-.6978c.1163-.25.3023-.4593.4186-.7035.0524-.1222,0-.1338.0814-.221s.1047,0,.3664-.1977l2.3258-1.5932c.11-.0872.1977-.1628.3081-.2442.3722-.2791.7094-.6338,1.0525-.93l.07-.0582.07-.0814,1.506-1.5931.1279-.157a1.5335,1.5335,0,0,1,.1337-.1454l.25-.3024c.1337-.1453.2383-.32.3721-.4709l.25-.3024c.3024-.343.5815-.7617.8606-1.1222l.4012-.4826c.2558-.3082.4709-.6454.7268-.9478a1.58,1.58,0,0,1,.2733-.314c0,.1512-.0407.3489-.0524.5059a14.6007,14.6007,0,0,1-.3663,2.4014l-.2384.9071c-.0523.1744-.0581.2791-.1221.4419s-.1221.4361-.2151.6221c-.1512.32-.2094.7094-.378,1.0408-.093.1919-.1512.4071-.2442.5815L47.7,38.086q-.0523.0932-.1047.1745l-1.6687,2.2909c-.2675.2965-.5059.5815-.7908.89-.1454.1454-.2733.3024-.43.4361l-.7093.68a2.5615,2.5615,0,0,1-.3315.2791l-1.2617,1a8.7293,8.7293,0,0,1-.8257.5815c-.1861.0988-.343.2209-.5291.3314s-.2151.1512-.3373.2268l-2.6514,1.2791c-.1163.0524-.2965.0989-.4244.14-.3257.11-.221.093-.628.2093l-.2093.07c-.157.0407-.2849.0872-.4419.1395a15.5721,15.5721,0,0,1-2.8026.5815,8.0118,8.0118,0,0,1-1.0234.1163ZM11.516,29.3352a3.7714,3.7714,0,0,1,.5175.5814c.2442.314.4652.6454.7326.942l.2384.32.2442.32,1.3723,1.7443c.5116.5466,1.3547,1.57,1.89,2.0409l2.006,1.68,1.3548.9071c.1046.07.2326.1337.3488.2035.5815.3314.2094,0,.5815.5815.0756.1221.1337.2325.2093.3546l.2093.3489c.0407.07.0582.1047.1047.1745.2093.3372.878,1.2617,1.0583,1.4827l.4767.657.14.14c.0581.0639.064.0872.1279.1511l.1279.1512.5815.5815c.1512.1279.2442.32.3954.4419a2.3274,2.3274,0,0,1,.3023.2849c.064.0639.0872.07.1512.1279s.2733.2907.4245.4128l1.2385,1.0234.3081.25.4594.4012c.3082.2559.6454.471.9477.7268l.4943.3722c.0581.0465.0872.0872.1453.1337l.314.2442a3.5283,3.5283,0,0,1,.4536.4128,23.2909,23.2909,0,0,1-2.4421-.3547,1.6968,1.6968,0,0,1-.4419-.11c-.157-.0407-.1338-.0349-.2268-.0582a11.1071,11.1071,0,0,1-1.1222-.2965,2.6922,2.6922,0,0,0-.4187-.14l-.1977-.0814-.2093-.0756a16.2548,16.2548,0,0,1-1.6222-.6686l-.1745-.0989c-.0639-.0349-.1453-.0465-.2209-.0872a16.6207,16.6207,0,0,1-1.6339-.9071c-.0581-.0348-.093-.07-.1628-.1163-.36-.2151-.6687-.4419-1.0175-.6861a10.9016,10.9016,0,0,1-1.2676-1.0117l-1.442-1.3722c-.1919-.1919-.3489-.4012-.5233-.5815a10.8667,10.8667,0,0,1-.7559-.9245c-.0814-.1163-.157-.2093-.2384-.314s-.1744-.2151-.2559-.3314a10.6434,10.6434,0,0,1-.8721-1.39c-.1221-.2442-.2849-.4593-.407-.7093s-.2675-.4826-.39-.7734c-.2268-.5465-.471-1.0175-.68-1.5873-.0465-.1338-.0931-.2733-.1454-.4071a17.7685,17.7685,0,0,1-.8315-3.134,3.7754,3.7754,0,0,1-.0872-.4535,3.2108,3.2108,0,0,0-.0756-.4826L11.51,29.3352Zm20.0369-.4536.0814.1745a1.1107,1.1107,0,0,0,.07.2093,2.1636,2.1636,0,0,1,.0814.4535,1.1224,1.1224,0,0,1-.5116-.2558A1.35,1.35,0,0,0,31.5529,28.8816Zm-1.2618.7792a2.8472,2.8472,0,0,1,.0989-.7792h.0465a1.2107,1.2107,0,0,0,.2558.535,3.7863,3.7863,0,0,1-.43.2267ZM30.012,28.8a6.0192,6.0192,0,0,0-.157.942,1.5768,1.5768,0,0,1-.7617-.0523v-.6862a1.3476,1.3476,0,0,0,.4884-.0755,3.09,3.09,0,0,1,.4536-.128Zm2.006,0a3.4829,3.4829,0,0,0,.7327.2035h.2325a.8011.8011,0,0,1,0,.4536,1.3285,1.3285,0,0,0,0,.2791,1.5878,1.5878,0,0,1-.7617.0523,2.278,2.278,0,0,0-.1744-.9885ZM27.57,28.7246a7.7318,7.7318,0,0,0,1.0931.2559v.5814a5.29,5.29,0,0,1-.6221-.3372,2.3646,2.3646,0,0,1-.4942-.5Zm14.1933,8.8788a2.7046,2.7046,0,0,1,.1686-.3954l.1279-.279c.1279-.2326.0465-.18.1163-.32s.0465-.0407.0814-.1919.1105-.2559.1512-.4129a3.441,3.441,0,0,1,.1395-.4186,10.9166,10.9166,0,0,0,.285-1.1048,1.3033,1.3033,0,0,1,.0523-.2325l.1744-.942a.46.46,0,0,1,.0407-.2326.2514.2514,0,0,1,.1512-.1337l1.2443-.7152a1.8069,1.8069,0,0,1,.3373-.221l3.5236-2.39.3546-.2035a6.7709,6.7709,0,0,1,1.2385-.7152l.5815-.2908v.3082A13.9471,13.9471,0,0,0,49.0488,30.51l-.4884.628a1.4709,1.4709,0,0,1-.1105.14h0l-.0349.0407-.2965.4129c-.128.1686-.5117.5814-.6164.7558l-1.4071,1.64-1.442,1.3955a19.0384,19.0384,0,0,1-1.5408,1.2269c-.1105.0756-.2036.1337-.314.221l-.5.3372-.1686.1105-.1686.11a.5061.5061,0,0,1-.1977.0873Zm-7.21-8.9311a.88.88,0,0,1-.1221.1338,1.6019,1.6019,0,0,1-.128.1511,3.0681,3.0681,0,0,1-.971.628,1.2453,1.2453,0,0,0,.0291-.5815,7.6938,7.6938,0,0,0,1.1629-.3081Zm-23.0837-.25a3.7351,3.7351,0,0,1,.4942.2326,2.2121,2.2121,0,0,1,.2733.11l.2384.1453c.1454.0872.5814.314.7094.407a.8143.8143,0,0,0,.2442.1454,3.4119,3.4119,0,0,1,.4419.2907l.4651.3024a1.4225,1.4225,0,0,1,.2036.1512L17.0165,31.87c.0814.0582.11.0989.1977.157l1.5234.9245a.1865.1865,0,0,0,.1454.0582l.5815,2.6049c0,.07,0,.0349.0581.1221l.2907.8547c.0407.1919.0465.0407.1221.2558.0407.0989.064.18.1047.2733a.6851.6851,0,0,0,.1163.2675l.1163.2675a13.3318,13.3318,0,0,1-1.3432-.8664,13.7024,13.7024,0,0,1-1.2443-.9943l-.2849-.25c-.064-.0465-.0872-.0814-.1512-.1279l-.86-.8141c-.1686-.2151-.5815-.5814-.68-.7151a2.315,2.315,0,0,0-.2559-.3024l-1.5117-1.82-.2326-.32-.2791-.3372-.4768-.5814c-.093-.1047-.1628-.1977-.25-.314s-.1454-.2094-.2326-.3256a1.65,1.65,0,0,0-.1163-.1629l-.7733-.9012c-.064-.0872-.0291-.11-.157-.1221l.029-.25Zm19.7054.0988h0v.128h0Zm0-.2267h0v.1221h0Zm1.4711-.2326.2326.5117a4.6553,4.6553,0,0,1-.8141-.18h.0349a1.9518,1.9518,0,0,0,.5292-.3081Zm-3.4887.5117a1.29,1.29,0,0,1,.2326-.5117,1.1976,1.1976,0,0,0,.5814.2791,2.39,2.39,0,0,1-.8431.2326Zm6.553-.3547a5.9794,5.9794,0,0,1,1.0349,1.43c.0524.0988.0756.1744.128.2791a1.3657,1.3657,0,0,1,.1337.2965c-.1105,0-.1686.18-.32.3372a4.9913,4.9913,0,0,1-1.1629.9071.5793.5793,0,0,1,.0581-.2035l.1745-.6338a2.9859,2.9859,0,0,0,.0523-.4826,3.2871,3.2871,0,0,0-.0174-1.2676c-.0349-.1977-.07-.43-.0989-.6337Zm-9.5649,1.064a6.072,6.072,0,0,0,.0407,1.0292,7.8727,7.8727,0,0,0,.2907,1.1629,6.17,6.17,0,0,1-1.3141-1.0989,1.1588,1.1588,0,0,1-.0756-.1047c-.0407-.0465-.0523-.0407-.0872-.093l.2675-.5815a4.4606,4.4606,0,0,1,.4012-.64,3.9491,3.9491,0,0,1,.68-.82A4.7844,4.7844,0,0,0,26.1454,29.3Zm17.0191,3.25L43.24,31.37a4.4775,4.4775,0,0,0,0-.5815,7.05,7.05,0,0,0-.1919-1.6862l-.1628-1.1106h7.6461l-.2442.11c-.1047.0407-.1745.0756-.2617.1163s-.1395.0872-.2267.1279a8.7182,8.7182,0,0,0-1.413.8257,3.3947,3.3947,0,0,0-.3547.2093l-.1046.07c-.0814.0581-.1338.1046-.221.1628l-.8954.5814c-.1512.1163-.2733.1977-.4361.3024s-.1221.0988-.2035.1512L45.938,30.8l-.1105.07-.5814.378c-.093.0581-.1454.0988-.2268.1569l-1.8548,1.1164Zm-5.0063,1.3489a.8573.8573,0,0,1,.0872-.1977l.0814-.2209.314-.8547a14.0711,14.0711,0,0,0,.3721-2.0177V30.33a4.27,4.27,0,0,0,0-.82c0-.4186-.2268-1.4245-.2268-1.5234h3.5411l-.9187,2.2095a7.2138,7.2138,0,0,1-.4652.8024l-.25.3838A8.65,8.65,0,0,1,39.53,32.7192c-.1628.157-.6338.6513-.785.7617s-.1221.0756-.1977.1338l-.3721.2674Zm-2.1049-5.8959h2.1572c-.0814.157-.1221.314-.1977.4884a8.7573,8.7573,0,0,1-.4652.9362l-.0755.0988a1.0972,1.0972,0,0,1-.0582.1163c-.07.1163-.0872.1686-.1686.1919a5.1457,5.1457,0,0,0-.68-1.1978,2.1192,2.1192,0,0,1-.1686-.2151C36.1929,28.1141,36.1231,28.0909,36.0533,27.9862Zm-3,0h1.89l-.18.0989a3.9964,3.9964,0,0,1-1.4711.4884,1.24,1.24,0,0,1-.0523-.157l-.1221-.2849c0-.0582-.0524-.0873-.0814-.1454Zm-1.5466,0Zm-1.4014,0Zm-3.0933,0h1.9537a1.193,1.193,0,0,0-.1628.2965c-.1454.43-.0407.3315-.5815.221a2.3292,2.3292,0,0,1-.4419-.1163,4.9489,4.9489,0,0,0-.5814-.2849C27.064,28.0618,27.0815,28.1025,27.0117,27.9862Zm-3.2038,0h2.1339l-.343.3954a6.0277,6.0277,0,0,0-.4652.6745,3.3036,3.3036,0,0,0-.3837.7559h-.0524c-.0349-.1454-.3721-.5815-.4884-.8548-.0756-.1744-.1279-.314-.2035-.4826Zm-4.1167,0H23.273a1.9906,1.9906,0,0,1-.0872.3431c-.0291.1453-.0291.2384-.0466.3837-.0407.2617-.0872.5291-.1162.7734v1.2617c.0348.3372.1686,1.2211.25,1.5292a.7761.7761,0,0,0,.0523.18l.3314.9884a2.6166,2.6166,0,0,1,.2035.4827,10.8113,10.8113,0,0,1-1.064-.82,9.3077,9.3077,0,0,1-1.1629-1.3431l-1-1.5176c-.064-.14-.1279-.2966-.1977-.4361A5.2936,5.2936,0,0,1,20.04,28.94a1.4826,1.4826,0,0,1-.0756-.2268,1.58,1.58,0,0,0-.093-.2384,4.7611,4.7611,0,0,0-.1512-.4884Zm-8.2275,0h7.6984a2.0083,2.0083,0,0,1-.0814.3489L18.883,29.44c-.0523.4652-.1279,1.2153-.1279,1.6921v.7152c0,.2442.0523.4593.0523.6861l-1.3955-.8141a9.9728,9.9728,0,0,0-.9012-.5814c-.32-.1686-.8955-.6338-1.099-.75l-.2384-.1919-1.0524-.7326-.2268-.1512L13.429,29.01c-.2559-.18-.7327-.4012-.9478-.5466L11.4637,27.98Zm25.8048-2.2095c.0931.0291.0524.0291.1512.18l.1454.2094a1.6106,1.6106,0,0,1,.1686.3372.8117.8117,0,0,1,.0756.1047c.0465.0756.064.1453.1047.2267l.2093.471a1.5042,1.5042,0,0,0,.0872.2733H36.0533c.093-.1454.2442-.221.3431-.39l.32-.4419a4.7349,4.7349,0,0,0,.4128-.7035,1.7763,1.7763,0,0,0,.1163-.2675ZM33.303,27.05a3.0807,3.0807,0,0,1,1.3083.343l.3721.1861h-1.93A1.9415,1.9415,0,0,0,33.28,27.05Zm-1.57.5058H31.53C31.5761,27.492,31.5761,27.5559,31.7331,27.5559Zm-3.0526-.5814c.0756,0,.0814.0523.1047.1046l.18.4536H27.0582c.0466-.064.0814-.0582.1628-.0931s.11-.0639.18-.0988a3.5459,3.5459,0,0,1,1.2559-.3663Zm-3.96-1.2211.4186.721.8024,1.0583H23.837a1.1024,1.1024,0,0,1,.0872-.2442,2.3276,2.3276,0,0,1,.1977-.4594,1.6351,1.6351,0,0,0,.0988-.2326,4.477,4.477,0,0,1,.2384-.4186l.2384-.4245Zm6.5006,1.2211h0v.1628h0Zm1.4479.5058a1.1635,1.1635,0,0,0-.5815-.2791c.0581-.0755.2384-.11.3489-.1337a1.4377,1.4377,0,0,1,.4419-.07l-.2326.4826Zm-3.4888-.5058a1.8649,1.8649,0,0,1,.8141.2035,1.1289,1.1289,0,0,0-.5815.2791c-.0291-.0931-.0756-.1163-.1163-.2152s-.0523-.1918-.0872-.2674Zm3.7562-.3838a1.5379,1.5379,0,0,0-.4826.0523,2.7885,2.7885,0,0,0-.407.128,4.818,4.818,0,0,0,.18-.9885l.6744.0349c.064.0407.0291.0523.0582.2442a.9134.9134,0,0,1,0,.5291Zm-3.8608-.2791c0-.5814,0-.4942.2267-.5117a5.0193,5.0193,0,0,1,.5117,0,5.3619,5.3619,0,0,0,.18.9362,2.5169,2.5169,0,0,1-.36-.0931,1.6643,1.6643,0,0,0-.5815-.0581v-.2558Zm-1.5467.5117c.157-.2326.093-.11.2326-.25a2.4823,2.4823,0,0,1,.9071-.5815v.5815a6.3533,6.3533,0,0,0-1.1164.2558Zm5.8436-.8373a3.1338,3.1338,0,0,1,1.1629.9129,3.9661,3.9661,0,0,0-.5814-.18,4.9154,4.9154,0,0,0-.6338-.0988V25.986Zm-3.1282-.1279a3.4888,3.4888,0,0,1,.4826.25l-.3256.5815a2.3306,2.3306,0,0,0-.0989-.3838,1.3615,1.3615,0,0,1-.0581-.4245Zm1.349.8373c0-.2442-.25-.4768-.2791-.5815a1.2928,1.2928,0,0,1,.2326-.14c.1046-.0465.18-.064.2732-.11a1.8458,1.8458,0,0,1-.0756.4535.8108.8108,0,0,1-.0581.1977c-.0233.0756-.0291.14-.093.1861Zm-.7908-2.948v1.93L30.547,25.55a.7443.7443,0,0,0-.3024-.0988,3.4874,3.4874,0,0,1,.1919-.9245c.1453-.3722.186-.3489.3081-.6862C30.7912,23.73,30.71,23.84,30.8028,23.7474Zm.407,1.93.0523-1.93c0,.221.1221.1919.2384.5233.07.2035.1338.3954.1861.5815,0,.0872.1919.5117.0872.5814a.9429.9429,0,0,1-.2791.1047,2.7959,2.7959,0,0,1-.2849.1221ZM37.46,25.3h0a.0628.0628,0,0,0,0-.0349,16.6017,16.6017,0,0,0,.43-1.6281l.07-.7907V22.41l.07.14a11.0448,11.0448,0,0,1,.4012,1.2211,2.48,2.48,0,0,0,.0755.36l.0756.8314a6.12,6.12,0,0,1-.0814,1.7735.92.92,0,0,1-.07.314,4.1231,4.1231,0,0,0-.43-.9187,6.9649,6.9649,0,0,0-.535-.8082ZM23.5928,27.0442l-.0407-.1162a1.3618,1.3618,0,0,0,0-.1512,8.9527,8.9527,0,0,1-.0872-1.8142,13.0521,13.0521,0,0,1,.1918-1.378l.2384-.878c.064-.1686.0524-.2268.1279-.2791a8.8513,8.8513,0,0,0,.4187,2.5526c.1395.4419.2093.1919-.157.7326-.1221.1861-.2209.407-.3721.64a.9258.9258,0,0,0-.1105.2442,2.6939,2.6939,0,0,0-.2093.4768ZM31.9134,24.23a2.7558,2.7558,0,0,1,.7035.8431,2.6687,2.6687,0,0,1,.157.3489h-.5814a4.9175,4.9175,0,0,0-.2791-1.1629Zm-2.0875,1.1629h-.5814a2.29,2.29,0,0,1,.1628-.343l.2035-.3082a2.451,2.451,0,0,1,.4942-.5408c0,.0931-.11.3024-.1686.535A4.3751,4.3751,0,0,0,29.8259,25.3929ZM35.5707,24.12c.4535.3082.36.2791.7617.5815l.6571.6919a3.8663,3.8663,0,0,1-.2617.5466,10.1894,10.1894,0,0,1-.721,1.1106l-.314.2965.1279-.5814a5.5273,5.5273,0,0,0-.1919-2.3956,1.86,1.86,0,0,1-.0581-.2442Zm-9.2451,3.25a2.2019,2.2019,0,0,1-.3721-.4419L25.436,26.23c-.0523-.093-.0814-.1686-.1454-.2675a2.8522,2.8522,0,0,1-.1453-.2558,2.6035,2.6035,0,0,1-.0873-.314,4.99,4.99,0,0,1,1.4479-1.2966l-.2384.7152a1.54,1.54,0,0,1-.0814.3721,3.6542,3.6542,0,0,0-.0407.4419v.9187a3.8422,3.8422,0,0,0,.11.5815.92.92,0,0,1,.0465.2093Zm5.1807-3.9365a6.3252,6.3252,0,0,1,1.0408-.1512,3.9914,3.9914,0,0,1,1.6049.1977,4.5892,4.5892,0,0,1,.4767.157c.2791.128.3315,0,.4013.2559a4.7816,4.7816,0,0,1,.2965.9826,3.7208,3.7208,0,0,1,.1395,1.1629,6.5773,6.5773,0,0,1-.1744,1.2676c-.1454-.1047.0582,0-.1628-.2965a3.442,3.442,0,0,0-.6745-.7734c-.0988-.0756-.1628-.1512-.2616-.2209a3.4844,3.4844,0,0,0-.9594-.4826,3.2817,3.2817,0,0,0-.2733-.6745,1.2975,1.2975,0,0,0-.2791-.4012c-.2035-.2442-.8722-.9362-1.1629-.9594v-.0523Zm-2.7212,2.1107a1.4817,1.4817,0,0,0-.6686.2675,4.1622,4.1622,0,0,0-.785.6163,3.9835,3.9835,0,0,0-.5291.7094c-.0814.1453,0,.1046-.0872.1686a4.6926,4.6926,0,0,1-.1745-1.4478,2.6581,2.6581,0,0,1,.0524-.5815c.0407-.1744.0581-.3372.11-.5175a2.2411,2.2411,0,0,1,.128-.407l.1221-.3081c.0349-.0931.0349-.1919.07-.2617s.1163,0,.2094-.0465a.98.98,0,0,1,.1744-.0756,3.7918,3.7918,0,0,1,1.2618-.314,1.8008,1.8008,0,0,1,.4593-.0465,4.651,4.651,0,0,1,1.1629.1395c.1047,0,.1454,0,.1919.0873-.1686,0-.093,0-.1744.0523l-.0582.0465a5.2015,5.2015,0,0,0-.5814.4652l-.7036.9477a3.9137,3.9137,0,0,0-.1919.5466Zm-10.03-1.2618a5.1273,5.1273,0,0,0,.0465.8606,13.243,13.243,0,0,0,.1919,1.64,5.721,5.721,0,0,0,.1686.7733H11.516c.0872-.0756.5233-.2035.7384-.3488a1.75,1.75,0,0,1,.25-.1338c.0872-.0407.1511-.0814.2325-.1279l.471-.2616c.5815-.3605.82-.5408,1.3374-.878l4.0411-2.634.2442-.14c0,.2617-.0407.4187-.0524.64v.2849c0,.064-.029.1687-.029.3256Zm24.421-1.25a3.9748,3.9748,0,0,1,.471.2675l.4651.2675.442.2965c.0581.0465.0581.0291.1162.064l1.68,1.11a3.7981,3.7981,0,0,0,.4478.32c.2093.128.3605.2733.4244.3082a4.1352,4.1352,0,0,1,.4419.2907L49.5256,27.12c.1628.0873.3081.18.4826.2559a2.8694,2.8694,0,0,0,.2674.1105l.128.0523.07.0291-2.8258.0348H42.8563a2.9061,2.9061,0,0,1,.07-.3663l.1977-1.1629a11.29,11.29,0,0,0,.1163-1.7153c0-.1744-.0465-1.2268-.0756-1.2966Zm-11.7744.0349a5.739,5.739,0,0,1,1.6688-1.2036,1.701,1.701,0,0,0,.2907-.1454c.1512.1047.2267.2094.3663.32a1.8605,1.8605,0,0,1,.3431.3664,4.24,4.24,0,0,1,.3081.3837,2.425,2.425,0,0,1,.2733.43,1.8862,1.8862,0,0,0-.3489-.1047,5.1391,5.1391,0,0,0-1.221-.2267,3.0062,3.0062,0,0,0-.8722,0Zm-4.0179.1454a6.13,6.13,0,0,1,.9187-1.1629c.064-.0582.1221-.14.1687-.18l.2035-.157c.2674.18.5814.25.93.4943l.3663.2674.25.1861c.0931.07.1338.1163.221.1861a.94.94,0,0,1,.2151.2151c-.1163,0-.5814-.1279-.7791-.157a2.4759,2.4759,0,0,0-.4652,0,3.6217,3.6217,0,0,0-1.2908.1047,6.39,6.39,0,0,0-.7385.2267ZM23.04,24.9568a11.1585,11.1585,0,0,0,.07,1.7095l.157.8838h-3.576a4.8526,4.8526,0,0,0,.1454-.4651l.2616-.68c.0291-.0931.07-.1512.0989-.2268s.0523-.1454.0872-.221l.0582-.0988a.7822.7822,0,0,0,.0639-.1163l.5466-1.0059c.0988-.1686.814-1.1629.93-1.2734a1.2726,1.2726,0,0,0,.14-.1686,1.5731,1.5731,0,0,0,.1569-.1745l.6106-.6337c.1221-.0989.2151-.1919.343-.2908l.3547-.2907c.0872-.0756.1163-.064.221-.1628l.1511-.0988-.3663.9012c-.029.0756,0,.1163-.0523.2035l-.1279.407a9.0918,9.0918,0,0,0-.2326,1.3141,3.1486,3.1486,0,0,0-.0581.471Zm15.1178-3.2735.7152.5291a7.8878,7.8878,0,0,1,.6512.5814l.4419.471a8.458,8.458,0,0,1,.9536,1.2618c.0465.07.0756.0988.1221.18s.0756.1454.1163.2151.1686.2443.2442.39.1279.2733.1977.4361.0756.1163.1163.1919.0581.14.093.2093c.1454.32.2849.8373.4245,1.1629a.7862.7862,0,0,1,.0639.2617H38.7454c.1047-.4536.128-.8489.2035-1.2909a7.1156,7.1156,0,0,0-.0465-1.9885L38.74,23.34Zm-4.3435-.1512,1.1629-.2908a6.5842,6.5842,0,0,1,1.6746-.0988l.3314-.0291c.221-.0349.128,0,.2675.0349a1.884,1.884,0,0,1,.2965.0523c0,.39.0524.2326.0524.3838a13.3011,13.3011,0,0,1-.1047,2.0235l-.2268,1a1.83,1.83,0,0,0-.0988.3314c-.1221-.0349-.0407,0-.2093-.1977a2.6478,2.6478,0,0,0-.4419-.3954,4.6493,4.6493,0,0,0-.721-.5814l-.3954-.2384c-.093-.0291-.1047,0-.157-.07s0-.064-.1163-.2907c-.0523-.0873-.1163-.18-.1628-.2675-.1047-.2268,0-.07-.1686-.2442s-.0756-.1628-.2617-.3663c-.0523-.0524-.0465-.0582-.093-.1105l-.5175-.5466-.0582-.0465c-.07-.07,0,0-.0523-.0756Zm-8.966,3.4073a8.85,8.85,0,0,1-.43-2.7154v-.5233c0-.1686-.0348-.0407,0-.1686a.6263.6263,0,0,0,0-.25c.0989,0,.1687-.0349.18-.1512a.683.683,0,0,0,.2326,0,16.1331,16.1331,0,0,1,1.6629.0523,7.21,7.21,0,0,1,1.6572.4012c-.07.1105-.5.5175-.5815.6454l-.6861.9885c0,.0581-.0349.0872-.064.14l-.0872.14c-.07.0814-.0581,0-.2616.1454l-.2675.1686-.4942.343c-.0931.07-.128.1221-.2152.1861l-.1163.0872a4.5722,4.5722,0,0,1-.5349.5349Zm6.3495-2.2851V20.52l.9768.3954.6338.3838c.0872.07.1337.07.1919.1628a5.2835,5.2835,0,0,0-1.1629.6745l-.4245.3372c-.0814.0582-.1221.1279-.2035.18Zm-.407-2.134v2.0816c-.18-.0988-.6455-.5174-.8083-.64-.07-.0524-.1453-.07-.2209-.128a2.6094,2.6094,0,0,0-.2384-.1453l-.5059-.2268a4.2665,4.2665,0,0,1,.8141-.5291h.0523l.407-.1919c.1628-.0814.3373-.1221.4884-.1977Zm7.4949.7385a6.98,6.98,0,0,1,1.2094.2616c.3373.1105.8606.221,1.1629.3547a3.8378,3.8378,0,0,0,.5291.2035l1.2967.5815c.1046.0523.1512.1105.2616.1221,0,.1337.0756.7094.0756,1.0641v.5349c0,.407-.0639,1.2385-.11,1.6164a6.5236,6.5236,0,0,1-.1687,1l-.3314-.907a7.4515,7.4515,0,0,0-.4012-.8373l-.8257-1.3606a7.1828,7.1828,0,0,0-.7093-.8664.9348.9348,0,0,1-.14-.1628l-.9419-.9129ZM19.4412,26.9745a3.2779,3.2779,0,0,0-.0756-.36c-.0872-.407-.0872-.7443-.1454-1.1629L19.1679,24.23c.0582-.4477,0-.4593.064-.9012a4.8694,4.8694,0,0,0,.0291-.5815,9.4564,9.4564,0,0,0,1.0175-.4535c.1686-.0756.343-.14.5233-.2093a9.3663,9.3663,0,0,1,1.349-.4826c.5814-.1222.5116-.18,1.2036-.2966a1.9793,1.9793,0,0,1,.3314-.0465l-1.2036.9594c-.1337.14-.2558.1977-.4826.4535l-.5815.6629c-.2093.2616-.36.5233-.5233.721-.0407.0581-.0988.1163-.1337.1686s-.0814.14-.1279.2093-.064.1105-.11.1919l-.4419.8024a4.6416,4.6416,0,0,0-.2907.6454,5.742,5.742,0,0,0-.2733.6687l-.0989.2326Zm17.9843-6.6577Zm-1.0931.4071a7.8515,7.8515,0,0,0-2.25.3139c-.32.0814-.5815.2094-.6454.221L33.053,20.98a5.4169,5.4169,0,0,0-1.32-.6861c.0523-.0756,0,0,.2442-.0872h.314a1.93,1.93,0,0,0,.2791-.0524h.6338l.9768.064.8373.1512a6.0554,6.0554,0,0,1,.8257.2209c.1512.07.2965.0931.4244.157s0,0,.064.0407Zm-7.7508.5349-.6163-.2268-.721-.14a6.1991,6.1991,0,0,0-1.535-.1919.1281.1281,0,0,1,.0581-.0465l.5815-.2035a6.389,6.389,0,0,1,1.0873-.2326c.3314-.0291.64-.0872.9884-.11a6.0561,6.0561,0,0,1,1.1223.0291,4.2621,4.2621,0,0,1,.7326.1279H30.25l-1.2617.6745a.5.5,0,0,0-.0931.0581l-.3023.2326Zm2.6166-1.2734V16.3281l.9187.3314a10.7031,10.7031,0,0,1,1.3024.5815,1.9078,1.9078,0,0,1,.18.1162,8.8613,8.8613,0,0,1,.7908.4827.8442.8442,0,0,0,.1977.1337,13.234,13.234,0,0,1,1.3489,1.1629l.8664,1.035c.2035.2558.1047.1744.18.2733s.0466.0407.0814.0988a1.163,1.163,0,0,1-.3081-.1221,8.3181,8.3181,0,0,0-1.663-.5466l-.7326-.11-1.2094-.0814c-.14,0-.2559.0523-.4071.0523a5.1681,5.1681,0,0,0-1.5292.25ZM41.74,17.9329a.3841.3841,0,0,1,.18.093l2.2793,1.64a1.73,1.73,0,0,1,.1628.14c.2151.2093.5175.4535.7384.657l1.5351,1.5641,2.4886,3.1224c.0872.1163.1628.1977.25.3082s.157.2035.25.314l.8024.9943c.0582.0639.0814.0523.0989.1337v.2384a5.91,5.91,0,0,1-1.0176-.4826,10.8188,10.8188,0,0,1-1.378-.8606,1.5715,1.5715,0,0,0-.2326-.1453l-2-1.3781c-.157-.1046-.2675-.2093-.4361-.3023a3.31,3.31,0,0,1-.5814-.378l-.1221-.0523-.4652-.2966c-.0872-.0581-.157-.0872-.2442-.1395s-.1512-.0814-.2384-.14a3.572,3.572,0,0,0-.7268-.4129,12.184,12.184,0,0,0-.1919-1.2792c-.0349-.1163-.1047-.3721-.157-.5814a1.7982,1.7982,0,0,0-.1105-.4477L41.8271,18.09h0l-.0872-.14ZM11.4637,27.1373c0-.3721.029-.2559.157-.4012l.7675-.9071c.1686-.2268.3081-.4361.471-.6512L14.6035,22.98c.2268-.2849.8024-.9885,1.0408-1.2211l.2675-.2907.2791-.2791c.157-.1628,0-.0581.2733-.2849s.3663-.3954.5814-.5524l1.035-.9361.9768-.721a1.7573,1.7573,0,0,0,.1745-.1105,1.9343,1.9343,0,0,1,.3256-.2326l.1744-.1046a1.8661,1.8661,0,0,1,.5466-.314l-.4535.9594a3.4689,3.4689,0,0,1-.1628.4012l-.0582.2209c-.0407.1047-.0581.064-.0872.1919-.093.3954-.1744.5815-.2442.8722a.9533.9533,0,0,1-.0582.2209,5.0076,5.0076,0,0,0-.2093.93,1.1062,1.1062,0,0,1-.0465.2326c-.0756.279,0,.4709-.1163.5814l-.7617.4535c-.1279.0814-.2326.1163-.3547.2094l-1.035.6628-.0756.0523-.0988.0524-.1744.1046c-.0814.0466-.0814.0756-.1512.128l-1.8374,1.2617c-.32.2035-.721.5059-1.0059.6745l-1.4537.8024a1.4087,1.4087,0,0,0-.1918.0872l-.2152.0931Zm19.3275-7.1751a6.4006,6.4006,0,0,0-1.4711-.2559,8.7687,8.7687,0,0,0-1.6339.07,4.9029,4.9029,0,0,0-1.1048.1919l-1,.32a2.55,2.55,0,0,1-.6279.2558l.8024-1.0466c.1046-.1047.2093-.2268.314-.32l.9884-.8954a9.2163,9.2163,0,0,1,1.1164-.7617l.8141-.4536a11.2859,11.2859,0,0,1,1.8025-.7094v.8955a1.77,1.77,0,0,0,0,.43c.0523.6221,0,1.6048,0,2.2618Zm6.6343.3546-.8314-1a8.6064,8.6064,0,0,0-1.07-1.0873l-.6919-.5524c-.285-.1686-.4012-.3023-.8373-.5349l-.0989-.0523a8.1639,8.1639,0,0,0-.7908-.4536l-.8605-.36a2.5965,2.5965,0,0,1-.4361-.1977,2.5811,2.5811,0,0,0,.471-.0872l2.0932-.1977c.2035,0,.3721.0582.5175.0407s.6978.064,1.0583.064c.0407.1628.3372.7384.3895.878a6.9691,6.9691,0,0,1,.2733.6687c.1163.3372.2791.68.4012,1.0757a.8516.8516,0,0,0,.07.2849l.2384.878a1.4084,1.4084,0,0,1,.0523.3023A1.6449,1.6449,0,0,1,37.4255,20.3168ZM24.57,20.3692a12.4355,12.4355,0,0,1,.5815-2.3724,4.8986,4.8986,0,0,1,.2151-.5233,5.8815,5.8815,0,0,1,.3489-.8024L26.07,15.88l1.064-.0756h.535c.2093,0,.3953.0523.5291.0407.5058-.0407,1.628.2384,2.0351.2384h0a8.7363,8.7363,0,0,1-.8664.3546l-1.0466.5059-1.3257.89-.8431.7036L26,18.6888a5.4257,5.4257,0,0,0-.7385.814l-.2791.3547c-.1162.1454-.0639,0-.2035.25l-.0639.0872-.07.0873-.0756.1046Zm-.4826.43a3.3925,3.3925,0,0,0-.7908.1222,10.5027,10.5027,0,0,0-1.2385.2849c-.1686.0407-.2849.1163-.5814.18-.1221,0,0,0-.1279.0465-.1977.0989-.2384.0407-.4245.157a7.3093,7.3093,0,0,1-.8082.3373,1.7508,1.7508,0,0,0-.2559.1279c-.1744.093-.3488.157-.5174.2442l.18-.9768a1.6609,1.6609,0,0,1,.0814-.3257l.7268-2.1455a.987.987,0,0,0,.0524-.1977l.5-1.0757c.064-.1337.2093-.1163.3605-.1977a7.2656,7.2656,0,0,1,1.0815-.4942h.07a2.2541,2.2541,0,0,1,.5-.1861h.1163l1.8665-.61a5.4142,5.4142,0,0,1,.6861-.0989c0,.1221,0,.0349-.0523.1279l-.2966.6687c-.0814.2559-.2791.64-.3488.8431-.0349.1047-.0582.2035-.0873.2908l-.1046.3081-.2791.8838c-.0349.1163-.0407.2094-.07.3373a6.5217,6.5217,0,0,0-.2384,1.3373Zm12.3443-4.7969a10.4111,10.4111,0,0,1,2.18.5116c.1047.0349.1744.064.3024.0989l.1337.0465.1512.0523.2733.1047c.1046.0349.1628.0872.2616.1221l.6861.2849c.1221.0349.0989.064.2442.1279l.07.0349c.4361.2152.3547.0291.4361.3024.0581.1686.2733.4942.3605.7559s.2093.43.2849.68l.2151.5814a2.0424,2.0424,0,0,0,.0873.2907,5.455,5.455,0,0,1,.2558.9129,5.8585,5.8585,0,0,1,.2093.9594c0,.1861.07.1512.07.407a1.7445,1.7445,0,0,1-.5291-.2267l-1.6746-.6687-.2733-.0988a1.2346,1.2346,0,0,1-.3082-.07,5.5675,5.5675,0,0,0-1.2443-.3082,3.7238,3.7238,0,0,0-.68-.1047,11.8358,11.8358,0,0,0-.32-1.6338L37.2685,17.95c-.0407-.11-.0814-.157-.1221-.2849s-.1279-.3837-.2093-.5814l-.4244-.942L36.46,16.09v-.07ZM33.46,15.421c-.11,0,0-.07-.1686,0a2.4806,2.4806,0,0,1-.4186.0407,1.3651,1.3651,0,0,0-.2268.0582c-.1686,0,.064-.0524-.3489.029l-.7442.1221c-.1977.0524-.1628.0756-.3547.0756V8.0773l.1279.2267a12.2637,12.2637,0,0,0,.5815,1.2443l2.71,4.1749a12.6271,12.6271,0,0,1,.9245,1.5117.8642.8642,0,0,1,.1221.2559c-.1628,0-.4012-.0524-.5814-.0524a4.9284,4.9284,0,0,1-.6164-.0465,1.8592,1.8592,0,0,0-.2732,0c-.221,0-.0756-.0756-.25-.029a.4879.4879,0,0,1-.2674.029c-.1512-.029.0814,0-.0407,0s-.07.0407-.2035.0407Zm-6.4774-.0291c-.2035,0,.0407-.029-.2442,0h-.0465c-.2035-.029-.0291,0-.3663,0,.1279-.1977.18-.3663.2558-.4826.1512-.2267.2326-.407.4187-.6745.0988-.1453.157-.2791.2616-.4709L28.7444,11.56a1.7413,1.7413,0,0,1,.1454-.2326,1.7992,1.7992,0,0,0,.157-.1977c.2093-.3547.43-.6454.5815-.8955a10.2068,10.2068,0,0,0,.5523-.9245l.3722-.7442c.0465-.0872.1918-.4477.2442-.5175V15.799l-.43-.1047c-.1337-.0291-.3256-.0523-.4593-.07l-.9711-.1163a8.6724,8.6724,0,0,0-1.0117-.0814,1.3321,1.3321,0,0,0-.4884,0,.5287.5287,0,0,1-.2791-.0349c-.0872,0-.0582.0349-.1745.0349Zm5.5355-7.367c.5.0465,1,.1279,1.4943.1861a17.5875,17.5875,0,0,1,2.3258.5117l1.2734.407a14.5435,14.5435,0,0,1,1.4129.5814l.36.1977c.2035.1047.3547.1454.5815.2791l.5814.2849.1745.1105c.1628.1105.3837.1919.5465.314s.3373.2093.5059.3314a.7405.7405,0,0,0,.1744.1105,3.6687,3.6687,0,0,1,.5117.3547c.2675.2035.5.4245.7792.6105.1686.1163.314.2675.4709.3954l.878.7966c.064.0581.0873.064.1512.1279l.5815.5815a1.4461,1.4461,0,0,0,.0872.1395,16.069,16.069,0,0,1,1.5118,1.89,3.6462,3.6462,0,0,0,.2267.3315l.6687,1.035a5.81,5.81,0,0,0,.3954.721l.6861,1.5466c.064.1338.0988.2675.1628.3954a1.3924,1.3924,0,0,1,.0872.1919l.535,1.4478c.029.0756.0465.1337.07.2093a16.7823,16.7823,0,0,1,.471,2.0933c.0989.7384.2152,1.221.2791,1.9769a.833.833,0,0,1-.1279-.1512l-.3721-.4593c-.4187-.5117-.849-1.0292-1.2211-1.5758a11.7171,11.7171,0,0,0-.7617-.93l-.5175-.5814a24.1759,24.1759,0,0,0-1.8664-2.07l-.7618-.6629c-.1511-.1221-.2965-.2849-.4419-.3954l-.9535-.75c-.1163-.0872-.2094-.1454-.3315-.2268l-.3372-.2442c-.1163-.0756-.2268-.1337-.3431-.2151l-.8721-.5292c-.2384-.1279-.18,0-.2675-.2616l-.9827-1.6223a.7684.7684,0,0,0-.11-.1686c-.0407-.0581-.0814-.1047-.1221-.157s-.1687-.2151-.2384-.32l-.7443-.9768c-.3721-.378-.7152-.7908-1.0931-1.1629l-.5815-.5815c-.2907-.2675-.5814-.5814-.8722-.8082-.2035-.157-.4361-.3314-.6279-.5117s-.4129-.3314-.6106-.5117c-.4186-.3721-1.128-.9012-1.5873-1.25l-.6338-.4884a4.9427,4.9427,0,0,1-.5815-.5408Zm-6.7042,7.5182c-.1977,0-1.3431.2268-1.5466.2791-.6862.1744-1.1048.3431-1.6921.5175l-1.3082.5815.5175-.8315a.6825.6825,0,0,1,.11-.1745l1.0583-1.4245a9.6406,9.6406,0,0,1,.6338-.7385c.0581-.0639.07-.093.1279-.157.3081-.3256.6279-.6744.9652-.9884l.721-.6454c.064-.064.093-.07.1512-.128L27.68,10.0891a7.6859,7.6859,0,0,1,.7733-.5815l1.2211-1.0233c.1395-.1163.36-.25.407-.4245h.2791a10.1433,10.1433,0,0,1-.878,1.7444L27.221,13.1824c-.2849.378-.3721.6105-.5814.9187a1.9746,1.9746,0,0,0-.1512.2326l-.2849.4768a2.6223,2.6223,0,0,0-.1221.2616l-.14.2384a1.1634,1.1634,0,0,0-.1337.25ZM11.4927,26.236c.0756-.3256.0407-.6686.1163-1a1.36,1.36,0,0,0,.0349-.2442c0-.0814.0349-.1686.0407-.2384l.1628-.9826a12.8351,12.8351,0,0,1,.3431-1.3548,3.49,3.49,0,0,0,.1163-.4419c.0349-.1512.1046-.2849.1395-.4187a7.3822,7.3822,0,0,1,.4594-1.2443c.1163-.2616.1918-.5465.32-.7966l.9826-1.8664c.0349-.0582.0524-.1163.0931-.18l.3314-.5117a13.6362,13.6362,0,0,1,1.1629-1.6455l.1221-.1511,1.5-1.6281a6.0213,6.0213,0,0,1,.721-.6745c.0873-.0465.0931-.0814.157-.1454l.7676-.6337.1569-.1163a9.3039,9.3039,0,0,1,1.3432-.9245,4.0667,4.0667,0,0,0,.3489-.2326l1.0757-.5815c.2849-.157.5814-.2674.8547-.407a10.6024,10.6024,0,0,1,1.93-.7675.8215.8215,0,0,0,.2035-.0756,1.6406,1.6406,0,0,1,.2035-.0756,17.2273,17.2273,0,0,1,2.2852-.5814l.4884-.07a2.2028,2.2028,0,0,0,.4826-.0756L29.46,8.0482a2.4544,2.4544,0,0,1-.4419.4012c-.2384.1861-.5349.4884-.7791.64a5.7218,5.7218,0,0,0-.628.4942c-.2965.2617-.657.471-.9478.7443l-.93.7791A21.746,21.746,0,0,0,24.11,12.5777a5.6464,5.6464,0,0,0-.43.407l-.2733.314c-.0465.0581-.0872.0872-.14.1454l-.89,1.0873c-.3605.4826-.7442.9594-1.0582,1.4769a.9861.9861,0,0,1-.1163.1628c-.0756.0872-.1163.2384-.2035.3605l-.3082.5291c-.1221.2907-.0581.14-.2907.2907l-1.3839.878c-.157.1279-.3372.221-.5.3373l-.9594.7442a10.6371,10.6371,0,0,0-.89.8082c-.1047.1047-.1919.157-.2908.2675a1.59,1.59,0,0,1-.1279.1512l-.157.1221c-.11.0872-.1744.1861-.2791.2849a3.4912,3.4912,0,0,0-.2907.2965.9777.9777,0,0,1-.1279.1512c-.064.064-.07.0814-.1279.1454L13.72,23.3753c-.0872.1046-.1744.2151-.2558.3256L12.4812,24.98c-.1628.2209-.3023.43-.471.64a5.2283,5.2283,0,0,1-.5291.6163ZM31.6343,8.0017h.2791c.0581.2151.971.8954,1.2268,1.1047l.8664.68c.2442.1977.7094.5233.93.721.4477.3954,1.3257,1.0641,1.6688,1.413.1919.1918.6512.5814.8489.7966a9.0425,9.0425,0,0,1,.7036.6919,3.1742,3.1742,0,0,0,.2616.2965c.064.064.07.0872.1279.1512a4.7591,4.7591,0,0,1,.3954.4477c.2442.32.8838,1.1164,1.0757,1.4362l.221.3372.11.1687.4071.6919c-.0814,0-.1047-.0581-.1861-.093a1.2631,1.2631,0,0,1-.2093-.07l-2.25-.8489-.7036-.1628a4.1818,4.1818,0,0,0-.9361-.1745c-.157,0-.1977,0-.3024-.11s-.5175-.9536-.6745-1.163l-.5524-.8779a1.7383,1.7383,0,0,0-.11-.1745c-.1163-.1744-.3257-.5465-.4419-.6745L33.7159,11.56a1.172,1.172,0,0,1-.11-.1221l-.4477-.692c-.18-.25-.8548-1.32-.9769-1.5641-.0349-.07-.0581-.1279-.093-.186-.0988-.1977-.1744-.2966-.2849-.5524-.064-.1512-.0989-.2791-.1686-.4129ZM11.0566,27.1373v1.7443l.0349.378a4.81,4.81,0,0,0,.0407.5814,3.2218,3.2218,0,0,0,.0582.5524,5.3009,5.3009,0,0,1,.0756.5291l.43,2.0351c.1047.2966.1629.6571.2733.9478a.9523.9523,0,0,1,.064.2384l.5814,1.5467c.064.1337.1338.2849.1861.4186l1.7444,3.1631c.0465.07.0814.1105.1279.1744.2965.4012.6221.8432.9419,1.2211l.5815.6628c.3023.314.5814.6455.9012.9478l1.6281,1.4188c.3489.2616.7036.5465,1.07.7849l1.3083.8315c.0814.0465.1279.0523.2035.093l.186.1221c.221.1512,1.349.6745,1.6572.8083l1.0931.43c.2268.0756.4419.1745.68.2384.0872,0,.1279.0524.2151.0814.3489.1221,1.0757.2849,1.4711.3838a19.5469,19.5469,0,0,0,2.9073.4419,6.3724,6.3724,0,0,0,1,0h1.39c.1628,0,.4244-.0349.5814-.0465.378-.0349.7675-.0756,1.1222-.1221l1.0757-.1686a16.5926,16.5926,0,0,0,2-.4652c.1686-.0582.5814-.14.7152-.2035.3489-.1745.7268-.25,1.1629-.4419l.8838-.378c.1221-.0407.1919-.1221.2965-.1628l.7327-.3605a.9831.9831,0,0,1,.18-.1221,4.7218,4.7218,0,0,0,.785-.4651l.5814-.3664.18-.1221,1.0757-.8082.3372-.2733.3547-.2733c.3372-.25,1.2676-1.1919,1.599-1.5234a10.872,10.872,0,0,0,.7094-.8431l1.3373-1.785a2.0617,2.0617,0,0,1,.1221-.1861,8.2929,8.2929,0,0,0,.6978-1.1629c.0639-.1337.1628-.2617.2151-.3954l.2151-.4186.0989-.2094.4884-1.0873a9.2946,9.2946,0,0,0,.3314-.9129,3.69,3.69,0,0,0,.18-.4535c.0523-.2384.1512-.4651.2093-.7035a.1657.1657,0,0,1,.0349-.1221c.0349-.0524,0-.0756.0465-.128.221-.657.2907-1.378.4477-2.07s.1279-1.3258.2152-1.9421a17.971,17.971,0,0,0,0-2.0234l-.0407-1.192a2.2551,2.2551,0,0,0-.0524-.5815A23.3834,23.3834,0,0,0,50.2,22.2821l-.14-.4826c-.0581-.1686-.0872-.3256-.1454-.4884-.0988-.3023-.2442-.5814-.3256-.9187,0-.1221,0,0-.0407-.11l-.343-.7733a3.875,3.875,0,0,0-.1919-.4186l-.2151-.4245a4.8313,4.8313,0,0,0-.314-.5814,6.2168,6.2168,0,0,1-.3256-.6164c-.0814-.1453-.1687-.2616-.2443-.39l-.25-.407c-.0407-.07-.07-.1337-.1105-.1919L46.3567,14.857a15.9565,15.9565,0,0,0-1.663-1.7444c-.2268-.186-.4186-.407-.6512-.5814-.3315-.2617-.4594-.4128-.8606-.7094l-.68-.5756c-.2035-.1687-1.5932-1.0292-1.8141-1.1629a10.2643,10.2643,0,0,0-.942-.4826,4.09,4.09,0,0,1-.4186-.2152c-.5815-.2791-1.1629-.471-1.7793-.7094a1.1647,1.1647,0,0,0-.2151-.093l-.471-.1337c-.343-.0582-.7559-.2384-1.2617-.3431l-.7617-.157c-.4245-.0988-.9129-.1395-1.3432-.2325-.25-.0524-.8315-.0582-1.1629-.0931a5.1935,5.1935,0,0,0-.6163,0,2.6514,2.6514,0,0,1-.2791,0H29.75c-.1861.0465-.3838,0-.5815.0465s-.5814.0407-.7908.0989-.5814.0581-.7733.1163l-.221.0639a18.774,18.774,0,0,0-3.3259.9129l-1.2792.5233a13.3227,13.3227,0,0,0-1.3722.7094c-.2558.157-.5175.2617-.7617.43l-2.2909,1.6513c-.1163.0872-.2384.1744-.3431.2675l-.6279.5814c-.3664.3373-.692.7152-1.0408,1.0641-.1454.1512-.2675.3314-.4071.4826a3.7083,3.7083,0,0,0-.2791.3314l-.2384.2733h0a2.3189,2.3189,0,0,0-.2732.3605l-1.4537,2.18-.4128.7792c-.1454.2849-.2733.5175-.4012.82l-.1861.3954c-.2209.5815-.4826,1.1629-.6512,1.7444l-.1337.4768c-.07.3314-.1919.6163-.2849.9361l-.3373,1.7444c-.0465.4419-.1628.8838-.1744,1.3257s-.0524.75-.0524,1.1629Z" transform="translate(-11.0566 -7.6145)"/></svg>