<svg id="Layer_1" data-name="Layer 1" xmlns="http://www.w3.org/2000/svg" viewBox="0 0 254.76 70.61"><defs><style>.cls-1,.cls-2{fill:#fff;}.cls-1{fill-rule:evenodd;}.cls-2{font-size:24.07px;font-family:CrimsonText-Bold, Crimson Text;}.cls-3{font-weight:700;}.cls-4{font-size:44.98px;font-family:JuliusSansOne-Regular, Julius Sans One;letter-spacing:-0.03em;}.cls-5{letter-spacing:0.01em;}.cls-6{letter-spacing:0.03em;}.cls-7{letter-spacing:-0.05em;}.cls-8{letter-spacing:-0.03em;}.cls-9{letter-spacing:-0.01em;}.cls-10{letter-spacing:0.01em;}</style></defs><title>ct-logo</title><path class="cls-1" d="M54.25,81.05c0-.09.06-.16,0,0s0,.18,0,0Zm-7.12-11.8a9.89,9.89,0,0,0,1.53.09c.24,0,.27,0,.53,0a24.65,24.65,0,0,0,3-.17c.64-.13,1.41-.19,2-.33a3.11,3.11,0,0,1,.64-.15V81.92a.32.32,0,0,1-.06-.08l-.55-1.19L54,80.22c-.14-.27-.31-.54-.45-.82a15.62,15.62,0,0,0-1-1.56l-.24-.38-.76-1.16a3.42,3.42,0,0,0-.26-.4l-.52-.74c-.25-.42-.84-1.2-1-1.52a3.89,3.89,0,0,0-.25-.4L49,72.48c-.5-.75-1.29-2.16-1.78-3a1.74,1.74,0,0,1-.11-.25ZM55.52,82V68.73l3.76.61,1,0a5.93,5.93,0,0,0,1,0c.41-.06,1.15,0,1.45-.07a3.13,3.13,0,0,1,.49-.08,17,17,0,0,1-.91,1.62l-3.06,4.67a8.6,8.6,0,0,0-.49.78l-2.47,4-.61,1.31c-.08.18-.09.32-.23.43Zm.79.08a29.6,29.6,0,0,1,1.77-3.42c.35-.54.65-1,1-1.55l1.57-2.31c.19-.3.34-.51.53-.79l1-1.58c.45-.87.92-1.41,1.45-2.47.16-.32.31-.55.47-.85a12.7,12.7,0,0,0,2.16-.33l1.5-.37c.18,0,.06,0,.22-.09l.74-.22a6.82,6.82,0,0,0,.89-.34l2-.81.24-.11-.44.74c-.18.16-.06.09-.18.3l-.86,1.32c-.21.39-1.31,1.71-1.7,2.19l-.45.51-.44.52-1.89,2a2.8,2.8,0,0,0-.25.22l-1.27,1.18c-.46.35-.59.56-1,.87a1.16,1.16,0,0,0-.26.23l-3,2.35a3.87,3.87,0,0,0-.54.42,10.28,10.28,0,0,1-1.11.86L57,81.84c-.33.34.1.25-.66.25ZM38.48,66.81l1.94.86c.16,0,.1,0,.24.06s0,0,.22.09c.47.12.68.31,1.19.43s1.14.33,1.43.4l1.58.34a5.86,5.86,0,0,0,1.13.13,6.23,6.23,0,0,1,.47.8,6.71,6.71,0,0,0,.49.83,8.45,8.45,0,0,1,.49.82c.38.77,1.15,1.76,1.49,2.39l1.18,1.75a1.88,1.88,0,0,1,.12.18l.79,1.18c.08.13.17.26.26.39.47.71,1.4,2.15,1.75,2.84a14.41,14.41,0,0,1,.83,1.79H53.6c-.07-.24-.5-.47-.71-.68l-2.36-1.92c-.37-.28-.63-.53-1.08-.85a18.93,18.93,0,0,1-1.56-1.28l-1.82-1.49a3.8,3.8,0,0,1-.76-.69l-1-.89-.49-.48c-.17-.18-.27-.33-.45-.51l-.91-1c-.38-.49-.71-.74-1.08-1.29l-2.76-3.92a.35.35,0,0,1-.08-.13,2.05,2.05,0,0,1-.08-.19ZM73.73,65ZM56.61,68.25l.08-.06c.39-.25,1.51-.53,2.14-.91s1.22-.59,2.08-1.15a18,18,0,0,0,3.44-3,10.82,10.82,0,0,0,1.05-1.1l.66-.91a2.09,2.09,0,0,1,.25-.32l-.19,1a23.86,23.86,0,0,1-.73,2.68l-.27.87c-.1.26-.24.51-.35.78a22.34,22.34,0,0,1-1.07,2.34c-.11.15-.09.09-.44.12l-1,.11a4.84,4.84,0,0,0-1,0c-.24,0-2.37-.13-2.65-.15l-2-.31ZM44.12,60.78c.13.09.38.56.66.91L45,62l.47.58a16.27,16.27,0,0,0,1.58,1.66l1.46,1.2a14.34,14.34,0,0,0,1.28.86,15.91,15.91,0,0,0,1.72,1,17.89,17.89,0,0,0,2.3.93v.09c-.42,0-1.91.39-3,.39-.42,0-.71,0-1.09,0a8.17,8.17,0,0,0-1.08,0,8.43,8.43,0,0,1-1.76-.15l-.16,0c-.06,0-.39-.86-.56-1.16s-1-2.51-1.13-2.85l-.53-1.74c-.21-.64-.25-1.68-.37-1.94Zm11.4,7V61.57c.29.06.5.15.85.2s.62.07,1,.11a19.55,19.55,0,0,0,2,.17c.3,0,.6-.07.88-.09a15.5,15.5,0,0,0,2.12-.28l1.92-.56c.25-.1.43-.19.68-.28l.69-.32a4.19,4.19,0,0,1-.54.77l-.16.24A32.82,32.82,0,0,1,62.56,64a16.51,16.51,0,0,1-3.18,2.23l-1.08.54a7,7,0,0,1-1.16.5l-1.62.56ZM44.86,60.56l1.38.54a5.69,5.69,0,0,1,.7.26l.75.21a9,9,0,0,0,1.61.32,6.3,6.3,0,0,0,.89.07c.29,0,.58.09.87.09a19.92,19.92,0,0,0,3.33-.35,3.67,3.67,0,0,1,.43-.09v6.16l-1.59-.55c-.53-.21-1-.45-1.49-.66A18.14,18.14,0,0,1,49.07,65c-.48-.33-1.28-1-1.75-1.44a4.85,4.85,0,0,0-.54-.56.81.81,0,0,1-.25-.27l-.5-.55a2.43,2.43,0,0,1-.24-.32,9,9,0,0,1-.93-1.26Zm14.33.79c-1.12,0-2-.26-2.71-.26.1-.14.19-.12.36-.21a12.17,12.17,0,0,0,1.87-1,3,3,0,0,0,.65-.52l1.09.36a17.85,17.85,0,0,0,3.85.6l-.22.13-.28.11-2.46.6a12.94,12.94,0,0,1-2.15.21ZM46,60.26a15.21,15.21,0,0,0,4.47-.73l.55-.19c.23.15.31.27.68.49s1.15.73,1.49.88a2.38,2.38,0,0,1,.8.38,4.11,4.11,0,0,0-.66.08,12.69,12.69,0,0,1-4.26,0,2,2,0,0,1-.34,0L46,60.26Zm-3.41-1Zm13,1.31V56.94c.23.15.46.42.68.59s.24.16.38.27.23.18.38.28.5.33.78.49a6.36,6.36,0,0,0,.88.42l-1.44,1-.79.34a4.71,4.71,0,0,1-.87.31ZM51.76,59a4,4,0,0,0,.85-.42,14.56,14.56,0,0,0,1.89-1.34c.12-.12.2-.25.36-.29v1.83c0,.67,0,1.19,0,1.83a12.6,12.6,0,0,1-2-.89A5.32,5.32,0,0,1,51.76,59Zm14-6,.3.84c.06.28.16.56.21.84s.11.59.15.9.12.67.13,1c0,.68,0,1.47,0,2.07,0,.24,0,.67-.22.8l-.28.12a14.55,14.55,0,0,1-3.29-.06,3.57,3.57,0,0,1-.55-.11L60.61,59a2.34,2.34,0,0,0-.55-.15c0-.16.34-.41.49-.56l.1-.08,0,0,.06-.07c.24-.26.44-.5.68-.77a11.12,11.12,0,0,0,1-1.51c.05-.13,0-.19.12-.28s.28-.12.46-.24a13.19,13.19,0,0,0,1.69-1.19l.41-.34a3.74,3.74,0,0,0,.66-.78ZM64.47,68.42a7.07,7.07,0,0,0,.64-1.37c.13-.41.47-1,.64-1.42s.29-1,.51-1.5l.41-1.63A15.52,15.52,0,0,0,67,60.8c0-.15.06-.5.06-.63A6.6,6.6,0,0,0,68.2,60c.93-.17,1.79-.41,2.7-.67a4.81,4.81,0,0,0,.54-.16,4,4,0,0,1,.49-.17,13.19,13.19,0,0,0,1.47-.58l.45-.2.48-.22c.44-.21.47-.18.93-.42a26.06,26.06,0,0,1-.58,2.78,8.52,8.52,0,0,1-.3,1.05,5.45,5.45,0,0,0-.25.76c0,.15-.06.07-.11.23s0,.14-.08.27l-.28.73a13.78,13.78,0,0,1-.86,1.85c-.15.23-.06.35-.19.5s-.3.12-.47.19l-.89.46c-.8.35-1,.48-1.92.79l-1,.35a.79.79,0,0,1-.26.09,1.2,1.2,0,0,0-.27.08,6.42,6.42,0,0,1-1.07.28,8.85,8.85,0,0,1-1.1.26l-1.15.2Zm-20.61-11a18.8,18.8,0,0,1,.34-2.94c0-.17.09-.37.13-.52.08-.42.25-.82.27-1,.31.21.84.88,1.08,1.06s.26.22.41.33a8.39,8.39,0,0,0,1.29.9,1.48,1.48,0,0,0,.21.13.87.87,0,0,1,.34.15l0,0c.11.14,0,.22.16.41s.1.12.15.2L49,57.29c.12.16.21.24.32.38a4.69,4.69,0,0,0,.71.78c.15.15.25.17.38.36-.27.07-.48.17-.77.24a20.19,20.19,0,0,1-2.67.48c-.58.09-1.36,0-2,0-.26,0-.15.07-.43,0a.79.79,0,0,1-.53-.26s0,0-.05-.08a3,3,0,0,1,0-1.14,6,6,0,0,0,0-.61Zm-8.7.09a3.08,3.08,0,0,1,.9.41c1.07.4,1.64.77,2.92,1.14.2.06.32.14.47.19s.36.08.52.13a7.2,7.2,0,0,0,1.06.3c.7.1,1.77.4,2.3.4a6.2,6.2,0,0,0,.17,1.19l.11.55a5,5,0,0,0,.1.6,26,26,0,0,0,.77,2.59L45.25,67a3.94,3.94,0,0,0,.32.73l.34.71c-.36,0-1.23-.26-1.62-.34l-.6-.11-2.08-.62-1.93-.78a5.66,5.66,0,0,1-.7-.3l-.44-.22a1.16,1.16,0,0,1-.22-.13c-.45-.26-.42.11-.67-.68l-.45-.9L37,63.85c-.08-.17-.12-.3-.19-.47s-.07-.14-.11-.24a1.86,1.86,0,0,1-.1-.25l-.26-.75a.91.91,0,0,1-.1-.24c0-.11,0-.13-.08-.23-.1-.38-.28-.79-.4-1.3l-.39-1.66a9.54,9.54,0,0,0-.2-1.16Zm19.31-1.27Zm4.81,2.27-.47-.23-.45-.25a3.38,3.38,0,0,1-.46-.24L56.63,57c-.13-.1-.24-.23-.36-.34s-.31-.25-.36-.38a3.43,3.43,0,0,0,.63.15c.14,0,.19.07.31.09a2.88,2.88,0,0,0,.42,0c.25,0,.45.08.74.09s.24,0,.36,0a14.54,14.54,0,0,0,1.8-.23L61.46,56a7.72,7.72,0,0,1-1.26,1.67l-.92.86Zm-4.81-2.27a5.9,5.9,0,0,1-1.13,1,12,12,0,0,1-2.23,1.3,6.66,6.66,0,0,0-.87-.84,10,10,0,0,1-1.19-1.65,9.56,9.56,0,0,1,1.23.3,8.27,8.27,0,0,0,3.54,0,4.15,4.15,0,0,1,.65-.13Zm-11.88,3-3.16-.76-1.26-.46a3.77,3.77,0,0,1-.82-.3l-1.91-.89c-.49-.26-.46-.31-.45-.69l-.09-1.61c0-.25,0-.28,0-.53,0-.7.1-2,.17-2.67a14.6,14.6,0,0,1,.31-2s0,0,0,.09a.63.63,0,0,1,0,.09l1.37,3.18a16.09,16.09,0,0,0,1,1.64l1.41,1.83c.12.12.13.16.24.28A18.8,18.8,0,0,0,42,58.81a3.41,3.41,0,0,1,.61.48Zm25.16.05a19.33,19.33,0,0,0,1.74-1.41l.57-.52a3.25,3.25,0,0,1,.23-.29l.72-.68,0,0a17,17,0,0,0,1.53-1.84L74,52c.12-.24.07,0,.26-.53l.48-1.13c.06-.13.1-.25.15-.37a.92.92,0,0,1,.17-.4L75.47,52c0,.33,0,1.38.08,1.61.06.4-.1,2.13-.11,2.65s0,.38-.5.64l-2.72,1.21a26.07,26.07,0,0,1-4.47,1.21Zm-12.23-4.5v-3.1c.29,0,.58.31,1,.35a6.54,6.54,0,0,1-.76,2.51c-.13.21-.13.21-.24.24Zm-13.11-5.5c.1.06.55,1.18.77,1.55a8.18,8.18,0,0,0,.43.7c.63.94.52.52.14,1.83a15.61,15.61,0,0,0-.49,2.43c-.07.49,0,1-.1,1.39a2.85,2.85,0,0,1-.31-.83,13.66,13.66,0,0,1-.45-1.81c-.16-.84-.14-1.38-.22-2.11a13.63,13.63,0,0,1,.11-2.1,8.87,8.87,0,0,0,.12-1ZM53.9,52.17c0-.14.07-.11.19-.16l.26-.09a4.09,4.09,0,0,0,.47-.23v3.19l-.58-1.21a7.92,7.92,0,0,1-.34-1.5Zm2.8,2.14a10.27,10.27,0,0,0,.52-2.05l1,0a4.92,4.92,0,0,1-1.53,2.09Zm10.53,3.11a12.06,12.06,0,0,0-.46-3.52c-.09-.27-.24-1-.36-1.3s-.09-.12-.07-.23l.54-.76a1.27,1.27,0,0,0,.12-.23l.81-1.51a2.53,2.53,0,0,1,.2-.49l.19,1.21a14.28,14.28,0,0,1,0,2.1,14.85,14.85,0,0,1-.39,2.86,2.39,2.39,0,0,1-.1.29c0,.12,0,.25-.08.36l-.31.91s0,.09-.06.16l-.07.15Zm-15-5.25a4,4,0,0,0,1,0,8,8,0,0,0,.53,2.09,6.27,6.27,0,0,1-.87-1l-.54-.81a3.16,3.16,0,0,1-.12-.37Zm-4.63-.56a7.32,7.32,0,0,1,.3-2.62H48a.42.42,0,0,0,.1.3,7.82,7.82,0,0,0,1.69,1.89l.72.45a2.49,2.49,0,0,1,.29.11,1.84,1.84,0,0,0,.61.22,5.08,5.08,0,0,0,.5,1.16c.22.33.43.68.67,1a6.16,6.16,0,0,0,1.58,1.35c.2.08.2,0,.31.13a12,12,0,0,1-2.23.31c-.4,0-.66-.07-1-.09a7.81,7.81,0,0,1-1.81-.41l-.21,0a5.91,5.91,0,0,0-.64-.24c-.24-.06-.14-.1-.2-.33a2.67,2.67,0,0,0-.18-.39,16.93,16.93,0,0,1-.48-1.74,6.91,6.91,0,0,1-.1-1Zm10.88,4.28-1.4-.09c-.33,0-.71-.19-1-.22.11-.15.06,0,.28-.11a.85.85,0,0,0,.28-.16l.67-.55a3.46,3.46,0,0,0,.82-.84c.07-.09.12-.13.2-.24A5.23,5.23,0,0,0,59.06,52a5.08,5.08,0,0,0,1.64-.8,5.2,5.2,0,0,0,.86-.76,6.47,6.47,0,0,0,.89-1.17c.07-.17,0-.19.15-.28,0,.7.3,1.44.3,2.22,0,.42-.09.67-.09,1a2.74,2.74,0,0,1-.17,1,8.65,8.65,0,0,1-.31,1.09,1.2,1.2,0,0,0-.11.2c-.25.75.06.44-.31.56l-.06,0a8.29,8.29,0,0,1-3.4.79ZM57.88,82a13.27,13.27,0,0,1,1.57-1.31l3.25-2.56c.74-.55,1.41-1.18,2.13-1.76l.75-.69c.11-.1.15-.11.26-.22l1-.94c.1-.1.11-.16.21-.27l1.84-2a18.49,18.49,0,0,0,1.33-1.6L71.46,69a13.88,13.88,0,0,0,.76-1.2c.2-.43.52-.79.72-1.21.09-.21,0-.23.14-.38s.18,0,.63-.34l4-2.74c.19-.15.34-.28.53-.42.64-.48,1.22-1.09,1.81-1.6l.12-.1.12-.14,2.59-2.74.22-.27a2.61,2.61,0,0,1,.23-.25l.43-.52c.23-.25.41-.55.64-.81l.43-.52c.52-.59,1-1.31,1.48-1.93L87,53c.44-.53.81-1.11,1.25-1.63a2.72,2.72,0,0,1,.47-.54c0,.26-.07.6-.09.87A25.14,25.14,0,0,1,88,55.83l-.41,1.56c-.09.3-.1.48-.21.76s-.21.75-.37,1.07c-.26.55-.36,1.22-.65,1.79-.16.33-.26.7-.42,1l-2,3.82q-.09.16-.18.3l-2.87,3.94c-.46.51-.87,1-1.36,1.53-.25.25-.47.52-.74.75l-1.22,1.17A4.41,4.41,0,0,1,77,74l-2.17,1.72a15,15,0,0,1-1.42,1c-.32.17-.59.38-.91.57s-.37.26-.58.39l-4.56,2.2c-.2.09-.51.17-.73.24-.56.19-.38.16-1.08.36l-.36.12c-.27.07-.49.15-.76.24a26.78,26.78,0,0,1-4.82,1,13.75,13.75,0,0,1-1.76.2ZM21.71,50.78a6.47,6.47,0,0,1,.89,1c.42.54.8,1.11,1.26,1.62l.41.55.42.55,2.36,3c.88.94,2.33,2.7,3.25,3.51l3.45,2.89,2.33,1.56c.18.12.4.23.6.35,1,.57.36,0,1,1,.13.21.23.4.36.61l.36.6c.07.12.1.18.18.3.36.58,1.51,2.17,1.82,2.55L41.22,72l.24.24c.1.11.11.15.22.26l.22.26,1,1c.26.22.42.55.68.76a4,4,0,0,1,.52.49c.11.11.15.12.26.22s.47.5.73.71l2.13,1.76.53.43.79.69c.53.44,1.11.81,1.63,1.25l.85.64c.1.08.15.15.25.23l.54.42a6.06,6.06,0,0,1,.78.71,40.09,40.09,0,0,1-4.2-.61c-.28,0-.49-.12-.76-.19s-.23-.06-.39-.1a19.14,19.14,0,0,1-1.93-.51,4.63,4.63,0,0,0-.72-.24l-.34-.14-.36-.13A28,28,0,0,1,41.1,79l-.3-.17c-.11-.06-.25-.08-.38-.15a28.61,28.61,0,0,1-2.81-1.56c-.1-.06-.16-.12-.28-.2-.62-.37-1.15-.76-1.75-1.18A18.77,18.77,0,0,1,33.4,74l-2.48-2.36c-.33-.33-.6-.69-.9-1-.45-.52-.89-1-1.3-1.59-.14-.2-.27-.36-.41-.54s-.3-.37-.44-.57a18.31,18.31,0,0,1-1.5-2.39c-.21-.42-.49-.79-.7-1.22S25.21,63.5,25,63c-.39-.94-.81-1.75-1.17-2.73-.08-.23-.16-.47-.25-.7a30.54,30.54,0,0,1-1.43-5.39A6.47,6.47,0,0,1,22,53.4a5.53,5.53,0,0,0-.13-.83l-.17-1.79ZM56.17,50l.14.3c0,.1.09.25.12.36a3.73,3.73,0,0,1,.14.78,1.93,1.93,0,0,1-.88-.44,2.32,2.32,0,0,0,.48-1ZM54,51.34A4.9,4.9,0,0,1,54.17,50h.08a2.08,2.08,0,0,0,.44.92,6.51,6.51,0,0,1-.74.39Zm-.48-1.48a10.33,10.33,0,0,0-.27,1.62,2.71,2.71,0,0,1-1.31-.09c0-.45,0-.73,0-1.18a2.32,2.32,0,0,0,.84-.13,5.32,5.32,0,0,1,.78-.22Zm3.45,0a6,6,0,0,0,1.26.35h.4a1.38,1.38,0,0,1,0,.78,2.27,2.27,0,0,0,0,.48,2.73,2.73,0,0,1-1.31.09,3.92,3.92,0,0,0-.3-1.7Zm-3.45,0Zm-4.2-.13a13.3,13.3,0,0,0,1.88.44l0,1a9.11,9.11,0,0,1-1.07-.58,4.07,4.07,0,0,1-.85-.86ZM73.73,65a4.63,4.63,0,0,1,.29-.68l.22-.48c.22-.4.08-.31.2-.55s.08-.07.14-.33.19-.44.26-.71a5.93,5.93,0,0,1,.24-.72,18.77,18.77,0,0,0,.49-1.9c0-.14.06-.24.09-.4l.3-1.62c0-.11,0-.3.07-.4s.08-.16.26-.23l2.14-1.23c.34-.23,0-.05.58-.38l6.06-4.11.61-.35a11.65,11.65,0,0,1,2.13-1.23l1-.5v.53a24,24,0,0,0-2.55,3.09l-.84,1.08a2.51,2.51,0,0,1-.19.24l0,0s0,0-.06.07l-.51.71c-.22.29-.88,1-1.06,1.3l-2.42,2.82L78.7,61.42a32.7,32.7,0,0,1-2.65,2.11c-.19.13-.35.23-.54.38l-.86.58-.29.19-.29.19a.87.87,0,0,1-.34.15ZM61.33,49.64a1.51,1.51,0,0,1-.21.23,2.75,2.75,0,0,1-.22.26,5.28,5.28,0,0,1-1.67,1.08,2.14,2.14,0,0,0,.05-1,13.24,13.24,0,0,0,2-.53Zm0,0Zm-39.7-.43a6.43,6.43,0,0,1,.85.4,3.85,3.85,0,0,1,.47.19l.41.25c.25.15,1,.54,1.22.7A1.4,1.4,0,0,0,25,51a5.87,5.87,0,0,1,.76.5l.8.52a2.45,2.45,0,0,1,.35.26l4.26,2.86c.14.1.19.17.34.27L34.13,57a.32.32,0,0,0,.25.1l1,4.48c0,.12,0,.06.1.21l.5,1.47c.07.33.08.07.21.44.07.17.11.31.18.47s0,.17.2.46l.2.46c-.2,0-2.08-1.34-2.31-1.49a23.57,23.57,0,0,1-2.14-1.71l-.49-.43c-.11-.08-.15-.14-.26-.22l-1.48-1.4c-.29-.37-1-1-1.17-1.23s-.27-.35-.44-.52l-2.6-3.13-.4-.55L25,53.83l-.82-1c-.16-.18-.28-.34-.43-.54s-.25-.36-.4-.56a2.83,2.83,0,0,0-.2-.28l-1.33-1.55c-.11-.15-.05-.19-.27-.21l.05-.43Zm33.89.17h0v.22h0v-.22Zm0-.39h0v.21h0V49Zm2.53-.4.4.88a8,8,0,0,1-1.4-.31s0,0,0,0l.06,0a3.35,3.35,0,0,0,.91-.53Zm-6,.88a2.22,2.22,0,0,1,.4-.88,2.06,2.06,0,0,0,1,.48,4.11,4.11,0,0,1-1.45.4Zm11.27-.61a10.28,10.28,0,0,1,1.78,2.46c.09.17.13.3.22.48a2.34,2.34,0,0,1,.23.51c-.19,0-.29.31-.55.58A8.58,8.58,0,0,1,63,54.45a1,1,0,0,1,.1-.35l.3-1.09a5.14,5.14,0,0,0,.09-.83A5.65,5.65,0,0,0,63.46,50c-.06-.34-.12-.74-.17-1.09ZM46.87,50.69a10.45,10.45,0,0,0,.07,1.77,13.55,13.55,0,0,0,.5,2,10.61,10.61,0,0,1-2.26-1.89,2,2,0,0,1-.13-.18c-.07-.08-.09-.07-.15-.16l.46-1a7.68,7.68,0,0,1,.69-1.1,6.79,6.79,0,0,1,1.17-1.41,8.24,8.24,0,0,0-.35,2Zm29.27,5.59.13-2a7.68,7.68,0,0,0,0-1,12.12,12.12,0,0,0-.33-2.9l-.28-1.91c.56,0,1,0,1.53,0h6.34c1.81,0,3.47,0,5.28,0l-.42.19c-.18.07-.3.13-.45.2s-.24.15-.39.22a15,15,0,0,0-2.43,1.42,5.85,5.85,0,0,0-.61.36l-.18.12c-.14.1-.23.18-.38.28l-1.54,1c-.26.2-.47.34-.75.52s-.21.17-.35.26l-.4.26-.19.12-1,.65c-.16.1-.25.17-.39.27l-3.19,1.92ZM67.53,58.6a1.47,1.47,0,0,1,.15-.34l.14-.38.54-1.47A24.19,24.19,0,0,0,69,52.94c0-.19,0-.22,0-.45a7.34,7.34,0,0,0,0-1.41c0-.72-.39-2.45-.39-2.62H74.7l-1.58,3.8a12.42,12.42,0,0,1-.8,1.38l-.43.66a14.88,14.88,0,0,1-2,2.3c-.28.27-1.09,1.12-1.35,1.31s-.21.13-.34.23l-.64.46ZM63.91,48.46h3.71c-.14.27-.21.54-.34.84a15.06,15.06,0,0,1-.8,1.61l-.13.17a1.86,1.86,0,0,1-.1.2c-.12.2-.15.29-.29.33a8.85,8.85,0,0,0-1.17-2.06,3.65,3.65,0,0,1-.29-.37c-.35-.5-.47-.54-.59-.72Zm-5.16,0H62l-.31.17a6.87,6.87,0,0,1-2.53.84,2.14,2.14,0,0,1-.09-.27l-.21-.49c0-.1-.09-.15-.14-.25Zm-2.66,0h.7v0h-.7v0Zm-2.41,0h.75v0h-.75v0Zm-5.32,0h3.36a2.05,2.05,0,0,0-.28.51c-.25.74-.07.57-1,.38a4,4,0,0,1-.76-.2c-.33-.12-.56-.37-1-.49-.23-.07-.2,0-.32-.2Zm-5.51,0h3.67l-.59.68a10.37,10.37,0,0,0-.8,1.16,5.68,5.68,0,0,0-.66,1.3h-.09c-.06-.25-.64-1-.84-1.47-.13-.3-.22-.54-.35-.83l-.34-.84Zm-7.08,0h6.16c0,.2-.1.34-.15.59s-.05.41-.08.66c-.07.45-.15.91-.2,1.33v2.17c.06.58.29,2.1.43,2.63,0,.11.06.19.09.31l.57,1.7a4.5,4.5,0,0,1,.35.83,18.61,18.61,0,0,1-1.83-1.41,16,16,0,0,1-2-2.31l-1.72-2.61c-.11-.24-.22-.51-.34-.75a9.11,9.11,0,0,1-.68-1.5,2.55,2.55,0,0,1-.13-.39,2.7,2.7,0,0,0-.16-.41,8.16,8.16,0,0,0-.26-.84Zm-14.15,0H34.86c0,.21-.1.38-.14.6l-.34,1.9c-.09.8-.22,2.09-.22,2.91,0,.47,0,.81,0,1.23s.09.79.09,1.18l-2.4-1.4c-.49-.33-1-.71-1.55-1s-1.54-1.09-1.89-1.29L28,52.26,26.19,51l-.39-.26-.8-.52c-.44-.31-1.26-.69-1.63-.94l-1.75-.83ZM66,44.66c.16.05.09.05.26.31l.25.36a2.78,2.78,0,0,1,.29.58,1.4,1.4,0,0,1,.13.18c.08.13.11.25.18.39l.36.81a2.6,2.6,0,0,0,.15.47H63.91c.16-.25.42-.38.59-.67l.55-.76a8.15,8.15,0,0,0,.71-1.21,3.05,3.05,0,0,0,.2-.46Zm-6.82,2.19a5.3,5.3,0,0,1,2.25.59l.64.32H58.75a3.34,3.34,0,0,0,.39-.91Zm-2.7.87v0h-.35c.08-.11.08,0,.35,0Zm-5.25-1c.13,0,.14.09.18.18l.31.78H48.44c.08-.11.14-.1.28-.16s.19-.11.31-.17a6.1,6.1,0,0,1,2.16-.63Zm-6.81-2.1.72,1.24,1.38,1.82H42.9a1.9,1.9,0,0,1,.15-.42,4,4,0,0,1,.34-.79,2.83,2.83,0,0,0,.17-.4,7.68,7.68,0,0,1,.41-.72l.41-.73Zm2.8,2.75Zm8.38-.65h0V47h0v-.22Zm2.49.87a2,2,0,0,0-1-.48c.1-.13.41-.19.6-.23a2.47,2.47,0,0,1,.76-.12l-.4.83Zm-6-.87a3.21,3.21,0,0,1,1.4.35,1.94,1.94,0,0,0-1,.48c-.05-.16-.13-.2-.2-.37s-.09-.33-.15-.46Zm-2.84-.26Zm9.3-.4a2.64,2.64,0,0,0-.83.09,4.78,4.78,0,0,0-.7.22,8.28,8.28,0,0,0,.31-1.7l1.16.06c.11.07.05.09.1.42a1.57,1.57,0,0,1,0,.91Zm-6.64-.48c0-1,0-.85.39-.88s.55,0,.88,0a9.22,9.22,0,0,0,.31,1.61,4.34,4.34,0,0,1-.62-.16,2.86,2.86,0,0,0-1-.1v-.44Zm-2.66.88c.27-.4.16-.19.4-.43a4.27,4.27,0,0,1,1.56-1l0,.74c0,.05,0,.13,0,.26a10.94,10.94,0,0,0-1.92.44Zm10.05-1.44a5.39,5.39,0,0,1,2,1.57,6.82,6.82,0,0,0-1-.31,8.48,8.48,0,0,0-1.09-.17c0-.21,0-.16,0-.44s0-.38,0-.65Zm-5.38-.22a6,6,0,0,1,.83.43l-.56,1c0-.16-.13-.5-.17-.66a2.34,2.34,0,0,1-.1-.73Zm2.32,1.44c0-.42-.43-.82-.48-1a2.23,2.23,0,0,1,.4-.24c.18-.08.31-.11.47-.19a3.18,3.18,0,0,1-.13.78c0,.1-.06.21-.1.34s-.05.24-.16.32Zm-1.36-5.07v3.32l-.44-.22a1.28,1.28,0,0,0-.52-.17,6,6,0,0,1,.33-1.59c.25-.64.32-.6.53-1.18.08-.19-.06,0,.1-.16Zm.7,3.32.09-3.32c0,.38.21.33.41.9.12.35.23.68.32,1,0,.15.33.88.15,1s-.39.15-.48.18-.35.18-.49.21Zm10.75-.65s0,0,0,0,0,0,0,0a.11.11,0,0,0,0-.06,28.6,28.6,0,0,0,.74-2.8l.12-1.36c0-.33,0-.46,0-.75l.12.24A18.94,18.94,0,0,1,68,41.21c0,.26.1.37.13.62l.13,1.43a10.53,10.53,0,0,1-.14,3.05,1.58,1.58,0,0,1-.12.54,7.09,7.09,0,0,0-.74-1.58,12,12,0,0,0-.92-1.39Zm-23.85,3-.07-.2a2.34,2.34,0,0,0,0-.26,15.4,15.4,0,0,1-.15-3.12,22.47,22.47,0,0,1,.33-2.37L43,39.38c.11-.29.09-.39.22-.48a15.22,15.22,0,0,0,.72,4.39c.24.76.36.33-.27,1.26-.21.32-.38.7-.64,1.1a1.59,1.59,0,0,0-.19.42,4.63,4.63,0,0,0-.36.82ZM56.79,42A4.74,4.74,0,0,1,58,43.45a4.59,4.59,0,0,1,.27.6l-1,0a8.45,8.45,0,0,0-.48-2ZM53.2,44l-1,0a3.94,3.94,0,0,1,.28-.59l.35-.53a4.21,4.21,0,0,1,.85-.93c0,.16-.19.52-.29.92A7.51,7.51,0,0,0,53.2,44Zm9.88-2.19c.78.53.62.48,1.31,1L65.52,44a6.64,6.64,0,0,1-.45.94,17.49,17.49,0,0,1-1.24,1.91l-.54.51.22-1a9.51,9.51,0,0,0-.33-4.12,3.2,3.2,0,0,1-.1-.42Zm-15.9,5.59a3.78,3.78,0,0,1-.64-.76l-.89-1.2c-.09-.16-.14-.29-.25-.46s-.16-.27-.25-.44A4.48,4.48,0,0,1,45,44a8.58,8.58,0,0,1,2.49-2.23L47.08,43c0,.19-.08.43-.14.64a6.31,6.31,0,0,0-.07.76c0,.57,0,1.06,0,1.58a6.61,6.61,0,0,0,.19,1,1.6,1.6,0,0,1,.08.36Zm8.91-6.77a10.86,10.86,0,0,1,1.79-.26,6.86,6.86,0,0,1,2.76.34,7.89,7.89,0,0,1,.82.27c.48.22.57,0,.69.44a8.22,8.22,0,0,1,.51,1.69,6.4,6.4,0,0,1,.24,2,11.32,11.32,0,0,1-.3,2.18c-.25-.18.1,0-.28-.51a5.92,5.92,0,0,0-1.16-1.33c-.17-.13-.28-.26-.45-.38a6,6,0,0,0-1.65-.83,5.64,5.64,0,0,0-.47-1.16,2.23,2.23,0,0,0-.48-.69c-.35-.42-1.5-1.61-2-1.65v-.09Zm-4.68,3.63a2.55,2.55,0,0,0-1.15.46,7.16,7.16,0,0,0-1.35,1.06A6.85,6.85,0,0,0,48,47c-.14.25,0,.18-.15.29a8.07,8.07,0,0,1-.3-2.49,4.57,4.57,0,0,1,.09-1c.07-.3.1-.58.19-.89a3.85,3.85,0,0,1,.22-.7l.21-.53c.06-.16.06-.33.12-.45s.2,0,.36-.08.18-.09.3-.13a6.52,6.52,0,0,1,2.17-.54,3.1,3.1,0,0,1,.79-.08,8,8,0,0,1,2,.24c.18,0,.25,0,.33.15-.29,0-.16,0-.3.09l-.1.08c-.24.19-.87.62-1,.8l-1.21,1.63a6.72,6.72,0,0,0-.33.94ZM34.16,42.09c0,.54,0,1,.08,1.48a22.79,22.79,0,0,0,.33,2.82,9.86,9.86,0,0,0,.29,1.33H21.71c.15-.13.9-.35,1.27-.6a3,3,0,0,1,.43-.23c.15-.07.26-.14.4-.22l.81-.45c1-.62,1.41-.93,2.3-1.51l6.95-4.53.42-.24c0,.45-.07.72-.09,1.1,0,.21,0,.38,0,.49s-.05.29-.05.56Zm42-2.15a6.84,6.84,0,0,1,.81.46l.8.46.76.51c.1.08.1.05.2.11l2.89,1.91a6.54,6.54,0,0,0,.77.55c.36.22.62.47.73.53a7.13,7.13,0,0,1,.76.5l3.2,2c.28.15.53.31.83.44a4.89,4.89,0,0,0,.46.19l.22.09.12.05-4.86.06c-.57,0-1,0-1.62,0H78.89c-1.11,0-2.13,0-3.28,0a5,5,0,0,1,.12-.63l.34-2a19.41,19.41,0,0,0,.2-2.95c0-.3-.08-2.11-.13-2.23ZM55.91,40a9.87,9.87,0,0,1,2.87-2.07,2.92,2.92,0,0,0,.5-.25c.26.18.39.36.63.55a3.2,3.2,0,0,1,.59.63,7.27,7.27,0,0,1,.53.66,4.18,4.18,0,0,1,.47.74,3.25,3.25,0,0,0-.6-.18,8.84,8.84,0,0,0-2.1-.39,5.18,5.18,0,0,0-1.5,0L55.91,40ZM49,40.25a10.54,10.54,0,0,1,1.58-2c.11-.1.21-.24.29-.31l.35-.27c.46.31,1,.43,1.6.85l.63.46.43.32c.16.12.23.2.38.32a1.62,1.62,0,0,1,.37.37c-.2,0-1-.22-1.34-.27s-.5,0-.8,0a6.23,6.23,0,0,0-2.22.18,11,11,0,0,0-1.27.39Zm-7.47,3a19.18,19.18,0,0,0,.12,2.94l.27,1.52H35.77a8.35,8.35,0,0,0,.25-.8l.45-1.17c.05-.16.12-.26.17-.39s.09-.25.15-.38l.1-.17A1.33,1.33,0,0,0,37,44.6l.94-1.73c.17-.29,1.4-2,1.6-2.19a2.17,2.17,0,0,0,.24-.29,2.7,2.7,0,0,0,.27-.3L41.1,39c.21-.17.37-.33.59-.5L42.3,38c.15-.13.2-.11.38-.28l.26-.17-.63,1.55c-.05.13,0,.2-.09.35l-.22.7a15.63,15.63,0,0,0-.4,2.26,5.43,5.43,0,0,0-.1.81Zm26-5.63,1.23.91a13.55,13.55,0,0,1,1.12,1l.76.81a14.55,14.55,0,0,1,1.64,2.17c.08.12.13.17.21.31s.13.25.2.37.29.42.42.67.22.47.34.75.13.2.2.33.1.24.16.36c.25.55.49,1.44.73,2a1.35,1.35,0,0,1,.11.45H68.54c.18-.78.22-1.46.35-2.22a12.24,12.24,0,0,0-.08-3.42l-.28-1.64-1-2.85Zm-7.47-.26,2-.5a11.32,11.32,0,0,1,2.88-.17l.57-.05c.38-.06.22,0,.46.06s.26,0,.51.09c0,.67.09.4.09.66a22.88,22.88,0,0,1-.18,3.48L66,42.65a3.16,3.16,0,0,0-.17.57c-.21-.06-.07,0-.36-.34a4.55,4.55,0,0,0-.76-.68,8,8,0,0,0-1.24-1l-.68-.41c-.16-.05-.18,0-.27-.12s0-.11-.2-.5c-.09-.15-.2-.31-.28-.46-.18-.39,0-.12-.29-.42s-.13-.28-.45-.63c-.09-.09-.08-.1-.16-.19l-.89-.94-.1-.08c-.12-.12,0,0-.09-.13ZM44.64,43.22a15.22,15.22,0,0,1-.74-4.67c0-.3,0-.61,0-.9s-.06-.07,0-.29a1.08,1.08,0,0,0,0-.43c.17,0,.29-.06.31-.26a1.17,1.17,0,0,0,.4,0,27.76,27.76,0,0,1,2.86.09,12.39,12.39,0,0,1,2.85.69c-.12.19-.86.89-1,1.11l-1.18,1.7c0,.1-.06.15-.11.24l-.15.24c-.12.14-.1,0-.45.25l-.46.29-.85.59c-.16.12-.22.21-.37.32l-.2.15a7.89,7.89,0,0,1-.92.92Zm10.92-3.93V35.62l1.68.68,1.09.66c.15.12.23.12.33.28a9.09,9.09,0,0,0-2,1.16l-.73.58c-.14.1-.21.22-.35.31Zm-.7-3.67V39.2c-.31-.17-1.11-.89-1.39-1.1-.12-.09-.25-.12-.38-.22s-.28-.17-.41-.25l-.87-.39a7.34,7.34,0,0,1,1.4-.91l.09,0L54,36c.28-.14.58-.21.84-.34Zm12.89,1.27a12,12,0,0,1,2.08.45c.58.19,1.48.38,2,.61a6.6,6.6,0,0,0,.91.35l2.23,1c.18.09.26.19.45.21,0,.23.13,1.22.13,1.83,0,.31,0,.56,0,.92,0,.7-.11,2.13-.19,2.78a11.23,11.23,0,0,1-.29,1.72L74.5,45.2c-.22-.51-.43-1-.69-1.44l-1.42-2.34a12.36,12.36,0,0,0-1.22-1.49,1.61,1.61,0,0,1-.24-.28l-1.62-1.57-1.56-1.19ZM35.34,46.72a5.65,5.65,0,0,0-.13-.62c-.15-.7-.15-1.28-.25-2L34.87,42c.1-.77,0-.79.11-1.55a8.37,8.37,0,0,0,.05-1,16.26,16.26,0,0,0,1.75-.78c.29-.13.59-.24.9-.36A16.14,16.14,0,0,1,40,37.48c1-.21.88-.31,2.07-.51a3.4,3.4,0,0,1,.57-.08l-2.07,1.65c-.23.24-.44.34-.83.78l-1,1.14c-.36.45-.62.9-.9,1.24-.07.1-.17.2-.23.29s-.14.24-.22.36-.11.19-.19.33l-.76,1.38a8,8,0,0,0-.5,1.11,9.87,9.87,0,0,0-.47,1.15l-.17.4Zm32.41-9.83ZM44.16,35.36Zm22.11-.09,0,.09,0-.09Zm-1.88.7a13.5,13.5,0,0,0-3.87.54c-.55.14-1,.36-1.11.38l-.66-.48a9.32,9.32,0,0,0-2.27-1.18c.09-.13,0,0,.42-.15.18,0,.32,0,.54,0s.23-.06.48-.09l.57,0c.22,0,.27,0,.52,0l1.68.11,1.44.26a10.44,10.44,0,0,1,1.42.38c.26.12.51.16.73.27s0,0,.11.07Zm-13.33.92L50,36.5l-1.24-.24a10.66,10.66,0,0,0-2.64-.33.22.22,0,0,1,.1-.08l1-.35a11,11,0,0,1,1.87-.4c.57-.05,1.1-.15,1.7-.19a10.42,10.42,0,0,1,1.93.05,7.31,7.31,0,0,1,1.26.22l0,0s0,0-.05,0l-2.17,1.16a.86.86,0,0,0-.16.1l-.52.4Zm4.5-2.19V28.41l1.58.57a18.42,18.42,0,0,1,2.24,1,3.28,3.28,0,0,1,.31.2,15.26,15.26,0,0,1,1.36.83,1.45,1.45,0,0,0,.34.23,22.78,22.78,0,0,1,2.32,2l1.49,1.78c.35.44.18.3.31.47s.08.07.14.17a2,2,0,0,1-.53-.21,14.3,14.3,0,0,0-2.86-.94L61,34.32l-2.08-.14c-.24,0-.44.09-.7.09a8.89,8.89,0,0,0-2.63.43Zm18.13-3.53a.66.66,0,0,1,.31.16l3.92,2.82a3,3,0,0,1,.28.24c.37.36.89.78,1.27,1.13l2.64,2.69,4.28,5.37c.15.2.28.34.43.53s.27.35.43.54l1.38,1.71c.1.11.14.09.17.23V47a10.16,10.16,0,0,1-1.75-.83,18.62,18.62,0,0,1-2.37-1.48,2.7,2.7,0,0,0-.4-.25l-3.44-2.37c-.27-.18-.46-.36-.75-.52a5.69,5.69,0,0,1-1-.65l-.21-.09-.8-.51c-.15-.1-.27-.15-.42-.24s-.26-.14-.41-.24A6.14,6.14,0,0,0,76,39.11c0-.33-.27-2-.33-2.2s-.18-.64-.27-1a3.1,3.1,0,0,0-.19-.77l-1.37-3.7v0l-.15-.24ZM21.62,47c0-.64.05-.44.27-.69l1.32-1.56c.29-.39.53-.75.81-1.12l3-3.78c.39-.49,1.38-1.7,1.79-2.1l.46-.5.48-.48c.27-.28,0-.1.47-.49s.63-.68,1-.95L33,33.72l1.68-1.24a3,3,0,0,0,.3-.19,3.32,3.32,0,0,1,.56-.4l.3-.18a3.21,3.21,0,0,1,.94-.54L36,32.82a5.92,5.92,0,0,1-.28.69l-.1.38c-.07.18-.1.11-.15.33-.16.68-.3,1-.42,1.5,0,.14-.07.25-.1.38a8.59,8.59,0,0,0-.36,1.6c0,.12-.05.28-.08.4-.13.48,0,.81-.2,1L33,39.88c-.22.14-.4.2-.61.36l-1.78,1.14-.13.09-.17.09-.3.18c-.14.08-.14.13-.26.22l-3.16,2.17c-.55.35-1.24.87-1.73,1.16l-2.5,1.38a2.41,2.41,0,0,0-.33.15l-.37.16ZM54.86,34.66a11,11,0,0,0-2.53-.44,15.09,15.09,0,0,0-2.81.12,8.43,8.43,0,0,0-1.9.33l-1.72.55a4.38,4.38,0,0,1-1.08.44l1.38-1.8c.18-.18.36-.39.54-.55l1.7-1.54a15.85,15.85,0,0,1,1.92-1.31l1.4-.78a19.41,19.41,0,0,1,3.1-1.22V30c0,.29-.06.51,0,.74.09,1.07,0,2.76,0,3.89Zm11.41.61-1.43-1.72A14.79,14.79,0,0,0,63,31.68l-1.19-.95c-.49-.29-.69-.52-1.44-.92l-.17-.09a14.07,14.07,0,0,0-1.36-.78l-1.48-.62a4.47,4.47,0,0,1-.75-.34,4.45,4.45,0,0,0,.81-.15l3.6-.34c.35,0,.64.1.89.07s1.2.11,1.82.11c.07.28.58,1.27.67,1.51a12,12,0,0,1,.47,1.15c.2.58.48,1.17.69,1.85,0,.16.06.33.12.49l.41,1.51a2.43,2.43,0,0,1,.09.52,2.84,2.84,0,0,1,.09.57Zm-22.11.09a21.39,21.39,0,0,1,1-4.08,8.41,8.41,0,0,1,.37-.9A10.12,10.12,0,0,1,46.13,29l.61-1.36,1.83-.13c.37,0,.56,0,.92,0s.68.09.91.07c.87-.07,2.8.41,3.5.41h0a15,15,0,0,1-1.49.61l-1.8.87L48.33,31l-1.45,1.21-.26.26a9.34,9.34,0,0,0-1.27,1.4l-.48.61c-.2.25-.11,0-.35.43l-.11.15-.12.15-.13.18Zm-.83.74a5.83,5.83,0,0,0-1.36.21,18.08,18.08,0,0,0-2.13.49c-.29.07-.49.2-1,.31-.21,0,0,0-.22.08-.34.17-.41.07-.73.27a12.6,12.6,0,0,1-1.39.58,3,3,0,0,0-.44.22c-.3.16-.6.27-.89.42L35.48,37c0-.17.09-.35.14-.56l1.25-3.69a1.69,1.69,0,0,0,.09-.34l.86-1.85c.11-.23.36-.2.62-.34a12.5,12.5,0,0,1,1.86-.85c.11,0,0,0,.12,0a3.88,3.88,0,0,1,.86-.32l.14,0h0l0,0,.06,0L44.69,28a9.31,9.31,0,0,1,1.18-.17c0,.21,0,.06-.09.22l-.51,1.15c-.14.44-.48,1.1-.6,1.45-.06.18-.1.35-.15.5l-.18.53-.48,1.52c-.06.2-.07.36-.12.58a11.21,11.21,0,0,0-.41,2.3Zm21.23-8.25a17.91,17.91,0,0,1,3.75.88c.18.06.3.11.52.17l.23.08.26.09.47.18c.18.06.28.15.45.21l1.18.49c.21.06.17.11.42.22l.12.06c.75.37.61.05.75.52.1.29.47.85.62,1.3s.36.74.49,1.17l.37,1a3.51,3.51,0,0,0,.15.5,9.37,9.37,0,0,1,.44,1.57,10.1,10.1,0,0,1,.36,1.65c0,.32.12.26.12.7a3,3,0,0,1-.91-.39L71.47,37.1,71,36.93c-.15,0-.37-.07-.53-.12a9.58,9.58,0,0,0-2.14-.53,6.4,6.4,0,0,0-1.17-.18,20.39,20.39,0,0,0-.55-2.81L66,31.2c-.07-.19-.14-.27-.21-.49s-.22-.66-.36-1l-.73-1.62L64.61,28c0-.06,0-.09,0-.12Zm-5.11-1c-.19,0,0-.12-.29,0a4.28,4.28,0,0,1-.72.07c-.15,0-.33.1-.39.1-.29,0,.11-.09-.6.05l-1.28.21c-.34.09-.28.13-.61.13V14.22l.22.39a21.11,21.11,0,0,0,1,2.14l4.66,7.18a21.72,21.72,0,0,1,1.59,2.6,1.49,1.49,0,0,1,.21.44c-.28,0-.69-.09-1-.09a8.48,8.48,0,0,1-1.06-.08,3.17,3.17,0,0,0-.47,0c-.38,0-.13-.13-.43-.05a.84.84,0,0,1-.46.05c-.26-.05.14,0-.07,0s-.12.07-.35.07Zm-11.14-.05c-.35,0,.07-.05-.42,0h-.08c-.35-.05-.05,0-.63,0,.22-.34.31-.63.44-.83.26-.39.4-.7.72-1.16.17-.25.27-.48.45-.81l2.55-3.79a3,3,0,0,1,.25-.4,3.1,3.1,0,0,0,.27-.34c.36-.61.74-1.11,1-1.54a17.54,17.54,0,0,0,.95-1.59l.64-1.28c.08-.15.33-.77.42-.89V27.5l-.74-.18c-.23-.05-.56-.09-.79-.12L51.67,27a14.91,14.91,0,0,0-1.74-.14,2.29,2.29,0,0,0-.84,0,.91.91,0,0,1-.48-.06c-.15,0-.1.06-.3.06Zm9.52-12.67c.86.08,1.72.22,2.57.32a30.28,30.28,0,0,1,4,.88l2.19.7c.53.15,1.85.73,2.43,1l.62.34c.35.18.61.25,1,.48l1,.49.3.19c.28.19.66.33.94.54s.58.36.87.57a1.28,1.28,0,0,0,.3.19,6.31,6.31,0,0,1,.88.61c.46.35.86.73,1.34,1.05.29.2.54.46.81.68l1.51,1.37c.11.1.15.11.26.22l1,1A2.53,2.53,0,0,0,80,25a27.63,27.63,0,0,1,2.6,3.25,6.31,6.31,0,0,0,.39.57l1.15,1.78a10,10,0,0,0,.68,1.24L86,34.5c.11.23.17.46.28.68s.1.2.15.33L87.35,38c.05.13.08.23.12.36a28.88,28.88,0,0,1,.81,3.6c.17,1.27.37,2.1.48,3.4a1.43,1.43,0,0,1-.22-.26l-.64-.79c-.72-.88-1.46-1.77-2.1-2.71A20.16,20.16,0,0,0,84.49,40L83.6,39a41.59,41.59,0,0,0-3.21-3.56l-1.31-1.14c-.26-.21-.51-.49-.76-.68l-1.64-1.29c-.2-.15-.36-.25-.57-.39l-.58-.42c-.2-.13-.39-.23-.59-.37l-1.5-.91c-.41-.22-.31,0-.46-.45L71.29,27a1.32,1.32,0,0,0-.19-.29c-.07-.1-.14-.18-.21-.27s-.29-.37-.41-.55L69.2,24.21c-.64-.65-1.23-1.36-1.88-2l-1-1c-.5-.46-1-1-1.5-1.39-.35-.27-.75-.57-1.08-.88s-.71-.57-1.05-.88c-.72-.64-1.94-1.55-2.73-2.15l-1.09-.84a8.5,8.5,0,0,1-1-.93ZM46.3,27.06c-.34,0-2.31.39-2.66.48-1.18.3-1.9.59-2.91.89l-2.25,1L39.37,28a1.17,1.17,0,0,1,.19-.3l1.82-2.45a16.56,16.56,0,0,1,1.09-1.27c.1-.11.12-.16.22-.27.53-.56,1.08-1.16,1.66-1.7l1.24-1.11c.11-.11.16-.12.26-.22l3.66-3c.6-.45.72-.63,1.33-1l2.1-1.76c.24-.2.62-.43.7-.73h.48a17.43,17.43,0,0,1-1.51,3L48.72,23c-.49.65-.64,1.05-1,1.58a3.42,3.42,0,0,0-.26.4l-.49.82a4.54,4.54,0,0,0-.21.45l-.24.41a2,2,0,0,0-.23.43ZM21.67,45.45c.13-.56.07-1.15.2-1.72a2.35,2.35,0,0,0,.06-.42c0-.14.06-.29.07-.41l.28-1.69a22.06,22.06,0,0,1,.59-2.33,6,6,0,0,0,.2-.76c.06-.26.18-.49.24-.72a12.7,12.7,0,0,1,.79-2.14c.2-.45.33-.94.55-1.37l1.69-3.21c.06-.1.09-.2.16-.31l.57-.88a23.45,23.45,0,0,1,2-2.83l.21-.26,2.58-2.8a10.34,10.34,0,0,1,1.24-1.16c.15-.08.16-.14.27-.25l1.32-1.09.27-.2a16,16,0,0,1,2.31-1.59,7,7,0,0,0,.6-.4l1.85-1c.49-.27,1-.46,1.47-.7a18.23,18.23,0,0,1,3.32-1.32,1.42,1.42,0,0,0,.35-.13,2.84,2.84,0,0,1,.35-.13,29.63,29.63,0,0,1,3.93-1l.84-.12c.26,0,.59-.07.83-.13l1.76-.21a4.23,4.23,0,0,1-.76.69c-.41.32-.92.84-1.34,1.1a9.85,9.85,0,0,0-1.08.85c-.51.45-1.13.81-1.63,1.28l-1.6,1.34c-1,.83-1.89,1.62-2.79,2.53a9.74,9.74,0,0,0-.74.7l-.47.54c-.08.1-.15.15-.24.25l-1.53,1.87c-.62.83-1.28,1.65-1.82,2.54a1.69,1.69,0,0,1-.2.28c-.13.15-.2.41-.35.62l-.53.91c-.21.5-.1.24-.5.5l-2.38,1.51c-.27.22-.58.38-.86.58l-1.65,1.28a18.27,18.27,0,0,0-1.53,1.39c-.18.18-.33.27-.5.46a2.75,2.75,0,0,1-.22.26l-.27.21c-.19.15-.3.32-.48.49s-.35.33-.5.51a1.69,1.69,0,0,1-.22.26c-.11.11-.12.14-.22.25l-2.66,3.16c-.15.18-.3.37-.44.56l-1.69,2.2c-.28.38-.52.74-.81,1.1a9,9,0,0,1-.91,1.06ZM56.31,14.09h.48c.1.37,1.67,1.54,2.11,1.9l1.49,1.17c.42.34,1.22.9,1.6,1.24.77.68,2.28,1.83,2.87,2.43.33.33,1.12,1,1.46,1.37a15.56,15.56,0,0,1,1.21,1.19,5.47,5.47,0,0,0,.45.51c.11.11.12.15.22.26a8.2,8.2,0,0,1,.68.77c.42.55,1.52,1.92,1.85,2.47l.38.58.19.29L72,29.46c-.14,0-.18-.1-.32-.16a2.17,2.17,0,0,1-.36-.12l-3.87-1.46-1.21-.28a7.19,7.19,0,0,0-1.61-.3c-.27,0-.34,0-.52-.19s-.89-1.64-1.16-2L62,23.44a3,3,0,0,0-.19-.3c-.2-.3-.56-.94-.76-1.16l-1.16-1.77A2,2,0,0,1,59.7,20l-.77-1.19c-.31-.43-1.47-2.27-1.68-2.69-.06-.12-.1-.22-.16-.32-.17-.34-.3-.51-.49-.95-.11-.26-.17-.48-.29-.71ZM20.92,47c0,1,0,2,0,3l.06.65a8.22,8.22,0,0,0,.07,1c.05.34,0,.66.1.95a9.06,9.06,0,0,1,.13.91l.74,3.5c.18.51.28,1.13.47,1.63a1.64,1.64,0,0,1,.11.41l1,2.66c.11.23.23.49.32.72l3,5.44c.08.12.14.19.22.3.51.69,1.07,1.45,1.62,2.1l1,1.14c.52.54,1,1.11,1.55,1.63l2.8,2.44c.6.45,1.21.94,1.84,1.35l2.25,1.43c.14.08.22.09.35.16l.32.21c.38.26,2.32,1.16,2.85,1.39l1.88.74c.39.13.76.3,1.17.41.15,0,.22.09.37.14.6.21,1.85.49,2.53.66a33.6,33.6,0,0,0,5,.76c.57,0,1.14.09,1.72,0h1.63l.23,0h.53c.28,0,.73-.06,1-.08.65-.06,1.32-.13,1.93-.21l1.85-.29A28.5,28.5,0,0,0,65,81.35c.29-.1,1-.24,1.23-.35.6-.3,1.25-.43,2-.76l1.52-.65c.21-.07.33-.21.51-.28l1.26-.62a1.69,1.69,0,0,1,.31-.21,8.12,8.12,0,0,0,1.35-.8l1-.63.31-.21,1.85-1.39.58-.47.61-.47c.58-.43,2.18-2.05,2.75-2.62a18.71,18.71,0,0,0,1.22-1.45l2.3-3.07a3.53,3.53,0,0,1,.21-.32,14.25,14.25,0,0,0,1.2-2c.11-.23.28-.45.37-.68l.37-.72.17-.36.84-1.87c.22-.51.39-1,.57-1.57a6.34,6.34,0,0,0,.31-.78c.09-.41.26-.8.36-1.21,0-.09,0-.12.06-.21s0-.13.08-.22c.38-1.13.5-2.37.77-3.56s.22-2.28.37-3.34a30.88,30.88,0,0,0,0-3.48L89.41,45c0-.3,0-.67-.09-1a40.21,40.21,0,0,0-1.08-5.35L88,37.82c-.1-.29-.15-.56-.25-.84-.17-.52-.42-1-.56-1.58,0-.21,0,0-.07-.19l-.59-1.33a6.66,6.66,0,0,0-.33-.72l-.37-.73a8.3,8.3,0,0,0-.54-1,10.72,10.72,0,0,1-.56-1.06c-.14-.25-.29-.45-.42-.67L83.88,29c-.07-.12-.12-.23-.19-.33l-2.06-2.79a27.43,27.43,0,0,0-2.86-3c-.39-.32-.72-.7-1.12-1-.57-.45-.79-.71-1.48-1.22L75,19.67c-.35-.29-2.74-1.77-3.12-2a17.68,17.68,0,0,0-1.62-.83,7,7,0,0,1-.72-.37c-1-.48-2-.81-3.06-1.22a2,2,0,0,0-.37-.16l-.81-.23c-.59-.1-1.3-.41-2.17-.59L61.82,14c-.73-.17-1.57-.24-2.31-.4-.43-.09-1.43-.1-2-.16a8.87,8.87,0,0,0-1.06,0,4.59,4.59,0,0,1-.48,0c-.16,0-.29,0-.52,0l-2.38,0c-.32.08-.66,0-1,.08s-1,.07-1.36.17-1,.1-1.33.2L49,14a32.29,32.29,0,0,0-5.72,1.57l-2.2.9a22.88,22.88,0,0,0-2.36,1.22c-.44.27-.89.45-1.31.74l-3.94,2.84c-.2.15-.41.3-.59.46l-1.08,1c-.63.58-1.19,1.23-1.79,1.83-.25.26-.46.57-.7.83s-.32.36-.48.57l-.41.47,0,0,0,0a4,4,0,0,0-.47.62L25.45,30.8l-.71,1.34c-.25.49-.47.89-.69,1.41l-.32.68c-.38,1-.83,2-1.12,3l-.23.82c-.12.57-.33,1.06-.49,1.61l-.58,3c-.08.76-.28,1.52-.3,2.28s-.09,1.29-.09,2Z" transform="translate(-20.92 -13.39)"/><text class="cls-2" transform="translate(70.62 23.82)"><tspan class="cls-3">COSMOPOLITAN</tspan><tspan class="cls-4"><tspan x="-0.45" y="36.53">T</tspan><tspan class="cls-5" x="23.93" y="36.53">E</tspan><tspan class="cls-6" x="48.26" y="36.53">X</tspan><tspan class="cls-7" x="75.7" y="36.53">T</tspan><tspan class="cls-8" x="99.18" y="36.53">I</tspan><tspan class="cls-9" x="111.68" y="36.53">L</tspan><tspan class="cls-10" x="134.94" y="36.53">ES</tspan></tspan></text></svg>